<?xml version="1.0" encoding="UTF-8" standalone="no"?>
<!-- Generator: Adobe Illustrator 16.0.0, SVG Export Plug-In . SVG Version: 6.00 Build 0)  -->

<svg
   xmlns:dc="http://purl.org/dc/elements/1.1/"
   xmlns:cc="http://creativecommons.org/ns#"
   xmlns:rdf="http://www.w3.org/1999/02/22-rdf-syntax-ns#"
   xmlns:svg="http://www.w3.org/2000/svg"
   xmlns="http://www.w3.org/2000/svg"
   xmlns:sodipodi="http://sodipodi.sourceforge.net/DTD/sodipodi-0.dtd"
   xmlns:inkscape="http://www.inkscape.org/namespaces/inkscape"
   version="1.1"
   id="Layer_1"
   x="0px"
   y="0px"
   width="147.76851"
   height="51"
   viewBox="0 0 147.76851 51"
   enable-background="new 0 0 127.769 31.5"
   xml:space="preserve"
   sodipodi:docname="paypal.svg"
   inkscape:version="0.92.1 r15371"><metadata
     id="metadata33"><rdf:RDF><cc:Work
         rdf:about=""><dc:format>image/svg+xml</dc:format><dc:type
           rdf:resource="http://purl.org/dc/dcmitype/StillImage" /><dc:title></dc:title></cc:Work></rdf:RDF></metadata><defs
     id="defs31" /><sodipodi:namedview
     pagecolor="#ffffff"
     bordercolor="#666666"
     borderopacity="1"
     objecttolerance="10"
     gridtolerance="10"
     guidetolerance="10"
     inkscape:pageopacity="0"
     inkscape:pageshadow="2"
     inkscape:window-width="1920"
     inkscape:window-height="1143"
     id="namedview29"
     showgrid="false"
     inkscape:zoom="11.313709"
     inkscape:cx="92.992945"
     inkscape:cy="34.732422"
     inkscape:window-x="1680"
     inkscape:window-y="0"
     inkscape:window-maximized="1"
     inkscape:current-layer="Layer_1"
     inkscape:pagecheckerboard="true"
     fit-margin-top="10"
     fit-margin-left="10"
     fit-margin-right="10"
     fit-margin-bottom="10" /><rect
     style="opacity:1;fill:#ffffff;fill-opacity:1;stroke:none;stroke-width:0.37795275;stroke-miterlimit:4;stroke-dasharray:none;stroke-opacity:1"
     id="rect4534"
     width="147.78532"
     height="51.088463"
     x="0"
     y="-0.088464819"
     ry="4.9386902" /><g
     id="g16"
     transform="translate(10.000244,10)"><g
       id="g14"><path
         style="fill:#009cde"
         inkscape:connector-curvature="0"
         id="path2"
         d="M 98.396,6.933 H 91.37 c -0.479,0 -0.89,0.35 -0.964,0.824 l -2.841,18.015 c -0.056,0.355 0.219,0.676 0.579,0.676 h 3.604 c 0.335,0 0.622,-0.244 0.674,-0.576 l 0.807,-5.107 c 0.074,-0.474 0.483,-0.824 0.964,-0.824 h 2.223 c 4.628,0 7.298,-2.239 7.996,-6.678 0.314,-1.941 0.014,-3.467 -0.896,-4.535 -0.998,-1.175 -2.77,-1.795 -5.12,-1.795 z m 0.811,6.579 c -0.384,2.522 -2.31,2.522 -4.173,2.522 h -1.061 l 0.744,-4.708 c 0.045,-0.285 0.29,-0.495 0.578,-0.495 h 0.485 c 1.269,0 2.467,0 3.084,0.723 0.37,0.432 0.483,1.072 0.343,1.958 z" /><path
         style="fill:#003087"
         inkscape:connector-curvature="0"
         id="path4"
         d="m 48.288,6.933 h -7.025 c -0.481,0 -0.89,0.35 -0.965,0.824 l -2.841,18.015 c -0.056,0.355 0.219,0.676 0.579,0.676 h 3.354 c 0.48,0 0.889,-0.349 0.964,-0.823 l 0.767,-4.86 c 0.075,-0.474 0.484,-0.824 0.964,-0.824 h 2.223 c 4.627,0 7.298,-2.239 7.997,-6.678 0.314,-1.941 0.012,-3.467 -0.896,-4.535 -1,-1.175 -2.771,-1.795 -5.121,-1.795 z m 0.811,6.579 c -0.384,2.522 -2.31,2.522 -4.173,2.522 h -1.06 l 0.743,-4.708 c 0.045,-0.285 0.291,-0.495 0.579,-0.495 h 0.486 c 1.268,0 2.466,0 3.083,0.723 0.369,0.432 0.481,1.072 0.342,1.958 z" /><path
         style="fill:#003087"
         inkscape:connector-curvature="0"
         id="path6"
         d="m 69.286,13.432 h -3.363 c -0.289,0 -0.534,0.209 -0.579,0.494 l -0.147,0.94 -0.236,-0.341 c -0.728,-1.058 -2.352,-1.41 -3.973,-1.41 -3.716,0 -6.891,2.816 -7.509,6.766 -0.322,1.971 0.135,3.854 1.252,5.169 1.026,1.208 2.492,1.71 4.237,1.71 2.995,0 4.657,-1.924 4.657,-1.924 l -0.15,0.935 c -0.056,0.355 0.218,0.677 0.578,0.677 h 3.03 c 0.48,0 0.889,-0.349 0.965,-0.822 l 1.817,-11.517 c 0.056,-0.357 -0.219,-0.677 -0.579,-0.677 z m -4.688,6.547 c -0.325,1.923 -1.851,3.212 -3.797,3.212 -0.976,0 -1.757,-0.314 -2.259,-0.907 -0.498,-0.59 -0.685,-1.429 -0.527,-2.363 0.303,-1.905 1.854,-3.237 3.771,-3.237 0.955,0 1.73,0.316 2.243,0.917 0.514,0.604 0.717,1.449 0.569,2.378 z" /><path
         style="fill:#009cde"
         inkscape:connector-curvature="0"
         id="path8"
         d="m 119.394,13.432 h -3.363 c -0.288,0 -0.533,0.209 -0.578,0.494 l -0.148,0.94 -0.235,-0.341 c -0.729,-1.058 -2.352,-1.41 -3.973,-1.41 -3.718,0 -6.893,2.816 -7.51,6.766 -0.321,1.971 0.135,3.854 1.252,5.169 1.026,1.208 2.492,1.71 4.237,1.71 2.995,0 4.657,-1.924 4.657,-1.924 l -0.15,0.935 c -0.057,0.355 0.219,0.677 0.578,0.677 h 3.03 c 0.479,0 0.889,-0.349 0.964,-0.822 l 1.818,-11.517 c 0.056,-0.357 -0.219,-0.677 -0.579,-0.677 z m -4.688,6.547 c -0.325,1.923 -1.851,3.212 -3.797,3.212 -0.976,0 -1.757,-0.314 -2.26,-0.907 -0.496,-0.59 -0.685,-1.429 -0.526,-2.363 0.304,-1.905 1.853,-3.237 3.77,-3.237 0.956,0 1.731,0.316 2.243,0.917 0.515,0.604 0.718,1.449 0.57,2.378 z" /><path
         style="fill:#003087"
         inkscape:connector-curvature="0"
         id="path10"
         d="m 87.204,13.432 h -3.382 c -0.323,0 -0.626,0.16 -0.808,0.427 l -4.664,6.87 -1.978,-6.601 c -0.123,-0.414 -0.504,-0.696 -0.935,-0.696 h -3.324 c -0.401,0 -0.683,0.395 -0.555,0.774 l 3.724,10.929 -3.502,4.941 C 71.506,30.464 71.784,31 72.259,31 h 3.379 c 0.319,0 0.619,-0.157 0.802,-0.42 L 87.686,14.351 c 0.268,-0.389 -0.01,-0.919 -0.482,-0.919 z" /><path
         style="fill:#009cde"
         inkscape:connector-curvature="0"
         id="path12"
         d="m 123.359,7.427 -2.883,18.344 c -0.057,0.355 0.218,0.676 0.578,0.676 h 2.9 c 0.48,0 0.889,-0.349 0.964,-0.822 l 2.843,-18.016 c 0.056,-0.355 -0.219,-0.677 -0.578,-0.677 h -3.246 c -0.287,10e-4 -0.533,0.211 -0.578,0.495 z" /></g></g><g
     id="g24"
     transform="translate(10.000244,10)"><path
       style="fill:#009cde"
       inkscape:connector-curvature="0"
       id="path18"
       d="M 23.675,7.876 C 24.053,5.464 23.673,3.823 22.368,2.337 20.932,0.701 18.338,0 15.019,0 H 5.384 C 4.706,0 4.128,0.494 4.022,1.164 L 0.01,26.604 c -0.079,0.503 0.309,0.956 0.817,0.956 H 6.775 L 6.364,30.164 C 6.295,30.603 6.635,31 7.08,31 h 5.014 c 0.593,0 1.098,-0.432 1.191,-1.018 l 0.049,-0.255 0.944,-5.989 0.061,-0.331 c 0.093,-0.586 0.598,-1.019 1.191,-1.019 h 0.75 c 4.857,0 8.66,-1.972 9.771,-7.68 0.465,-2.384 0.225,-4.375 -1.003,-5.774 C 24.676,8.512 24.214,8.162 23.675,7.876 v 0" /><path
       style="fill:#012169"
       inkscape:connector-curvature="0"
       id="path20"
       d="M 23.675,7.876 C 24.053,5.464 23.673,3.823 22.368,2.337 20.932,0.701 18.338,0 15.019,0 H 5.384 C 4.706,0 4.128,0.494 4.022,1.164 L 0.01,26.604 c -0.079,0.503 0.309,0.956 0.817,0.956 H 6.775 L 8.269,18.085 8.223,18.383 C 8.329,17.712 8.901,17.219 9.58,17.219 h 2.827 c 5.552,0 9.899,-2.256 11.17,-8.779 0.037,-0.193 0.069,-0.379 0.098,-0.564" /><path
       style="fill:#003087"
       inkscape:connector-curvature="0"
       id="path22"
       d="M 9.875,7.908 C 9.938,7.505 10.197,7.175 10.545,7.008 10.703,6.932 10.88,6.89 11.066,6.89 h 7.553 c 0.895,0 1.729,0.059 2.492,0.182 0.218,0.035 0.43,0.075 0.636,0.121 0.206,0.045 0.406,0.096 0.6,0.153 0.097,0.028 0.192,0.058 0.286,0.089 0.375,0.125 0.724,0.271 1.044,0.441 C 24.055,5.464 23.675,3.823 22.37,2.337 20.932,0.701 18.338,0 15.019,0 H 5.384 C 4.706,0 4.128,0.494 4.022,1.164 L 0.01,26.604 c -0.079,0.503 0.309,0.956 0.817,0.956 h 5.948 l 1.494,-9.475 z" /></g></svg>