<?xml version="1.0" encoding="UTF-8" standalone="no"?>
<!-- Created with Inkscape (http://www.inkscape.org/) -->

<svg
   xmlns:dc="http://purl.org/dc/elements/1.1/"
   xmlns:cc="http://creativecommons.org/ns#"
   xmlns:rdf="http://www.w3.org/1999/02/22-rdf-syntax-ns#"
   xmlns:svg="http://www.w3.org/2000/svg"
   xmlns="http://www.w3.org/2000/svg"
   xmlns:sodipodi="http://sodipodi.sourceforge.net/DTD/sodipodi-0.dtd"
   xmlns:inkscape="http://www.inkscape.org/namespaces/inkscape"
   width="951.32935"
   height="302.10748"
   viewBox="0 0 251.70589 79.932607"
   version="1.1"
   id="svg8"
   sodipodi:docname="twitter.svg"
   inkscape:version="0.92.1 r15371"
   inkscape:export-filename=""
   inkscape:export-xdpi="48.000004"
   inkscape:export-ydpi="48.000004">
  <defs
     id="defs2" />
  <sodipodi:namedview
     id="base"
     pagecolor="#ffffff"
     bordercolor="#666666"
     borderopacity="1.0"
     inkscape:pageopacity="0"
     inkscape:pageshadow="2"
     inkscape:zoom="1"
     inkscape:cx="371.50831"
     inkscape:cy="112.7341"
     inkscape:document-units="mm"
     inkscape:current-layer="layer2"
     showgrid="false"
     units="px"
     width="256px"
     showguides="false"
     inkscape:window-width="1920"
     inkscape:window-height="1143"
     inkscape:window-x="1680"
     inkscape:window-y="0"
     inkscape:window-maximized="1"
     inkscape:pagecheckerboard="false"
     inkscape:measure-start="283.373,243.952"
     inkscape:measure-end="290.267,236.527"
     fit-margin-top="50"
     fit-margin-left="50"
     fit-margin-right="50"
     fit-margin-bottom="50">
    <sodipodi:guide
       position="7.6751437,-11.572426"
       orientation="0,512"
       id="guide3699"
       inkscape:locked="false" />
    <sodipodi:guide
       position="143.14182,-11.572426"
       orientation="-512,0"
       id="guide3701"
       inkscape:locked="false" />
    <sodipodi:guide
       position="143.14182,123.89425"
       orientation="0,-512"
       id="guide3703"
       inkscape:locked="false" />
    <sodipodi:guide
       position="7.6751437,123.89425"
       orientation="512,0"
       id="guide3705"
       inkscape:locked="false" />
  </sodipodi:namedview>
  <metadata
     id="metadata5">
    <rdf:RDF>
      <cc:Work
         rdf:about="">
        <dc:format>image/svg+xml</dc:format>
        <dc:type
           rdf:resource="http://purl.org/dc/dcmitype/StillImage" />
        <dc:title />
      </cc:Work>
    </rdf:RDF>
  </metadata>
  <g
     inkscape:label="Layer 1"
     inkscape:groupmode="layer"
     id="layer1"
     transform="translate(7.6751436,-205.49497)"
     style="display:inline" />
  <g
     inkscape:groupmode="layer"
     id="layer2"
     inkscape:label="Layer 2"
     style="display:inline"
     transform="translate(7.6751436,-43.961633)">
    <rect
       style="display:inline;opacity:1;fill:#ffffff;fill-opacity:1;stroke:none;stroke-width:0.1;stroke-miterlimit:4;stroke-dasharray:none;stroke-opacity:1"
       id="rect4515"
       width="251.82135"
       height="81.19648"
       x="-7.9087348"
       y="42.814743"
       ry="12.170834" />
    <text
       xml:space="preserve"
       style="font-style:normal;font-weight:normal;font-size:10.58333302px;line-height:6.61458302px;font-family:Sans;letter-spacing:0px;word-spacing:0px;fill:#000000;fill-opacity:1;stroke:none;stroke-width:0.26458332px;stroke-linecap:butt;stroke-linejoin:miter;stroke-opacity:1"
       x="90.222893"
       y="99.380386"
       id="text4499"><tspan
         sodipodi:role="line"
         id="tspan4497"
         x="90.222893"
         y="99.380386"
         style="font-style:normal;font-variant:normal;font-weight:bold;font-stretch:normal;font-size:40.56944656px;font-family:Ubuntu;-inkscape-font-specification:'Ubuntu Bold';stroke-width:0.26458332px">Twitter</tspan></text>
    <path
       inkscape:connector-curvature="0"
       class="cls-2"
       d="m 33.279499,110.99973 c 24.960792,0 38.613292,-20.679832 38.613292,-38.613291 0,-0.587375 0,-1.172104 -0.03969,-1.754187 a 27.611917,27.611917 0 0 0 6.770688,-7.024688 27.088042,27.088042 0 0 1 -7.794625,2.135188 13.618104,13.618104 0 0 0 5.966354,-7.50623 27.196521,27.196521 0 0 1 -8.617477,3.294063 13.583708,13.583708 0 0 0 -23.127229,12.377208 38.528625,38.528625 0 0 1 -27.969105,-14.179021 13.581062,13.581062 0 0 0 4.201583,18.116021 13.469937,13.469937 0 0 1 -6.1595,-1.698625 c 0,0.05556 0,0.113771 0,0.171979 a 13.575771,13.575771 0 0 0 10.887604,13.303251 13.549312,13.549312 0 0 1 -6.12775,0.232833 13.586354,13.586354 0 0 0 12.678834,9.424459 27.230917,27.230917 0 0 1 -16.853959,5.82083 27.625146,27.625146 0 0 1 -3.230562,-0.19579 38.420146,38.420146 0 0 0 20.801542,6.08542"
       id="path10"
       style="fill:#1da1f2;fill-opacity:1;stroke-width:0.26458332" />
  </g>
  <g
     inkscape:groupmode="layer"
     id="layer3"
     inkscape:label="Layer 3"
     style="display:inline"
     transform="translate(7.6751436,-43.961633)" />
</svg>
