<?xml version="1.0" encoding="UTF-8" standalone="no"?>
<!-- Created with Inkscape (http://www.inkscape.org/) -->

<svg
   xmlns:dc="http://purl.org/dc/elements/1.1/"
   xmlns:cc="http://creativecommons.org/ns#"
   xmlns:rdf="http://www.w3.org/1999/02/22-rdf-syntax-ns#"
   xmlns:svg="http://www.w3.org/2000/svg"
   xmlns="http://www.w3.org/2000/svg"
   xmlns:sodipodi="http://sodipodi.sourceforge.net/DTD/sodipodi-0.dtd"
   xmlns:inkscape="http://www.inkscape.org/namespaces/inkscape"
   width="120"
   height="120"
   viewBox="0 0 211.66665 211.66666"
   version="1.1"
   id="svg251"
   inkscape:version="0.92.1 r15371"
   sodipodi:docname="debamax-with-title-120px-white.svg"
   inkscape:export-filename="/home/kibi/work/communication/swirls/debamax-with-title-120px-white.png"
   inkscape:export-xdpi="96"
   inkscape:export-ydpi="96">
  <sodipodi:namedview
     id="base"
     pagecolor="#ffffff"
     bordercolor="#666666"
     borderopacity="1.0"
     inkscape:pageopacity="1"
     inkscape:pageshadow="2"
     inkscape:zoom="0.7"
     inkscape:cx="-29.541952"
     inkscape:cy="208.52045"
     inkscape:document-units="mm"
     inkscape:current-layer="svg251"
     showgrid="false"
     inkscape:window-width="1920"
     inkscape:window-height="1027"
     inkscape:window-x="0"
     inkscape:window-y="31"
     inkscape:window-maximized="1"
     fit-margin-top="10"
     fit-margin-left="10"
     fit-margin-right="10"
     fit-margin-bottom="10"
     units="px"
     scale-x="0.8"
     inkscape:pagecheckerboard="false" />
  <defs
     id="defs245" />
  <metadata
     id="metadata248">
    <rdf:RDF>
      <cc:Work
         rdf:about="">
        <dc:format>image/svg+xml</dc:format>
        <dc:type
           rdf:resource="http://purl.org/dc/dcmitype/StillImage" />
        <dc:title></dc:title>
      </cc:Work>
    </rdf:RDF>
  </metadata>
  <g
     id="layer1"
     inkscape:groupmode="layer"
     inkscape:label="Layer 1"
     transform="translate(-80.429546,15.306321)" />
  <g
     id="g4784"
     transform="matrix(1.1429,0,0,1.1429,32.169279,7.6509502)">
    <g
       transform="translate(-67.838036,-48.222484)"
       id="g975">
      <path
         d="m 161.34137,115.90868 a 18.451168,18.451168 0 0 1 -9.22559,15.97918 18.451168,18.451168 0 0 1 -18.45117,0 18.451168,18.451168 0 0 1 -9.22558,-15.97918"
         style="fill:none;stroke:#000000;stroke-width:4.61279202"
         sodipodi:cx="142.8902"
         sodipodi:cy="115.90868"
         sodipodi:end="3.1415927"
         sodipodi:open="true"
         sodipodi:rx="18.451168"
         sodipodi:ry="18.451168"
         sodipodi:start="0"
         sodipodi:type="arc"
         id="path321" />
      <path
         d="m 161.15592,97.642959 a 25.831635,25.831635 0 0 1 6.68572,24.951441 25.831635,25.831635 0 0 1 -18.26572,18.26573 25.831635,25.831635 0 0 1 -24.95145,-6.68572"
         style="fill:none;stroke:#1e010b;stroke-width:4.61279202"
         sodipodi:cx="142.8902"
         sodipodi:cy="115.90868"
         sodipodi:end="2.3561945"
         sodipodi:open="true"
         sodipodi:rx="25.831635"
         sodipodi:ry="25.831635"
         sodipodi:start="5.4977871"
         sodipodi:type="arc"
         id="path323" />
      <path
         d="m 142.8902,82.696583 a 33.212101,33.212101 0 0 1 33.2121,33.212097 33.212101,33.212101 0 0 1 -33.2121,33.2121"
         style="fill:none;stroke:#3d0217;stroke-width:4.61279202"
         sodipodi:cx="142.8902"
         sodipodi:cy="115.90868"
         sodipodi:end="1.5707963"
         sodipodi:open="true"
         sodipodi:rx="33.212101"
         sodipodi:ry="33.212101"
         sodipodi:start="4.712389"
         sodipodi:type="arc"
         id="path325" />
      <path
         d="m 114.18691,87.205402 a 40.592571,40.592571 0 0 1 39.20942,-10.506131 40.592571,40.592571 0 0 1 28.70328,28.703279 40.592571,40.592571 0 0 1 -10.50613,39.20942"
         style="fill:none;stroke:#5c0423;stroke-width:4.61279202"
         sodipodi:cx="142.8902"
         sodipodi:cy="115.90868"
         sodipodi:end="0.78539816"
         sodipodi:open="true"
         sodipodi:rx="40.592571"
         sodipodi:ry="40.592571"
         sodipodi:start="3.9269908"
         sodipodi:type="arc"
         id="path327" />
      <path
         d="M 94.917164,115.90868 A 47.973034,47.973034 0 0 1 142.8902,67.93565 47.973034,47.973034 0 0 1 190.86323,115.90868"
         style="fill:none;stroke:#7a052f;stroke-width:4.61279202"
         sodipodi:cx="142.8902"
         sodipodi:cy="115.90868"
         sodipodi:end="6.2831853"
         sodipodi:open="true"
         sodipodi:rx="47.973034"
         sodipodi:ry="47.973034"
         sodipodi:start="3.1415927"
         sodipodi:type="arc"
         id="path329" />
      <path
         d="m 103.74936,155.04952 a 55.353504,55.353504 0 0 1 0,-78.281674 55.353504,55.353504 0 0 1 78.28167,-2e-6"
         style="fill:none;stroke:#99073b;stroke-width:4.61279202"
         sodipodi:cx="142.8902"
         sodipodi:cy="115.90868"
         sodipodi:end="5.4977871"
         sodipodi:open="true"
         sodipodi:rx="55.353504"
         sodipodi:ry="55.353504"
         sodipodi:start="2.3561945"
         sodipodi:type="arc"
         id="path331" />
      <path
         d="m 142.8902,178.64265 a 62.733971,62.733971 0 0 1 -54.329214,-31.36698 62.733971,62.733971 0 0 1 0,-62.733972 62.733971,62.733971 0 0 1 54.329214,-31.366985"
         style="fill:none;stroke:#b80847;stroke-width:4.61279202"
         sodipodi:cx="142.8902"
         sodipodi:cy="115.90868"
         sodipodi:end="4.712389"
         sodipodi:open="true"
         sodipodi:rx="62.733971"
         sodipodi:ry="62.733971"
         sodipodi:start="1.5707963"
         sodipodi:type="arc"
         id="path333" />
      <path
         d="m 192.46859,165.48708 a 70.114441,70.114441 0 0 1 -99.156788,0 70.114441,70.114441 0 0 1 -2e-6,-99.156792"
         style="fill:none;stroke:#d70a53;stroke-width:4.61279202"
         sodipodi:cx="142.8902"
         sodipodi:cy="115.90868"
         sodipodi:end="3.9269908"
         sodipodi:open="true"
         sodipodi:rx="70.114441"
         sodipodi:ry="70.114441"
         sodipodi:start="0.78539816"
         sodipodi:type="arc"
         id="path335" />
    </g>
    <g
       transform="translate(-67.838036,-64.097488)"
       id="g965">
      <path
         inkscape:connector-curvature="0"
         id="path2992"
         style="font-style:normal;font-variant:normal;font-weight:normal;font-stretch:normal;font-size:72px;line-height:125%;font-family:'Days One';-inkscape-font-specification:'Days One';text-align:start;letter-spacing:0px;word-spacing:0px;writing-mode:lr-tb;text-anchor:start;fill:#d70a53;fill-opacity:1;stroke:none;stroke-width:0.43207225"
         d="m 77.049545,233.26427 c -1.721562,0 -3.16305,-0.62765 -4.324481,-1.88295 -1.153193,-1.2553 -1.729793,-3.05287 -1.729789,-5.39268 -4e-6,-2.34836 0.597185,-4.14592 1.791571,-5.39269 1.202612,-1.2553 2.81708,-1.88295 4.843413,-1.88296 1.046103,1e-5 2.236367,0.21777 3.570783,0.65327 v -3.93244 c -9e-6,-0.23055 0.07001,-0.41841 0.210052,-0.5636 0.148257,-0.15369 0.329468,-0.23055 0.543646,-0.23057 h 2.755308 c 0.222387,2e-5 0.403607,0.0769 0.54365,0.23057 0.148253,0.14519 0.222388,0.33305 0.222405,0.5636 v 16.79291 c -1.7e-5,0.22202 -0.07415,0.40989 -0.222405,0.5636 -0.140043,0.14517 -0.321263,0.21776 -0.54365,0.21776 h -2.372284 c -0.22241,0 -0.403629,-0.0726 -0.543651,-0.21776 -0.140043,-0.15371 -0.210052,-0.34158 -0.210043,-0.5636 v -0.39709 c -1.301471,0.95642 -2.812981,1.43463 -4.534525,1.43463 m 1.47032,-11.45145 c -1.136726,1e-5 -1.93984,0.33305 -2.409351,0.99912 -0.46952,0.65755 -0.704278,1.71645 -0.704274,3.1767 -4e-6,1.46025 0.222401,2.52341 0.667211,3.18949 0.444792,0.66608 1.111998,0.99912 2.001617,0.99912 0.897829,0 1.939823,-0.38428 3.125974,-1.15283 v -6.69923 c -1.062595,-0.34157 -1.956319,-0.51236 -2.681177,-0.51237" />
      <path
         inkscape:connector-curvature="0"
         id="path2994"
         style="font-style:normal;font-variant:normal;font-weight:normal;font-stretch:normal;font-size:72px;line-height:125%;font-family:'Days One';-inkscape-font-specification:'Days One';text-align:start;letter-spacing:0px;word-spacing:0px;writing-mode:lr-tb;text-anchor:start;fill:#d70a53;fill-opacity:1;stroke:none;stroke-width:0.43207225"
         d="m 89.65231,231.39413 c -1.268512,-1.24676 -1.902768,-3.04005 -1.902768,-5.37988 0,-2.34835 0.638369,-4.15018 1.915125,-5.4055 1.276744,-1.26383 3.047721,-1.89575 5.312929,-1.89576 2.265191,1e-5 4.032051,0.61485 5.300574,1.84453 1.2685,1.22115 1.90276,2.97602 1.90277,5.26459 v 0.73012 c -1e-5,0.23058 -0.0742,0.42272 -0.2224,0.57642 -0.14004,0.14518 -0.32126,0.21776 -0.54365,0.21776 h -9.303804 c 0.08237,1.05036 0.370667,1.81464 0.864897,2.29285 0.502457,0.47822 1.301453,0.71732 2.396994,0.71732 1.095523,0 1.8451,-0.25619 2.248729,-0.76856 0.403607,-0.51236 0.90195,-0.77282 1.495034,-0.78136 h 1.84099 c 0.22239,0 0.4036,0.0769 0.54366,0.23056 0.14824,0.14518 0.22238,0.33305 0.22239,0.56361 -1e-5,2.45084 -2.252857,3.67198 -6.758541,3.66344 -2.273443,0 -4.044417,-0.62338 -5.312929,-1.87014 m 2.434066,-6.75047 h 5.745377 c -0.08238,-2.01531 -1.037885,-3.02296 -2.866514,-3.02298 -1.820402,2e-5 -2.780022,1.00767 -2.878863,3.02298" />
      <path
         inkscape:connector-curvature="0"
         id="path2996"
         style="font-style:normal;font-variant:normal;font-weight:normal;font-stretch:normal;font-size:72px;line-height:125%;font-family:'Days One';-inkscape-font-specification:'Days One';text-align:start;letter-spacing:0px;word-spacing:0px;writing-mode:lr-tb;text-anchor:start;fill:#d70a53;fill-opacity:1;stroke:none;stroke-width:0.43207225"
         d="m 104.47909,215.43382 c 0,-0.23055 0.07,-0.41841 0.21005,-0.5636 0.14827,-0.15369 0.32948,-0.23055 0.54365,-0.23057 h 2.76766 c 0.21416,2e-5 0.39126,0.0769 0.5313,0.23057 0.14826,0.14519 0.2224,0.33305 0.2224,0.5636 v 3.93244 c 1.3344,-0.4355 2.52466,-0.65326 3.57078,-0.65327 2.02632,1e-5 3.63667,0.62766 4.83106,1.88296 1.19437,1.24677 1.79156,3.0486 1.79157,5.40549 -10e-6,4.84189 -2.61529,7.26283 -7.84584,7.26283 -1.19438,0 -2.43407,-0.13663 -3.71905,-0.40989 -1.27675,-0.28181 -2.24461,-0.62339 -2.90358,-1.02474 v -16.39582 m 4.27506,6.89137 v 7.55745 c 0.70838,0.19641 1.61034,0.29461 2.70589,0.29461 1.09553,0 1.88216,-0.32877 2.35993,-0.98631 0.48598,-0.65754 0.72897,-1.7207 0.72898,-3.1895 -1e-5,-1.46878 -0.23889,-2.53195 -0.71662,-3.1895 -0.46953,-0.66607 -1.26853,-0.99911 -2.39701,-0.99912 -0.72487,1e-5 -1.61859,0.1708 -2.68117,0.51237" />
      <path
         inkscape:connector-curvature="0"
         id="path2998"
         style="font-style:normal;font-variant:normal;font-weight:normal;font-stretch:normal;font-size:72px;line-height:125%;font-family:'Days One';-inkscape-font-specification:'Days One';text-align:start;letter-spacing:0px;word-spacing:0px;writing-mode:lr-tb;text-anchor:start;fill:#111111;fill-opacity:1;stroke:none;stroke-width:0.43207225"
         d="m 122.09826,232.08582 c -1.0873,-0.78563 -1.63095,-1.89576 -1.63095,-3.33039 0,-1.43463 0.54365,-2.53622 1.63095,-3.30478 1.09552,-0.76856 2.50407,-1.15283 4.22562,-1.15284 h 4.08973 c -2e-5,-0.99911 -0.20182,-1.69507 -0.60543,-2.08791 -0.40363,-0.3928 -1.11201,-0.5892 -2.12517,-0.58922 -1.00493,2e-5 -1.71333,0.26047 -2.12517,0.78137 -0.40363,0.51238 -0.90197,0.76856 -1.49504,0.76855 h -1.84099 c -0.2224,1e-5 -0.40774,-0.0726 -0.556,-0.21776 -0.14004,-0.1537 -0.21005,-0.34156 -0.21005,-0.5636 0,-2.45082 2.24461,-3.67624 6.73383,-3.67625 1.96042,1e-5 3.5337,0.45687 4.71986,1.37059 1.18613,0.90519 1.7792,2.30994 1.77921,4.21423 v 7.92892 c -1e-5,0.23056 -0.07,0.41843 -0.21004,0.5636 -0.14005,0.14517 -0.32126,0.21776 -0.54365,0.21776 h -2.38464 c -0.22241,0 -0.40363,-0.0726 -0.54365,-0.21776 -0.14004,-0.15371 -0.21006,-0.34158 -0.21004,-0.5636 v -0.39709 c -1.30148,0.96496 -2.80475,1.44317 -4.50981,1.43463 -1.69686,0 -3.09305,-0.39281 -4.18857,-1.17845 m 4.52216,-4.88031 c -0.5766,1e-5 -1.03376,0.14517 -1.37148,0.43551 -0.32948,0.29035 -0.49423,0.66608 -0.49422,1.12721 -1e-5,0.46114 0.17297,0.84115 0.51893,1.14002 0.34596,0.29889 0.83606,0.44833 1.47033,0.44833 1.2685,0 2.49171,-0.38428 3.66963,-1.15283 v -1.99824 h -3.79319" />
      <path
         inkscape:connector-curvature="0"
         id="path3000"
         style="font-style:normal;font-variant:normal;font-weight:normal;font-stretch:normal;font-size:72px;line-height:125%;font-family:'Days One';-inkscape-font-specification:'Days One';text-align:start;letter-spacing:0px;word-spacing:0px;writing-mode:lr-tb;text-anchor:start;fill:#111111;fill-opacity:1;stroke:none;stroke-width:0.43207225"
         d="m 137.74051,232.22673 v -12.46339 c 0,-0.23055 0.07,-0.41842 0.21005,-0.5636 0.14826,-0.1537 0.32948,-0.23055 0.54365,-0.23057 h 2.76766 c 0.2224,2e-5 0.40361,0.0769 0.54365,0.23057 0.14003,0.14518 0.21004,0.33305 0.21004,0.5636 v 0.80698 c 0.59307,-0.59775 1.17379,-1.05461 1.74215,-1.37058 0.57659,-0.32449 1.26851,-0.48674 2.07575,-0.48675 1.91924,1e-5 3.37308,0.8198 4.36155,2.45937 1.53209,-1.6481 3.10125,-2.4679 4.7075,-2.45937 1.61445,1e-5 2.88709,0.50384 3.8179,1.51149 0.93901,0.99913 1.40852,2.54905 1.40854,4.64975 v 7.3525 c -2e-5,0.23056 -0.07,0.41843 -0.21004,0.5636 -0.14006,0.14517 -0.32127,0.21776 -0.54365,0.21776 h -2.75531 c -0.22243,0 -0.40776,-0.0726 -0.55601,-0.21776 -0.14005,-0.15371 -0.21006,-0.34158 -0.21004,-0.5636 v -7.3525 c -2e-5,-2.04947 -0.71665,-3.06994 -2.14989,-3.06141 -0.87315,1e-5 -1.77511,0.65328 -2.70588,1.95982 0.0494,0.3672 0.0741,0.7344 0.0741,1.10159 v 7.3525 c -2e-5,0.23056 -0.0742,0.41843 -0.2224,0.5636 -0.14005,0.14517 -0.31715,0.21776 -0.53129,0.21776 h -2.75532 c -0.22241,0 -0.40774,-0.0726 -0.556,-0.21776 -0.14004,-0.15371 -0.21006,-0.34158 -0.21005,-0.5636 v -7.3525 c -1e-5,-2.04947 -0.71663,-3.06994 -2.14988,-3.06141 -0.91432,1e-5 -1.79157,0.61058 -2.63176,1.83172 v 8.58219 c 0,0.23056 -0.0741,0.41843 -0.2224,0.5636 -0.14003,0.14517 -0.31713,0.21776 -0.53129,0.21776 h -2.76766 c -0.22241,0 -0.40362,-0.0726 -0.54365,-0.21776 -0.14004,-0.14517 -0.21005,-0.33304 -0.21005,-0.5636" />
      <path
         inkscape:connector-curvature="0"
         id="path3002"
         style="font-style:normal;font-variant:normal;font-weight:normal;font-stretch:normal;font-size:72px;line-height:125%;font-family:'Days One';-inkscape-font-specification:'Days One';text-align:start;letter-spacing:0px;word-spacing:0px;writing-mode:lr-tb;text-anchor:start;fill:#111111;fill-opacity:1;stroke:none;stroke-width:0.43207225"
         d="m 164.05805,232.08582 c -1.0873,-0.78563 -1.63095,-1.89576 -1.63094,-3.33039 -1e-5,-1.43463 0.54364,-2.53622 1.63094,-3.30478 1.09553,-0.76856 2.50407,-1.15283 4.22564,-1.15284 h 4.08971 c 0,-0.99911 -0.20181,-1.69507 -0.60542,-2.08791 -0.40363,-0.3928 -1.11202,-0.5892 -2.12517,-0.58922 -1.00494,2e-5 -1.71332,0.26047 -2.12518,0.78137 -0.40362,0.51238 -0.90196,0.76856 -1.49503,0.76855 h -1.841 c -0.2224,1e-5 -0.40773,-0.0726 -0.556,-0.21776 -0.14003,-0.1537 -0.21005,-0.34156 -0.21004,-0.5636 -1e-5,-2.45082 2.2446,-3.67624 6.73383,-3.67625 1.96042,1e-5 3.5337,0.45687 4.71986,1.37059 1.18613,0.90519 1.7792,2.30994 1.77921,4.21423 v 7.92892 c -1e-5,0.23056 -0.07,0.41843 -0.21005,0.5636 -0.14004,0.14517 -0.32126,0.21776 -0.54364,0.21776 h -2.38464 c -0.22242,0 -0.40364,-0.0726 -0.54365,-0.21776 -0.14004,-0.15371 -0.21006,-0.34158 -0.21005,-0.5636 v -0.39709 c -1.30147,0.96496 -2.80474,1.44317 -4.50981,1.43463 -1.69685,0 -3.09304,-0.39281 -4.18857,-1.17845 m 4.52217,-4.88031 c -0.5766,1e-5 -1.03376,0.14517 -1.37147,0.43551 -0.3295,0.29035 -0.49424,0.66608 -0.49423,1.12721 -1e-5,0.46114 0.17297,0.84115 0.51894,1.14002 0.34595,0.29889 0.83606,0.44833 1.47032,0.44833 1.2685,0 2.49171,-0.38428 3.66962,-1.15283 v -1.99824 h -3.79318" />
      <path
         inkscape:connector-curvature="0"
         id="path3004"
         style="font-style:normal;font-variant:normal;font-weight:normal;font-stretch:normal;font-size:72px;line-height:125%;font-family:'Days One';-inkscape-font-specification:'Days One';text-align:start;letter-spacing:0px;word-spacing:0px;writing-mode:lr-tb;text-anchor:start;fill:#111111;fill-opacity:1;stroke:none;stroke-width:0.43207225"
         d="m 178.61301,232.61101 c -0.0329,-0.0854 -0.0494,-0.18787 -0.0494,-0.30743 0,-0.12809 0.0659,-0.26899 0.19769,-0.42271 l 4.29976,-5.90505 -4.01558,-5.87944 c -0.26359,-0.35864 -0.28006,-0.6746 -0.0494,-0.94788 0.0988,-0.11954 0.23887,-0.17931 0.42009,-0.17933 h 2.68117 c 0.799,2e-5 1.44149,0.37575 1.92749,1.12721 l 2.05103,3.22793 2.05104,-3.22793 c 0.48598,-0.75146 1.12848,-1.12719 1.92748,-1.12721 h 2.68118 c 0.1812,2e-5 0.32123,0.0598 0.42009,0.17933 0.23063,0.27328 0.21415,0.58924 -0.0494,0.94788 l -4.01559,5.87944 4.29977,5.90505 c 0.13178,0.15372 0.19768,0.29889 0.19769,0.43552 -1e-5,0.12809 -0.0165,0.2263 -0.0494,0.29462 -0.0659,0.26471 -0.24301,0.39708 -0.53129,0.39708 h -2.63176 c -0.75782,0 -1.40031,-0.37574 -1.92748,-1.12722 l -2.37229,-3.33039 -2.38464,3.33039 c -0.51894,0.75148 -1.15731,1.12722 -1.91513,1.12722 h -2.63175 c -0.2883,0 -0.46539,-0.13237 -0.53129,-0.39708" />
    </g>
  </g>
</svg>
