<?xml version="1.0" encoding="UTF-8" standalone="no"?>
<svg
   xmlns:dc="http://purl.org/dc/elements/1.1/"
   xmlns:cc="http://creativecommons.org/ns#"
   xmlns:rdf="http://www.w3.org/1999/02/22-rdf-syntax-ns#"
   xmlns:svg="http://www.w3.org/2000/svg"
   xmlns="http://www.w3.org/2000/svg"
   xmlns:sodipodi="http://sodipodi.sourceforge.net/DTD/sodipodi-0.dtd"
   xmlns:inkscape="http://www.inkscape.org/namespaces/inkscape"
   id="logoBig"
   viewBox="0 0 54 32"
   version="1.1"
   inkscape:version="0.91 r13725"
   sodipodi:docname="logo-big.svg"
   inkscape:export-filename="/home/lkaufmann/TMP-SiteWeb-Illustrations/logo-big.png"
   inkscape:export-xdpi="1333"
   inkscape:export-ydpi="1333">
  <metadata
     id="metadata11">
    <rdf:RDF>
      <cc:Work
         rdf:about="">
        <dc:format>image/svg+xml</dc:format>
        <dc:type
           rdf:resource="http://purl.org/dc/dcmitype/StillImage" />
        <dc:title></dc:title>
      </cc:Work>
    </rdf:RDF>
  </metadata>
  <defs
     id="defs9" />
  <sodipodi:namedview
     pagecolor="#ebebeb"
     bordercolor="#666666"
     borderopacity="1"
     objecttolerance="10"
     gridtolerance="10"
     guidetolerance="10"
     inkscape:pageopacity="0"
     inkscape:pageshadow="2"
     inkscape:window-width="1680"
     inkscape:window-height="1006"
     id="namedview7"
     showgrid="false"
     inkscape:zoom="9.2222404"
     inkscape:cx="20.236459"
     inkscape:cy="15.504857"
     inkscape:window-x="0"
     inkscape:window-y="20"
     inkscape:window-maximized="1"
     inkscape:current-layer="logoBig" />
  <path
     fill="#000"
     style="fill: var(--color1, #000)"
     d="M25.105 10.588c-0.021 0.639-0.168 1.239-0.416 1.783l0.012-0.029c-0.246 0.536-0.587 0.99-1.004 1.358l-0.004 0.004c-0.435 0.378-0.949 0.679-1.512 0.873l-0.032 0.010c-0.577 0.2-1.241 0.316-1.933 0.316-0.029 0-0.058-0-0.087-0.001l0.004 0c-0.028 0.001-0.061 0.001-0.094 0.001-0.743 0-1.45-0.152-2.093-0.426l0.035 0.013c-0.636-0.277-1.172-0.678-1.598-1.176l-0.005-0.006c-0.441-0.527-0.784-1.153-0.99-1.838l-0.010-0.037c-0.218-0.71-0.343-1.527-0.343-2.373 0-0.039 0-0.079 0.001-0.118l-0 0.006v-0.664c-0-0.032-0.001-0.070-0.001-0.108 0-0.848 0.132-1.666 0.376-2.434l-0.016 0.057c0.228-0.724 0.578-1.35 1.031-1.888l-0.007 0.008c0.432-0.503 0.966-0.906 1.572-1.178l0.028-0.011c0.592-0.263 1.283-0.417 2.010-0.417 0.025 0 0.050 0 0.075 0.001l-0.004-0c0.031-0.001 0.068-0.001 0.104-0.001 0.707 0 1.385 0.122 2.015 0.346l-0.042-0.013c0.594 0.213 1.104 0.526 1.535 0.923l-0.003-0.003c0.41 0.386 0.742 0.85 0.972 1.369l0.011 0.027c0.229 0.514 0.385 1.111 0.437 1.738l0.001 0.020h-2.892c-0.006-0.326-0.056-0.638-0.143-0.933l0.006 0.025c-0.074-0.256-0.204-0.477-0.376-0.657l0.001 0.001c-0.178-0.176-0.397-0.312-0.641-0.392l-0.012-0.003c-0.269-0.086-0.579-0.135-0.9-0.135-0.026 0-0.053 0-0.079 0.001l0.004-0c-0.015-0-0.032-0.001-0.049-0.001-0.322 0-0.626 0.075-0.896 0.208l0.012-0.005c-0.278 0.149-0.503 0.367-0.657 0.631l-0.004 0.008c-0.187 0.326-0.325 0.707-0.39 1.112l-0.003 0.019c-0.082 0.465-0.129 1-0.129 1.545 0 0.044 0 0.087 0.001 0.13l-0-0.007v0.681c-0 0.037-0.001 0.080-0.001 0.123 0 0.544 0.042 1.078 0.124 1.599l-0.007-0.058c0.061 0.423 0.19 0.804 0.376 1.15l-0.009-0.018c0.152 0.277 0.379 0.498 0.653 0.639l0.009 0.004c0.274 0.128 0.596 0.203 0.935 0.203 0.024 0 0.048-0 0.072-0.001l-0.003 0c0.045 0.003 0.098 0.005 0.151 0.005 0.523 0 1.004-0.183 1.382-0.488l-0.004 0.003q0.529-0.479 0.562-1.522h2.883zM25.997 10.1c-0-0.015-0-0.034-0-0.052 0-0.639 0.103-1.255 0.293-1.831l-0.012 0.041c0.185-0.568 0.467-1.059 0.83-1.477l-0.004 0.005c0.366-0.413 0.817-0.742 1.326-0.962l0.024-0.009c0.55-0.221 1.187-0.349 1.854-0.349s1.305 0.128 1.889 0.361l-0.034-0.012c0.534 0.229 0.985 0.558 1.347 0.967l0.003 0.004c0.359 0.413 0.641 0.904 0.818 1.442l0.008 0.030c0.178 0.534 0.281 1.15 0.281 1.789 0 0.018-0 0.037-0 0.055l0-0.003v0.177c0 0.018 0 0.038 0 0.059 0 0.638-0.101 1.253-0.289 1.829l0.012-0.042c-0.182 0.565-0.463 1.053-0.826 1.468l0.004-0.005c-0.367 0.411-0.818 0.739-1.326 0.958l-0.025 0.009c-0.55 0.221-1.187 0.349-1.854 0.349s-1.305-0.128-1.889-0.361l0.034 0.012c-0.534-0.229-0.985-0.557-1.351-0.964l-0.003-0.004c-0.362-0.41-0.646-0.897-0.822-1.434l-0.008-0.029c-0.178-0.534-0.281-1.148-0.281-1.787 0-0.021 0-0.042 0-0.062l-0 0.003v-0.177zM28.781 10.277c-0 0.009-0 0.019-0 0.030 0 0.328 0.026 0.649 0.075 0.963l-0.005-0.035c0.042 0.289 0.129 0.549 0.254 0.787l-0.006-0.013c0.114 0.213 0.275 0.387 0.47 0.514l0.005 0.003c0.198 0.119 0.438 0.19 0.693 0.19 0.018 0 0.035-0 0.053-0.001l-0.003 0c0.014 0.001 0.031 0.001 0.048 0.001 0.252 0 0.488-0.071 0.689-0.193l-0.006 0.003c0.198-0.13 0.356-0.304 0.463-0.509l0.004-0.007c0.116-0.224 0.202-0.485 0.244-0.76l0.002-0.014c0.047-0.279 0.075-0.601 0.075-0.93 0-0.010-0-0.021-0-0.031v0.002-0.177c0-0.006 0-0.012 0-0.019 0-0.326-0.026-0.645-0.075-0.957l0.004 0.034c-0.042-0.291-0.129-0.553-0.255-0.792l0.006 0.014c-0.115-0.216-0.275-0.394-0.47-0.526l-0.005-0.003c-0.197-0.125-0.438-0.199-0.695-0.199-0.017 0-0.034 0-0.051 0.001l0.002-0c-0.014-0.001-0.030-0.001-0.047-0.001-0.254 0-0.491 0.074-0.69 0.201l0.005-0.003c-0.197 0.135-0.355 0.314-0.463 0.522l-0.004 0.008c-0.116 0.225-0.203 0.487-0.246 0.763l-0.002 0.015c-0.047 0.277-0.075 0.596-0.075 0.921 0 0.007 0 0.015 0 0.022v-0.001 0.177zM35.497 10.117c-0-0.022-0-0.047-0-0.073 0-0.646 0.081-1.273 0.235-1.871l-0.011 0.052c0.139-0.56 0.367-1.051 0.67-1.486l-0.009 0.014c0.282-0.398 0.646-0.718 1.070-0.942l0.017-0.008c0.419-0.213 0.913-0.337 1.437-0.337 0.025 0 0.050 0 0.075 0.001l-0.004-0c0.013-0 0.029-0 0.045-0 0.396 0 0.769 0.093 1.101 0.259l-0.014-0.006c0.347 0.182 0.641 0.419 0.88 0.703l0.004 0.004v-4.61h2.792v12.917h-2.503l-0.14-0.975c-0.251 0.339-0.562 0.619-0.919 0.829l-0.014 0.008c-0.344 0.194-0.756 0.308-1.195 0.308-0.019 0-0.037-0-0.055-0.001l0.003 0c-0.020 0-0.043 0.001-0.067 0.001-0.522 0-1.014-0.129-1.445-0.358l0.017 0.008c-0.437-0.24-0.799-0.564-1.075-0.953l-0.007-0.010c-0.293-0.417-0.52-0.904-0.654-1.428l-0.007-0.031c-0.142-0.534-0.223-1.146-0.223-1.778 0-0.021 0-0.042 0-0.063l-0 0.003v-0.177zM38.281 10.293c-0 0.010-0 0.021-0 0.033 0 0.325 0.024 0.644 0.070 0.957l-0.004-0.035c0.040 0.287 0.12 0.546 0.235 0.785l-0.007-0.016c0.1 0.209 0.246 0.382 0.427 0.51l0.004 0.003c0.176 0.116 0.392 0.185 0.624 0.185 0.014 0 0.029-0 0.043-0.001l-0.002 0c0.014 0 0.029 0.001 0.045 0.001 0.278 0 0.539-0.077 0.761-0.21l-0.007 0.004c0.224-0.143 0.402-0.342 0.516-0.576l0.004-0.008v-3.462c-0.208-0.48-0.678-0.81-1.225-0.81-0.028 0-0.056 0.001-0.084 0.003l0.004-0c-0.011-0-0.024-0.001-0.037-0.001-0.231 0-0.445 0.069-0.624 0.188l0.004-0.003c-0.185 0.132-0.333 0.306-0.43 0.509l-0.003 0.008c-0.111 0.227-0.195 0.49-0.237 0.767l-0.002 0.015c-0.047 0.283-0.074 0.609-0.074 0.941 0 0.013 0 0.027 0 0.040v-0.002 0.177zM49.689 14.902c-0.026 0-0.056 0.001-0.086 0.001-0.671 0-1.311-0.13-1.898-0.366l0.034 0.012c-0.565-0.228-1.046-0.553-1.446-0.958l-0.001-0.001c-0.38-0.391-0.684-0.858-0.887-1.376l-0.010-0.028c-0.196-0.496-0.31-1.070-0.31-1.671 0-0.010 0-0.020 0-0.029v0.002-0.32c-0-0.014-0-0.031-0-0.047 0-0.644 0.098-1.266 0.28-1.851l-0.012 0.044c0.176-0.575 0.453-1.074 0.814-1.498l-0.005 0.006c0.365-0.42 0.814-0.756 1.323-0.983l0.024-0.010c0.525-0.229 1.137-0.363 1.78-0.363 0.035 0 0.069 0 0.104 0.001l-0.005-0c0.021-0 0.046-0.001 0.071-0.001 0.589 0 1.15 0.114 1.664 0.322l-0.030-0.011c0.505 0.207 0.933 0.51 1.278 0.889l0.003 0.003c0.349 0.393 0.622 0.861 0.792 1.377l0.008 0.028c0.176 0.529 0.277 1.139 0.277 1.772 0 0.027-0 0.055-0.001 0.082l0-0.004v1.152h-5.533c0.078 0.481 0.313 0.896 0.651 1.201l0.002 0.002c0.329 0.273 0.756 0.439 1.221 0.439 0.030 0 0.059-0.001 0.088-0.002l-0.004 0c0.404-0.001 0.788-0.081 1.139-0.226l-0.020 0.007c0.383-0.158 0.702-0.406 0.942-0.718l0.004-0.005 1.272 1.531c-0.162 0.222-0.343 0.415-0.545 0.585l-0.005 0.004c-0.227 0.191-0.483 0.36-0.758 0.496l-0.022 0.010c-0.63 0.316-1.374 0.502-2.16 0.502-0.013 0-0.026-0-0.038-0h0.002zM49.375 7.653c-0.011-0-0.024-0-0.036-0-0.209 0-0.407 0.047-0.584 0.13l0.008-0.004c-0.17 0.083-0.312 0.2-0.423 0.341l-0.002 0.003c-0.113 0.149-0.205 0.322-0.265 0.509l-0.003 0.012c-0.063 0.186-0.115 0.408-0.146 0.636l-0.002 0.020h2.809v-0.218c0.004-0.038 0.006-0.083 0.006-0.128 0-0.355-0.13-0.68-0.346-0.929l0.002 0.002c-0.24-0.233-0.568-0.377-0.93-0.377-0.031 0-0.061 0.001-0.091 0.003l0.004-0zM18.462 28.468h5.292v2.382h-8.335v-12.844h3.043v10.462zM30.369 29.818c-0.556 0.738-1.431 1.21-2.417 1.21-0.031 0-0.062-0-0.092-0.001l0.005 0c-0.013 0-0.029 0-0.044 0-0.438 0-0.86-0.073-1.253-0.207l0.027 0.008c-0.389-0.133-0.72-0.348-0.987-0.625l-0.001-0.001c-0.284-0.305-0.503-0.674-0.635-1.082l-0.006-0.021c-0.147-0.451-0.231-0.97-0.231-1.509 0-0.039 0-0.077 0.001-0.115l-0 0.006v-6.175h2.92v6.193c-0.003 0.032-0.005 0.070-0.005 0.108 0 0.316 0.115 0.606 0.305 0.829l-0.001-0.002c0.208 0.188 0.484 0.302 0.788 0.302 0.029 0 0.058-0.001 0.087-0.003l-0.004 0c0.023 0.001 0.049 0.002 0.076 0.002 0.297 0 0.576-0.072 0.823-0.2l-0.010 0.005c0.227-0.129 0.411-0.312 0.538-0.531l0.004-0.007v-6.695h2.938v9.545h-2.738zM38.192 18.932v2.373h1.542v2.064h-1.542v4.367c-0 0.012-0 0.026-0 0.041 0 0.151 0.018 0.299 0.051 0.44l-0.003-0.013c0.026 0.115 0.081 0.215 0.156 0.296l-0-0c0.078 0.075 0.176 0.129 0.286 0.153l0.004 0.001c0.125 0.028 0.268 0.044 0.415 0.044 0.013 0 0.025-0 0.038-0l-0.002 0q0.251 0 0.416-0.013t0.312-0.040v2.125c-0.216 0.073-0.479 0.139-0.748 0.185l-0.032 0.005c-0.251 0.042-0.541 0.066-0.836 0.066-0.011 0-0.021-0-0.032-0h0.002c-0.019 0-0.041 0-0.064 0-0.423 0-0.832-0.060-1.219-0.171l0.031 0.008c-0.361-0.103-0.672-0.281-0.929-0.518l0.002 0.001c-0.255-0.246-0.452-0.551-0.568-0.893l-0.005-0.016c-0.124-0.371-0.196-0.798-0.196-1.241 0-0.032 0-0.063 0.001-0.095l-0 0.005v-4.738h-1.196v-2.064h1.196v-2.371h2.92zM43.963 30.85h-2.929v-6.481h2.929v6.481zM48.443 21.306l0.095 1.12c0.302-0.407 0.69-0.734 1.139-0.957l0.018-0.008c0.431-0.209 0.937-0.331 1.471-0.331 0.017 0 0.035 0 0.052 0l-0.003-0c0.012-0 0.027-0 0.041-0 0.412 0 0.807 0.070 1.176 0.197l-0.025-0.008c0.371 0.132 0.684 0.347 0.93 0.624l0.002 0.002c0.273 0.32 0.48 0.704 0.597 1.126l0.005 0.021c0.136 0.484 0.214 1.040 0.214 1.614 0 0.048-0.001 0.096-0.002 0.144l0-0.007v6.008h-2.929v-6.016c0.001-0.018 0.001-0.039 0.001-0.061 0-0.23-0.034-0.452-0.097-0.661l0.004 0.016c-0.052-0.17-0.142-0.315-0.26-0.432l-0-0c-0.113-0.104-0.254-0.18-0.41-0.214l-0.006-0.001c-0.159-0.036-0.343-0.057-0.531-0.057-0.010 0-0.020 0-0.030 0h0.002c-0.017-0.001-0.037-0.001-0.057-0.001-0.264 0-0.512 0.069-0.726 0.19l0.007-0.004c-0.206 0.126-0.374 0.295-0.495 0.497l-0.004 0.007v6.738h-2.92v-9.545h2.738zM42.535 23.407c0.851-0.010 1.537-0.702 1.537-1.554 0-0.117-0.013-0.232-0.038-0.342l0.002 0.010c-0.275-1.318-0.565-1.973-0.682-2.878-0.041-0.318-0.289-1.559 0.067-1.782 0.57-0.356 0.44 0.577 0.477 0.631 0.202 0.299 0.478-0.428 0.369-0.792-0.14-0.462-0.636-0.499-1.040-0.369-0.738 0.236-1.123 1.306-1.36 1.956-0.393 0.961-0.702 2.082-0.875 3.248l-0.010 0.081c-0.012 0.071-0.018 0.153-0.018 0.237 0 0.852 0.685 1.543 1.535 1.553h0.037z"
     id="path3" />
  <path
     fill="#f60"
     style="fill: var(--color2, #f60)"
     d="M8.606 27.986c-0.322 0.207-0.692 0.385-1.085 0.513l-0.034 0.010c-0.269 0.091-0.459 0.341-0.459 0.635 0 0.015 0 0.029 0.001 0.043l-0-0.002c0.052 0.6 0.265 1.143 0.596 1.593l-0.006-0.009c0.761 1.082 1.961 1.533 2.679 1.009s0.685-1.826-0.076-2.907c-0.248-0.355-0.554-0.651-0.907-0.88l-0.013-0.008c-0.098-0.063-0.218-0.1-0.347-0.1-0.13 0-0.251 0.038-0.353 0.103l0.003-0.002zM3.66 28.077c-0.096-0.058-0.212-0.092-0.335-0.092-0.147 0-0.282 0.048-0.392 0.129l0.002-0.001c-0.284 0.215-0.526 0.466-0.725 0.749l-0.007 0.011c-0.761 1.081-0.794 2.382-0.076 2.907s1.919 0.073 2.68-1.008c0.299-0.41 0.505-0.906 0.577-1.445l0.002-0.016c0.003-0.023 0.004-0.049 0.004-0.075 0-0.312-0.212-0.575-0.5-0.652l-0.005-0.001c-0.464-0.122-0.871-0.295-1.246-0.517l0.022 0.012zM6.092 15.344c1.828-0.021 3.303-1.508 3.303-3.34 0-0.252-0.028-0.498-0.081-0.734l0.004 0.022c-0.591-2.831-1.214-4.24-1.466-6.185-0.089-0.682-0.621-3.351 0.145-3.83 1.225-0.766 0.945 1.239 1.024 1.356 0.434 0.643 1.028-0.919 0.792-1.702-0.299-0.991-1.366-1.072-2.234-0.794-1.584 0.508-2.414 2.807-2.923 4.204-0.844 2.065-1.508 4.475-1.88 6.98l-0.021 0.174c-0.025 0.153-0.039 0.329-0.039 0.509 0 1.83 1.473 3.316 3.299 3.337l0.002 0h0.078zM6.058 27.467c-1.982 0-3.752-1.323-4.508-3.368-0.147-0.389-0.355-0.723-0.615-1.009l0.002 0.002c-0.566-0.591-0.92-1.389-0.936-2.27l-0-0.003c0-1.156 0.646-2.234 1.818-3.037 1.205-0.757 2.67-1.206 4.24-1.206s3.035 0.449 4.274 1.225l-0.034-0.020c1.172 0.802 1.818 1.881 1.818 3.037-0.017 0.884-0.371 1.683-0.938 2.276l0.001-0.001c-0.258 0.283-0.466 0.617-0.606 0.985l-0.007 0.021c-0.757 2.046-2.526 3.368-4.508 3.368z"
     id="path5" />
</svg>
