<?xml version="1.0" encoding="UTF-8"?>
<!-- Generator: Adobe Illustrator 16.0.0, SVG Export Plug-In . SVG Version: 6.00 Build 0)  -->
<!DOCTYPE svg PUBLIC "-//W3C//DTD SVG 1.1//EN" "http://www.w3.org/Graphics/SVG/1.1/DTD/svg11.dtd">
<svg version="1.1" id="Layer_1" xmlns="http://www.w3.org/2000/svg" xmlns:xlink="http://www.w3.org/1999/xlink" x="0px" y="0px" width="322.115px" height="320.192px" viewBox="0 0 322.115 320.192" enable-background="new 0 0 322.115 320.192" xml:space="preserve">
<path fill-rule="evenodd" clip-rule="evenodd" fill="#985E6D" d="M317.287,308.25c-4.144-17.401-10.657-34.599-12.034-52.204  c-1.383-17.19-13.998-28.632-17.197-44.439c-2.492-12.328-7.802-23.865-14.259-34.809c-3.072-5.208-5.687-6.457-10.868-2.136  c-8.069,6.795-17.439,10.084-28.039,6.394c-8.063-2.779-8.522-5.743-2.25-11.69c6.826-6.505,15.221-9.058,24.406-9.784  c10.619-0.848,17.382,3.91,20.671,13.914c2.613-0.401,3.321-2.243,3.372-4.516c-6.081-22.943-12.762-45.766-24.527-66.501  c-15.139-26.646-48.156-38.655-83.603-31.494c-0.925,0.169-1.734,0.411-2.601,0.605c0.994-1.523,0.866-3.569-0.701-5.94  c-0.383-4.94-1.766-7.796-4.379-8.513c27.618-6.91,58.08-2.448,87.987,13.873c2.881-23.402,12.034-42.496,31.724-55.314  c0.268-1.498-0.854-1.899-1.874-2.154c-47.334-12.362-94.858-16.171-142.32-0.908c-47.124,15.192-77.719,47.764-96.032,92.893  c-7.872,19.361-13.022,39.274-13.341,60.216c-0.14,9.393,2.078,18.393,6.355,26.736c9.586,18.663,6.604,35.994-4.277,53.128  c-7.355,11.575-17.79,20.926-23.673,33.527c-4.946,10.619-6.756,21.736-5.354,33.554c4.768-17.287,19.084-26.21,31.507-36.791  c14.042-11.958,28.875-23.24,36.128-41.171c5.099-12.678,5.482-25.146,1.351-38.454c-6.54-20.958-6.132-41.158,5.788-61.23  c11.358-19.167,22.921-37.817,39.538-52.758c7.19-6.476,14.967-11.515,23.03-15.775c-0.727,0.542-1.479,0.943-2.155,1.6  c2.104,7.856,2.945,13.389,7.7,12.997c-16.024,9.858-31.138,20.751-41.853,36.708c-15.074,22.603-17.618,45.861-4.71,70.484  c7.432,14.094,8.547,28.843,1.23,43.86c48.258-0.777,91.544,14.94,133.728,36.059c26.185,13.086,49.909,29.862,74.558,45.274  c2.168,1.371,4.328,4.953,7.095,2.69C319.709,314.318,317.918,310.876,317.287,308.25z"/>
</svg>