<?xml version="1.0" encoding="UTF-8" standalone="no"?>
<!-- Generator: Adobe Illustrator 15.0.2, SVG Export Plug-In . SVG Version: 6.00 Build 0)  -->

<svg
   xmlns:dc="http://purl.org/dc/elements/1.1/"
   xmlns:cc="http://creativecommons.org/ns#"
   xmlns:rdf="http://www.w3.org/1999/02/22-rdf-syntax-ns#"
   xmlns:svg="http://www.w3.org/2000/svg"
   xmlns="http://www.w3.org/2000/svg"
   xmlns:sodipodi="http://sodipodi.sourceforge.net/DTD/sodipodi-0.dtd"
   xmlns:inkscape="http://www.inkscape.org/namespaces/inkscape"
   version="1.1"
   id="Calque_1"
   x="0px"
   y="0px"
   width="600"
   height="600"
   viewBox="0 0 600 600"
   enable-background="new 0 0 278 95"
   xml:space="preserve"
   inkscape:version="0.48.5 r10040"
   sodipodi:docname="octologo_v7.svg"
   inkscape:export-filename="/home/benjamin/octopuce/octologo_v7_linkedin.png"
   inkscape:export-xdpi="90.110001"
   inkscape:export-ydpi="90.110001"><metadata
     id="metadata133"><rdf:RDF><cc:Work
         rdf:about=""><dc:format>image/svg+xml</dc:format><dc:type
           rdf:resource="http://purl.org/dc/dcmitype/StillImage" /><dc:title /></cc:Work></rdf:RDF></metadata><defs
     id="defs131" /><sodipodi:namedview
     pagecolor="#ffffff"
     bordercolor="#666666"
     borderopacity="1"
     objecttolerance="10"
     gridtolerance="10"
     guidetolerance="10"
     inkscape:pageopacity="0"
     inkscape:pageshadow="2"
     inkscape:window-width="1920"
     inkscape:window-height="1025"
     id="namedview129"
     showgrid="false"
     inkscape:zoom="0.79856114"
     inkscape:cx="1081.9264"
     inkscape:cy="286.32847"
     inkscape:window-x="-3"
     inkscape:window-y="-3"
     inkscape:window-maximized="1"
     inkscape:current-layer="g71" /><g
     id="g3"
     transform="matrix(4.7751906,0,0,4.7751906,6.9869211,-29.763039)"><rect
       x="86.598999"
       y="13.652"
       width="4.4159999"
       height="4.4790001"
       id="rect5"
       style="fill:#3278b5" /><polygon
       points="66.727,71.885 62.311,71.885 62.311,76.363 66.727,76.363 66.727,76.408 71.143,76.408 71.143,71.93 66.727,71.93 "
       id="polygon7"
       style="fill:#3278b5" /><rect
       x="26.542"
       y="58.653999"
       width="4.4159999"
       height="4.48"
       id="rect9"
       style="fill:#3278b5" /><polygon
       points="30.958,58.445 31.399,58.445 31.399,58.492 35.815,58.492 35.815,54.012 35.374,54.012 35.374,53.967 30.958,53.967 "
       id="polygon11"
       style="fill:#3278b5" /><polygon
       points="35.58,45.008 35.58,49.486 35.374,49.486 35.374,45.053 30.958,45.053 30.958,49.533 35.374,49.533 35.374,53.967 39.79,53.967 39.79,49.486 39.996,49.486 39.996,45.008 "
       id="polygon13"
       style="fill:#3278b5" /><polygon
       points="44.647,36.049 44.647,31.57 40.231,31.57 40.231,31.615 35.815,31.615 35.815,36.096 40.231,36.096 40.231,36.049 "
       id="polygon15"
       style="fill:#3278b5" /><rect
       x="35.814999"
       y="27.09"
       width="4.4159999"
       height="4.48"
       id="rect17"
       style="fill:#3278b5" /><rect
       x="35.931999"
       y="22.193001"
       width="4.4159999"
       height="4.4790001"
       id="rect19"
       style="fill:#3278b5" /><polygon
       points="35.374,45.008 35.374,40.529 30.958,40.529 30.958,40.574 26.542,40.574 26.542,45.053 30.958,45.053 30.958,45.008 "
       id="polygon21"
       style="fill:#3278b5" /><polygon
       points="30.958,40.529 30.958,36.049 26.542,36.049 26.542,36.096 22.125,36.096 22.125,40.574 26.542,40.574 26.542,40.529 "
       id="polygon23"
       style="fill:#3278b5" /><rect
       x="17.709"
       y="31.57"
       width="4.4159999"
       height="4.4790001"
       id="rect25"
       style="fill:#3278b5" /><polygon
       points="84.391,40.574 88.807,40.574 88.807,45.008 93.223,45.008 93.223,45.053 97.639,45.053 97.639,40.574 93.223,40.574 93.223,40.529 88.807,40.529 88.807,36.096 84.391,36.096 84.391,36.049 79.975,36.049 79.975,40.529 84.391,40.529 "
       id="polygon27"
       style="fill:#3278b5" /><path
       d="m 75.559,36.096 v -0.047 -4.434 -4.479 h -4.416 v -4.434 h -4.416 v -0.047 h -4.416 v 0.047 h -4.416 v 4.387 h -4.416 v 4.48 4.479 4.48 h -4.416 v -4.48 h -4.416 v 0.047 h -4.416 v 4.479 h 4.416 v 4.434 h -4.416 v 4.479 h 4.416 4.416 v 0.094 h -4.416 v 4.432 0.047 4.434 4.434 0.045 h -4.416 v 4.434 h -4.416 v 4.48 h 4.416 4.416 v -4.434 -0.047 h 4.416 v -4.434 -0.045 h 4.416 v -4.48 -4.479 h 4.416 v 4.479 h 4.416 v 0.047 4.434 h 4.416 v 0.045 4.434 4.48 h 4.416 v 0.045 h 4.416 v -4.479 -4.48 h -4.416 v -0.045 -4.434 h -4.416 v -0.047 -4.434 h -4.416 v -0.045 h 4.416 4.416 v 0.045 h 4.416 v 4.434 h 4.416 4.416 v 0.047 4.434 h 4.416 v 0.045 h 4.416 v -4.479 h -4.416 v -0.047 -4.434 h -4.416 v -0.045 -4.062 h 4.416 V 49.58 h 4.416 V 45.1 h -4.416 v 0.326 h -4.416 v -0.418 h -0.22 v -4.254 h -4.196 v -0.225 h -4.416 v -4.433 z m -4.416,-0.047 h -4.416 v -4.434 h 4.416 v 4.434 z M 57.895,31.615 h 4.416 v 4.434 h -4.416 v -4.434 z m 26.496,17.918 h -4.416 -4.416 -4.416 v -0.047 h 4.416 4.416 4.416 v 0.047 z"
       id="path29"
       inkscape:connector-curvature="0"
       style="fill:#3278b5" /><rect
       x="20.212999"
       y="61.716999"
       width="4.4159999"
       height="4.4790001"
       id="rect31"
       style="fill:#3278b5" /><rect
       x="93.223"
       y="11.504"
       width="4.4159999"
       height="4.48"
       id="rect33"
       style="fill:#3278b5" /><rect
       x="91.014999"
       y="20.462999"
       width="4.4159999"
       height="4.48"
       id="rect35"
       style="fill:#3278b5" /><polygon
       points="93.223,27.137 88.807,27.137 88.807,27.09 88.807,22.611 84.391,22.611 84.391,27.09 84.391,31.57 84.391,36.049 88.807,36.049 88.807,36.096 93.223,36.096 93.223,40.529 97.639,40.529 97.639,40.574 102.055,40.574 102.055,36.096 97.639,36.096 97.639,36.049 93.223,36.049 93.223,31.615 "
       id="polygon37"
       style="fill:#3278b5" /><rect
       x="62.311001"
       y="76.407997"
       width="4.4159999"
       height="4.48"
       id="rect39"
       style="fill:#3278b5" /><rect
       x="31.164"
       y="58.701"
       width="4.4159999"
       height="4.4790001"
       id="rect41"
       style="fill:#3278b5" /><rect
       x="39.995998"
       y="49.533001"
       width="4.4159999"
       height="4.4790001"
       id="rect43"
       style="fill:#3278b5" /><rect
       x="30.987"
       y="26.719"
       width="4.4159999"
       height="4.4790001"
       id="rect45"
       style="fill:#3278b5" /><rect
       x="84.390999"
       y="71.976997"
       width="4.4159999"
       height="4.4790001"
       id="rect47"
       style="fill:#3278b5" /><polygon
       points="88.807,67.451 84.391,67.451 84.391,71.93 88.807,71.93 88.807,71.977 93.223,71.977 93.223,67.869 93.223,67.496 97.639,67.496 97.639,63.018 93.223,63.018 93.223,63.389 88.807,63.389 "
       id="polygon49"
       style="fill:#3278b5" /></g><g
     id="g51"
     style="fill:#3278b5;fill-opacity:1"
     transform="matrix(2.9727732,0,0,2.9727732,-265.20754,322.3377)"><g
       id="g53"
       style="fill:#3278b5;fill-opacity:1"><path
         d="m 124.072,53.828 c -2.204,0 -4.409,-0.686 -5.879,-2.009 V 31.633 c 1.421,-1.323 3.625,-2.009 5.879,-2.009 2.205,0 4.41,0.686 5.88,2.009 v 20.186 c -1.421,1.275 -3.626,2.009 -5.88,2.009 z m 4.116,-21.362 c -1.029,-0.882 -2.695,-1.274 -4.116,-1.274 -1.371,0 -3.037,0.392 -4.115,1.274 v 18.471 c 1.029,0.932 2.694,1.322 4.115,1.322 1.372,0 3.087,-0.391 4.116,-1.322 V 32.466 z"
         id="path55"
         style="fill:#3278b5;fill-opacity:1"
         inkscape:connector-curvature="0" /><path
         d="m 142.741,53.828 c -1.96,0 -4.066,-0.539 -5.635,-1.861 v -20.48 c 1.568,-1.323 3.626,-1.862 5.635,-1.862 1.96,0 4.066,0.539 5.635,1.862 v 6.173 h -1.764 v -5.292 c -1.078,-0.882 -2.598,-1.176 -3.871,-1.176 -1.273,0 -2.744,0.245 -3.871,1.176 v 18.716 c 1.078,0.883 2.548,1.176 3.871,1.176 1.273,0 2.793,-0.244 3.871,-1.176 v -5.34 h 1.764 v 6.223 c -1.569,1.322 -3.626,1.861 -5.635,1.861 z"
         id="path57"
         style="fill:#3278b5;fill-opacity:1"
         inkscape:connector-curvature="0" /><path
         d="m 160.969,53.682 c -1.812,0 -3.479,-0.784 -4.508,-2.156 V 31.584 h -1.812 v -1.617 h 1.812 v -7.839 h 1.764 v 7.839 h 3.625 v 1.617 h -3.625 V 50.84 c 0.686,0.783 1.715,1.225 2.842,1.225 h 0.98 v 1.617 h -1.078 z"
         id="path59"
         style="fill:#3278b5;fill-opacity:1"
         inkscape:connector-curvature="0" /><path
         d="m 174.395,53.828 c -2.205,0 -4.41,-0.686 -5.881,-2.009 V 31.633 c 1.422,-1.323 3.627,-2.009 5.881,-2.009 2.205,0 4.408,0.686 5.879,2.009 v 20.186 c -1.42,1.275 -3.626,2.009 -5.879,2.009 z m 4.115,-21.362 c -1.029,-0.882 -2.695,-1.274 -4.115,-1.274 -1.373,0 -3.039,0.392 -4.117,1.274 v 18.471 c 1.029,0.932 2.695,1.322 4.117,1.322 1.371,0 3.086,-0.391 4.115,-1.322 V 32.466 z"
         id="path61"
         style="fill:#3278b5;fill-opacity:1"
         inkscape:connector-curvature="0" /><path
         d="m 193.699,53.828 c -1.666,0 -3.135,-0.441 -4.311,-1.078 v 9.31 h -1.764 V 31.633 c 1.42,-1.323 3.625,-2.009 5.879,-2.009 2.205,0 4.41,0.686 5.879,2.009 v 20.186 c -1.468,1.372 -3.575,2.009 -5.683,2.009 z m 3.92,-21.313 c -1.029,-0.931 -2.693,-1.323 -4.115,-1.323 -1.371,0 -3.037,0.392 -4.115,1.323 v 18.52 c 1.127,0.784 2.449,1.225 4.115,1.225 1.371,0 3.086,-0.391 4.115,-1.322 V 32.515 z"
         id="path63"
         style="fill:#3278b5;fill-opacity:1"
         inkscape:connector-curvature="0" /><path
         d="m 212.516,53.828 c -2.008,0 -4.213,-0.539 -5.781,-1.861 v -22 h 1.764 v 21.068 c 1.078,0.932 2.695,1.225 4.018,1.225 1.275,0 2.891,-0.293 3.969,-1.225 V 29.967 h 1.764 v 22 c -1.568,1.322 -3.773,1.861 -5.734,1.861 z"
         id="path65"
         style="fill:#3278b5;fill-opacity:1"
         inkscape:connector-curvature="0" /><path
         d="m 231.234,53.828 c -1.961,0 -4.066,-0.539 -5.635,-1.861 v -20.48 c 1.568,-1.323 3.625,-1.862 5.635,-1.862 1.959,0 4.066,0.539 5.635,1.862 v 6.173 h -1.764 v -5.292 c -1.078,-0.882 -2.598,-1.176 -3.871,-1.176 -1.273,0 -2.744,0.245 -3.871,1.176 v 18.716 c 1.078,0.883 2.547,1.176 3.871,1.176 1.273,0 2.793,-0.244 3.871,-1.176 v -5.34 h 1.764 v 6.223 c -1.568,1.322 -3.627,1.861 -5.635,1.861 z"
         id="path67"
         style="fill:#3278b5;fill-opacity:1"
         inkscape:connector-curvature="0" /><path
         d="m 249.412,53.828 c -1.959,0 -4.018,-0.539 -5.586,-1.861 V 31.535 c 1.52,-1.323 3.529,-1.911 5.586,-1.911 2.01,0 4.066,0.588 5.586,1.911 v 10.583 h -9.457 v 8.966 c 1.127,0.883 2.598,1.176 3.871,1.176 1.273,0 2.744,-0.244 3.822,-1.176 v -5.193 h 1.764 v 6.076 c -1.568,1.322 -3.576,1.861 -5.586,1.861 z m 3.822,-21.411 c -1.029,-0.882 -2.449,-1.225 -3.822,-1.225 -1.322,0 -2.744,0.294 -3.871,1.225 v 8.231 h 7.693 v -8.231 z"
         id="path69"
         style="fill:#3278b5;fill-opacity:1"
         inkscape:connector-curvature="0" /></g></g><g
     id="g71"
     transform="matrix(2.942953,0,0,2.2031716,-267.24808,370.19783)"><text
       xml:space="preserve"
       style="font-size:52.29393768px;font-style:normal;font-weight:normal;line-height:125%;letter-spacing:0px;word-spacing:0px;fill:#3278b5;fill-opacity:1;stroke:none;font-family:Sans"
       x="148.20789"
       y="62.483704"
       id="text3110"
       sodipodi:linespacing="125%"
       transform="scale(0.80324685,1.2449473)"><tspan
         sodipodi:role="line"
         id="tspan3112"
         x="148.20789"
         y="62.483704"
         style="font-size:9.15143871px;fill:#3278b5;fill-opacity:1">serveurs et infogérance haute-fidélité</tspan></text>
</g></svg>