<?xml version="1.0" encoding="UTF-8" standalone="no"?>
<!-- Generator: Adobe Illustrator 17.1.0, SVG Export Plug-In . SVG Version: 6.00 Build 0)  -->

<svg
   xmlns:dc="http://purl.org/dc/elements/1.1/"
   xmlns:cc="http://creativecommons.org/ns#"
   xmlns:rdf="http://www.w3.org/1999/02/22-rdf-syntax-ns#"
   xmlns:svg="http://www.w3.org/2000/svg"
   xmlns="http://www.w3.org/2000/svg"
   xmlns:sodipodi="http://sodipodi.sourceforge.net/DTD/sodipodi-0.dtd"
   xmlns:inkscape="http://www.inkscape.org/namespaces/inkscape"
   version="1.1"
   id="Layer_1"
   x="0px"
   y="0px"
   viewBox="0 170 1160 405.79999"
   enable-background="new 0 170 960 205.8"
   xml:space="preserve"
   sodipodi:docname="donorbox.svg"
   inkscape:version="0.92.1 r15371"
   width="1160"
   height="405.79999"><metadata
     id="metadata40"><rdf:RDF><cc:Work
         rdf:about=""><dc:format>image/svg+xml</dc:format><dc:type
           rdf:resource="http://purl.org/dc/dcmitype/StillImage" /><dc:title></dc:title></cc:Work></rdf:RDF></metadata><defs
     id="defs38" /><sodipodi:namedview
     pagecolor="#137ec8"
     bordercolor="#666666"
     borderopacity="1"
     objecttolerance="10"
     gridtolerance="10"
     guidetolerance="10"
     inkscape:pageopacity="0"
     inkscape:pageshadow="2"
     inkscape:window-width="1920"
     inkscape:window-height="1143"
     id="namedview36"
     showgrid="false"
     inkscape:zoom="0.74375"
     inkscape:cx="456.19532"
     inkscape:cy="17.475857"
     inkscape:window-x="1680"
     inkscape:window-y="0"
     inkscape:window-maximized="1"
     inkscape:current-layer="Layer_1"
     inkscape:pagecheckerboard="true"
     fit-margin-top="100"
     fit-margin-left="100"
     fit-margin-right="100"
     fit-margin-bottom="100" /><rect
     style="opacity:1;fill:#137ec8;fill-opacity:1;stroke:none;stroke-width:0.52198786;stroke-miterlimit:4;stroke-dasharray:none;stroke-opacity:1"
     id="rect4517"
     width="1162.0714"
     height="408.14102"
     x="-1.7920038"
     y="170.3009"
     ry="41.244133" /><g
     id="g33"
     transform="translate(100,100)"><g
       id="g4"><path
         d="M 199.8,375.8 H 9.8 C 4.4,375.8 0,371.4 0,366 V 179.8 C 0,174.4 4.4,170 9.8,170 h 95 c 5.4,0 9.8,4.4 9.8,9.8 v 28.7 c 0,5.4 -4.4,9.8 -9.8,9.8 -5.4,0 -9.8,-4.4 -9.8,-9.8 V 189.8 H 19.8 V 356 h 170 V 189.8 h -24.2 c -5.4,0 -9.8,-4.4 -9.8,-9.8 0,-5.4 4.4,-9.8 9.8,-9.8 h 34.2 c 5.4,0 9.8,4.4 9.8,9.8 v 186 c 0,5.4 -4.4,9.8 -9.8,9.8 z"
         id="path2"
         inkscape:connector-curvature="0"
         style="fill:#ffffff" /></g><g
       id="svg1_copy_3_4_"
       sodipodi:docname="heart_jon_phillips_01.svg"
       sodipodi:docbase="C:\Documents and Settings\Jon Phillips\My Documents\projects\clipart-project\submissions"
       inkscape:version="0.46"
       inkscape:output_extension="org.inkscape.output.svg.inkscape"
       sodipodi:version="0.32"><defs
         id="defs7"><inkscape:perspective
           sodipodi:type="inkscape:persp3d"
           inkscape:vp_y="0 : 4.8590865 : 0"
           inkscape:vp_x="0 : 2.5567594 : 1"
           inkscape:vp_z="0.7750984 : 2.5567594 : 1"
           id="perspective9"
           inkscape:persp3d-origin="0.3875492 : 1.7045062 : 1" /></defs><sodipodi:namedview
         inkscape:zoom="0.35"
         showguides="true"
         pagecolor="#ffffff"
         bordercolor="#666666"
         inkscape:cx="549.40674"
         inkscape:cy="596.00159"
         borderopacity="1.0"
         showgrid="false"
         id="base"
         inkscape:pageopacity="0.0"
         inkscape:window-height="667"
         inkscape:window-width="866"
         inkscape:pageshadow="2"
         inkscape:window-y="116"
         inkscape:document-units="px"
         inkscape:guide-bbox="true"
         inkscape:window-x="88"
         inkscape:current-layer="layer1" /><g
         id="layer1_5_"
         transform="translate(-134.06575,-225.79588)"
         inkscape:label="Layer 1"
         inkscape:groupmode="layer"><g
           id="path7_5_"><path
             sodipodi:nodetypes="ccccccc"
             d="m 220.2,464.4 c -11.3,0 -20.5,9.2 -20.5,20.5 0,23.1 23.3,29.1 39.1,51.9 15.2,-22.6 39.2,-29.7 39.2,-51.9 0,-11.3 -9.2,-20.5 -20.5,-20.5 -8.2,0 -15.2,4.9 -18.5,11.8 -3.4,-7.1 -10.4,-11.8 -18.8,-11.8 z"
             id="path10"
             inkscape:connector-curvature="0"
             style="fill:#f65a5b" /><path
             d="m 238.9,537.9 c -0.3,0 -0.8,-0.2 -1,-0.5 -6.1,-8.7 -13.3,-14.9 -19.5,-20.5 -10.6,-9.3 -19.8,-17.4 -19.8,-32.1 0,-12 9.8,-21.8 21.8,-21.8 7.5,0 14.6,4.1 18.5,10.5 3.9,-6.4 11,-10.5 18.5,-10.5 12,0 21.8,9.8 21.8,21.8 0,14.1 -9.2,22.1 -19.6,31.4 -6.5,5.7 -13.9,12.3 -19.6,21 -0.3,0.6 -0.8,0.7 -1.1,0.7 z m -18.7,-72.4 c -10.6,0 -19.3,8.7 -19.3,19.3 0,13.6 8.4,21 18.8,30.1 6.1,5.4 12.9,11.3 18.8,19.5 5.7,-8.4 12.8,-14.6 19,-20 10.2,-9 18.8,-16.7 18.8,-29.6 0,-10.6 -8.7,-19.3 -19.3,-19.3 -7.4,0 -14.2,4.4 -17.5,11.1 -0.2,0.5 -0.7,0.7 -1.1,0.7 v 0 c -0.5,0 -1,-0.3 -1.1,-0.7 -2.6,-6.6 -9.5,-11.1 -17.1,-11.1 z"
             id="path12"
             inkscape:connector-curvature="0"
             style="fill:#f65a5b" /></g></g></g><path
       d="m 334.6,315.2 c 0,6.1 -4.9,11 -11,11 -6.1,0 -11,-4.9 -11,-11 v -1 c -5.4,7.2 -12.8,12.6 -24.2,12.6 -18.2,0 -35.5,-14.2 -35.5,-40.3 v -0.3 c 0,-26 17,-40.3 35.5,-40.3 11.8,0 19,5.4 24.2,11.6 v -28.2 c 0,-6.1 4.9,-11 11,-11 6.1,0 11,4.9 11,11 z m -59.8,-29 v 0.3 c 0,12.9 8.7,21.4 19,21.4 10.3,0 18.8,-8.5 18.8,-21.4 v -0.3 c 0,-12.9 -8.5,-21.4 -18.8,-21.4 -10.3,0 -19,8.3 -19,21.4 z"
       id="path17"
       inkscape:connector-curvature="0"
       style="fill:#ffffff" /><path
       d="m 350.5,286.9 v -0.3 c 0,-22.4 18,-40.6 42.2,-40.6 24.1,0 41.9,17.8 41.9,40.3 v 0.3 c 0,22.4 -18,40.6 -42.2,40.6 -24.1,0 -41.9,-17.9 -41.9,-40.3 z m 62.5,0 v -0.3 c 0,-11.5 -8.4,-21.4 -20.5,-21.4 -12.6,0 -20.1,9.7 -20.1,21.3 v 0.3 c 0,11.5 8.4,21.4 20.5,21.4 12.6,-0.2 20.1,-9.8 20.1,-21.3 z"
       id="path19"
       inkscape:connector-curvature="0"
       style="fill:#ffffff" /><path
       d="m 450.8,257.8 c 0,-6.1 4.9,-11 11,-11 6.1,0 11,4.9 11,11 v 0.8 c 5.1,-6.5 11.6,-12.4 22.8,-12.4 16.7,0 26.5,11 26.5,29 v 40.3 c 0,6.1 -4.9,11 -11,11 -6.1,0 -11,-4.9 -11,-11 v -33.4 c 0,-10.5 -4.9,-15.9 -13.4,-15.9 -8.4,0 -13.8,5.4 -13.8,15.9 v 33.2 c 0,6.1 -4.9,11 -11,11 -6.1,0 -11,-4.9 -11,-11 z"
       id="path21"
       inkscape:connector-curvature="0"
       style="fill:#ffffff" /><path
       d="m 537.6,286.9 v -0.3 c 0,-22.4 18,-40.6 42.2,-40.6 24.1,0 41.9,17.8 41.9,40.3 v 0.3 c 0,22.4 -18,40.6 -42.2,40.6 -24,0 -41.9,-17.9 -41.9,-40.3 z m 62.4,0 v -0.3 c 0,-11.5 -8.4,-21.4 -20.5,-21.4 -12.6,0 -20.1,9.7 -20.1,21.3 v 0.3 c 0,11.5 8.4,21.4 20.5,21.4 12.6,-0.2 20.1,-9.8 20.1,-21.3 z"
       id="path23"
       inkscape:connector-curvature="0"
       style="fill:#ffffff" /><path
       d="m 637.8,257.8 c 0,-6.1 4.9,-11 11,-11 6.1,0 11,4.9 11,11 v 3.4 c 3.3,-7.5 8.4,-14.6 14.9,-14.6 6.9,0 10.8,4.6 10.8,10.8 0,5.9 -3.8,9.3 -8.4,10.3 -11.1,2.6 -17.5,11.1 -17.5,26.9 v 20.6 c 0,6.1 -4.9,11 -11,11 -6.1,0 -11,-4.9 -11,-11 v -57.5 h 0.2 z"
       id="path25"
       inkscape:connector-curvature="0"
       style="fill:#ffffff" /><path
       d="m 699.9,229.8 c 0,-6.1 4.9,-11 11,-11 6.1,0 11,4.9 11,11 v 29.1 c 5.4,-7.2 12.8,-12.6 24.2,-12.6 18.2,0 35.5,14.2 35.5,40.3 v 0.3 c 0,26 -17,40.3 -35.5,40.3 -11.8,0 -19,-5.4 -24.2,-11.6 v 0.2 c 0,5.9 -4.9,11 -11,11 -6.1,0 -11,-4.9 -11,-11 z m 59.5,57.1 v -0.3 c 0,-12.9 -8.7,-21.4 -19,-21.4 -10.3,0 -18.8,8.5 -18.8,21.4 v 0.3 c 0,12.9 8.5,21.4 18.8,21.4 10.3,0 19,-8.5 19,-21.4 z"
       id="path27"
       inkscape:connector-curvature="0"
       style="fill:#ffffff" /><path
       d="m 794.1,287.1 v -0.3 c 0,-22.4 18,-40.6 42.2,-40.6 24.1,0 41.9,17.8 41.9,40.3 v 0.3 c 0,22.4 -18,40.6 -42.2,40.6 -24.1,-0.1 -41.9,-17.9 -41.9,-40.3 z m 62.4,0 v -0.3 c 0,-11.5 -8.4,-21.4 -20.5,-21.4 -12.6,0 -20.1,9.7 -20.1,21.3 v 0.3 c 0,11.5 8.4,21.4 20.5,21.4 12.5,-0.1 20.1,-9.7 20.1,-21.3 z"
       id="path29"
       inkscape:connector-curvature="0"
       style="fill:#ffffff" /><path
       d="m 891,309.7 20,-23.6 -18.2,-21 c -2.5,-2.9 -3.6,-5.6 -3.6,-8.4 0,-6.2 4.6,-10.2 10.2,-10.2 4.4,0 7.4,2 10.3,5.7 l 14.4,19.2 14.7,-19.2 c 2.6,-3.3 5.7,-5.7 9.7,-5.7 5.9,0 10.3,4.1 10.3,9.7 0,3.1 -1.3,5.4 -3.1,7.5 l -18.8,22.2 19.5,22.4 c 2.5,2.9 3.6,5.6 3.6,8.4 0,6.2 -4.6,10.2 -10.2,10.2 -4.4,0 -7.4,-2 -10.3,-5.7 l -15.7,-20.7 -15.7,20.6 c -2.6,3.3 -5.7,5.7 -9.7,5.7 -5.9,0 -10.3,-4.1 -10.3,-9.7 0,-3 1.1,-5.3 2.9,-7.4 z"
       id="path31"
       inkscape:connector-curvature="0"
       style="fill:#ffffff" /></g></svg>