<?xml version="1.0" encoding="UTF-8" standalone="no"?>
<!-- Created with Inkscape (http://www.inkscape.org/) -->

<svg
   xmlns:dc="http://purl.org/dc/elements/1.1/"
   xmlns:cc="http://creativecommons.org/ns#"
   xmlns:rdf="http://www.w3.org/1999/02/22-rdf-syntax-ns#"
   xmlns:svg="http://www.w3.org/2000/svg"
   xmlns="http://www.w3.org/2000/svg"
   xmlns:sodipodi="http://sodipodi.sourceforge.net/DTD/sodipodi-0.dtd"
   xmlns:inkscape="http://www.inkscape.org/namespaces/inkscape"
   width="293.04395mm"
   height="290.34396mm"
   viewBox="0 0 293.04395 290.34396"
   version="1.1"
   id="svg6371"
   inkscape:export-filename="/home/lambda/Make/Exodus_assoc/logo/sticker_purple.png"
   inkscape:export-xdpi="96"
   inkscape:export-ydpi="96"
   inkscape:version="0.92.1 r15371"
   sodipodi:docname="logo.svg">
  <defs
     id="defs6365">
    <path
       inkscape:export-ydpi="96"
       inkscape:export-xdpi="96"
       inkscape:connector-curvature="0"
       id="path5099"
       d="M -261.07398,197.33632 A 159.33163,159.33163 0 0 1 -90.186284,344.20545 159.33163,159.33163 0 0 1 -237.05542,515.09313 159.33163,159.33163 0 0 1 -407.94311,368.22401 159.33163,159.33163 0 0 1 -261.07398,197.33632 Z"
       style="fill:none;stroke:none;stroke-width:0.23647717" />
  </defs>
  <sodipodi:namedview
     id="base"
     pagecolor="#ffffff"
     bordercolor="#666666"
     borderopacity="1.0"
     inkscape:pageopacity="0.0"
     inkscape:pageshadow="2"
     inkscape:zoom="0.35"
     inkscape:cx="-737.72181"
     inkscape:cy="172.96719"
     inkscape:document-units="mm"
     inkscape:current-layer="g5671"
     showgrid="false"
     inkscape:window-width="1920"
     inkscape:window-height="1143"
     inkscape:window-x="1680"
     inkscape:window-y="0"
     inkscape:window-maximized="1" />
  <metadata
     id="metadata6368">
    <rdf:RDF>
      <cc:Work
         rdf:about="">
        <dc:format>image/svg+xml</dc:format>
        <dc:type
           rdf:resource="http://purl.org/dc/dcmitype/StillImage" />
        <dc:title />
      </cc:Work>
    </rdf:RDF>
  </metadata>
  <g
     inkscape:label="Layer 1"
     inkscape:groupmode="layer"
     id="layer1"
     transform="translate(-37.161781,95.746382)">
    <g
       style="display:inline"
       id="g5197"
       transform="matrix(0.77677428,0,0,0.76961736,108.22267,104.81936)"
       inkscape:export-xdpi="96"
       inkscape:export-ydpi="96">
      <g
         id="g5671">
        <circle
           style="fill:#684971;fill-opacity:1;stroke:none;stroke-width:0.22726357"
           id="path5128"
           cx="97.146736"
           cy="-71.975723"
           r="188.62877"
           inkscape:export-xdpi="96"
           inkscape:export-ydpi="96" />
        <path
           style="font-style:normal;font-weight:normal;font-size:2050.27807617px;font-family:'Times New Roman';fill:#ffffff;fill-opacity:1;stroke:none;stroke-width:0.2500065px;stroke-linecap:butt;stroke-linejoin:miter;stroke-opacity:1"
           d="m 63.98403,-78.85856 c -32.87076,-11.6798 -49.30611,-29.36656 -49.30606,-53.06032 -5e-5,-18.68772 8.7182,-33.62136 26.15474,-44.80094 17.43642,-11.17916 39.086,-16.76884 64.94885,-16.76907 23.52659,2.3e-4 42.2145,3.87964 56.06373,11.63823 13.84889,7.75904 20.77345,17.06128 20.77362,27.90673 -1.7e-4,5.67332 -2.16931,10.63728 -6.50739,14.89194 -4.33844,4.25501 -9.34415,6.38243 -15.01707,6.38225 -9.34412,1.8e-4 -17.01952,-6.50721 -23.0262,-19.52219 -8.34294,-18.02028 -20.85716,-27.03051 -37.54267,-27.03074 -13.18177,2.3e-4 -24.02743,4.33848 -32.537,13.01479 -8.50974,8.67674 -12.76458,20.77382 -12.7645,36.29128 -8e-5,30.53485 15.76783,45.80219 47.30377,45.80207 3.33701,1.2e-4 7.17469,-0.33358 11.51311,-1.00113 7.50839,-1.00101 13.34834,-1.50159 17.5199,-1.50171 10.17809,1.2e-4 15.2672,2.92011 15.26737,8.75995 -1.7e-4,6.50751 -5.17271,9.76122 -15.51766,9.76111 -3.67096,1.1e-4 -9.17723,-0.58389 -16.51877,-1.752 -5.50639,-1.00102 -9.76123,-1.5016 -12.76451,-1.5017 -33.37137,1e-4 -50.057,17.01945 -50.05692,51.05805 -8e-5,16.51882 4.42161,29.82562 13.26509,39.92039 8.84328,10.09482 21.19065,15.14223 37.04212,15.14222 19.85576,10e-6 33.0374,-10.26165 39.54494,-30.785 3.33699,-10.84563 7.04954,-18.35415 11.13766,-22.52562 4.08782,-4.17134 9.55236,-6.25705 16.39366,-6.25711 5.67292,6e-5 10.80376,2.04405 15.3925,6.13197 4.58834,4.08804 6.88263,9.30229 6.88283,15.64279 -2e-4,15.18396 -8.50987,27.73989 -25.52904,37.66783 -17.01952,9.92795 -37.62625,14.89193 -61.82028,14.89193 -26.53027,0 -50.0987,-6.34054 -70.70541,-19.02163 C 12.96765,17.83475 2.66428,0.89884 2.66431,-20.29196 c -3e-5,-26.53008 20.43986,-46.05225 61.31972,-58.5666 z"
           id="text2175"
           inkscape:connector-curvature="0"
           sodipodi:nodetypes="cccccccccccccccccccccsccccccsccc" />
      </g>
    </g>
  </g>
</svg>
