<?xml version="1.0" encoding="UTF-8" standalone="no"?>
<!-- Created with Inkscape (http://www.inkscape.org/) -->

<svg
   xmlns:dc="http://purl.org/dc/elements/1.1/"
   xmlns:cc="http://creativecommons.org/ns#"
   xmlns:rdf="http://www.w3.org/1999/02/22-rdf-syntax-ns#"
   xmlns:svg="http://www.w3.org/2000/svg"
   xmlns="http://www.w3.org/2000/svg"
   xmlns:sodipodi="http://sodipodi.sourceforge.net/DTD/sodipodi-0.dtd"
   xmlns:inkscape="http://www.inkscape.org/namespaces/inkscape"
   width="800.5"
   height="800.5"
   id="svg2866"
   sodipodi:version="0.32"
   inkscape:version="0.92.1 r15371"
   sodipodi:docname="lqdn.svg"
   inkscape:output_extension="org.inkscape.output.svg.inkscape"
   version="1.1">
  <defs
     id="defs2868">
    <inkscape:perspective
       sodipodi:type="inkscape:persp3d"
       inkscape:vp_x="0 : 561.25983 : 1"
       inkscape:vp_y="6.5312339e-14 : 1066.6667 : 0"
       inkscape:vp_z="793.70078 : 561.25983 : 1"
       inkscape:persp3d-origin="396.85039 : 374.17322 : 1"
       id="perspective2874" />
  </defs>
  <sodipodi:namedview
     id="base"
     pagecolor="#ffffff"
     bordercolor="#666666"
     borderopacity="1.0"
     gridtolerance="10000"
     guidetolerance="10"
     objecttolerance="10"
     inkscape:pageopacity="0"
     inkscape:pageshadow="2"
     inkscape:zoom="0.94192"
     inkscape:cx="411.83373"
     inkscape:cy="356.48232"
     inkscape:document-units="px"
     inkscape:current-layer="layer1"
     showgrid="false"
     inkscape:window-width="1920"
     inkscape:window-height="1143"
     inkscape:window-x="1680"
     inkscape:window-y="0"
     fit-margin-top="0"
     fit-margin-left="0"
     fit-margin-right="0"
     fit-margin-bottom="0"
     inkscape:window-maximized="1"
     inkscape:pagecheckerboard="true" />
  <metadata
     id="metadata2871">
    <rdf:RDF>
      <cc:Work
         rdf:about="">
        <dc:format>image/svg+xml</dc:format>
        <dc:type
           rdf:resource="http://purl.org/dc/dcmitype/StillImage" />
        <dc:title></dc:title>
      </cc:Work>
    </rdf:RDF>
  </metadata>
  <g
     inkscape:label="Layer 1"
     inkscape:groupmode="layer"
     id="layer1"
     transform="translate(2.7666667,-0.9)">
    <rect
       style="opacity:1;fill:#ffffff;fill-opacity:1;stroke:none;stroke-width:1;stroke-miterlimit:4;stroke-dasharray:none;stroke-opacity:1"
       id="rect827"
       width="651.24902"
       height="651.24902"
       x="62.697598"
       y="48.422886"
       rx="0"
       ry="0" />
    <path
       style="display:inline;overflow:visible;visibility:visible;fill:#497ed5;fill-opacity:1;fill-rule:nonzero;stroke:none;stroke-width:1.00068724;marker:none;enable-background:accumulate"
       d="M 62.697583,48.422879 V 186.31039 C 95.789958,129.10904 143.59348,81.453984 200.84138,48.422879 Z m 512.848767,0 C 632.97974,81.550641 680.84497,129.37266 713.94661,186.82265 V 48.422879 Z M 388.19387,69.951785 c -167.85622,0 -303.967143,136.110875 -303.967381,303.967355 0,167.85599 136.110931,304.22383 303.967381,304.22383 167.85646,0 304.22388,-136.3676 304.22388,-304.22383 0,-167.85624 -136.36765,-303.967355 -304.22388,-303.967355 z M 331.80875,216.80943 h 239.89341 v 51.2594 h -87.14083 l -7.68891,106.8753 c -1.50519,18.49453 -2.05093,34.34985 -2.05021,47.92773 -7.2e-4,32.53995 4.01853,52.45988 12.04606,59.71703 8.27688,7.02296 18.1915,10.50832 29.73004,10.50832 24.07999,0 38.28622,-13.96282 42.8018,-42.28929 h 13.58351 c -8.27805,65.08042 -36.14525,97.39243 -83.55261,97.39243 -22.0737,0 -40.02131,-6.32427 -53.56589,-18.96571 -13.29454,-12.64144 -19.73518,-31.31407 -19.73495,-56.1291 -2.3e-4,-16.38659 2.42119,-50.89251 7.68887,-103.79958 L 434.0711,268.06883 h -79.70843 c -5.26795,85.21315 -11.69693,147.51096 -19.22195,186.84001 -7.27472,39.329 -15.3184,64.64891 -24.34836,76.12025 -8.77916,11.47086 -20.83684,17.17126 -36.13791,17.17126 -11.53854,0 -21.4472,-3.16216 -29.47402,-9.48264 -7.77581,-6.32091 -11.53333,-14.56029 -11.53333,-24.86083 0,-9.8322 6.70238,-23.14904 20.2472,-40.23859 19.81613,-24.81455 34.55674,-50.71367 44.33952,-77.40128 9.78258,-26.92198 17.28123,-69.62263 22.2979,-128.14818 H 294.9019 c -20.56852,4.7e-4 -36.37779,4.40942 -47.41452,13.07104 -10.78643,8.42792 -20.97317,20.47519 -30.756,36.39416 H 203.1481 c 7.27397,-25.04869 16.65399,-45.61413 28.19228,-61.76747 11.53831,-16.1527 23.32861,-26.60829 35.36895,-31.52425 12.29088,-4.916 33.99577,-7.43265 65.09942,-7.43288 z m 382.13786,344.20595 c -33.10374,57.51104 -80.93554,105.49144 -138.40026,138.6565 H 713.94661 Z M 62.697583,561.52813 V 699.67188 H 200.84138 C 143.56402,666.60491 95.792105,618.78715 62.697583,561.52813 Z"
       id="path2858"
       inkscape:export-filename="/home/jeremie/wrk/laquadrature-net_logo_titre_carre_moyen.png"
       inkscape:export-xdpi="136.7"
       inkscape:export-ydpi="136.7"
       inkscape:connector-curvature="0" />
    <path
       style="font-style:normal;font-variant:normal;font-weight:normal;font-stretch:normal;font-size:69.72068787px;line-height:100%;font-family:Georgia;text-align:start;writing-mode:lr-tb;text-anchor:start;fill:#000000;fill-opacity:1;fill-rule:nonzero;stroke:none;stroke-width:1.06666672"
       d="m 84.525815,771.19329 h 0.04751 l -0.09503,-0.0475 -0.807726,-0.0475 -3.420963,-0.19006 c -0.19007,0 -0.380123,0 -0.57016,0 -0.19007,-0.0317 -0.380123,-0.0475 -0.570161,-0.0475 -0.443473,0 -0.918607,0.0317 -1.4254,0.095 -0.475148,0.0634 -0.902768,0.22174 -1.282861,0.47514 -0.72855,0 -1.457088,0.0317 -2.185614,0.095 -0.696873,0.0634 -1.393735,0.095 -2.090588,0.095 -1.48876,0 -2.676593,-0.0634 -3.563501,-0.19006 -0.886922,-0.095 -1.567946,-0.34843 -2.043076,-0.76021 -0.443461,-0.44346 -0.744378,-1.0928 -0.902753,-1.94805 -0.126705,-0.85524 -0.190056,-2.02723 -0.190053,-3.51599 -3e-6,-0.44345 0.04751,-0.88691 0.14254,-1.33037 0.126698,-0.44345 0.174212,-0.88691 0.142539,-1.33037 -0.03168,-0.66519 -0.07919,-1.33037 -0.142539,-1.99557 -0.03168,-0.69685 -0.04752,-1.37787 -0.04751,-2.04307 -3e-6,-1.01361 0.04751,-2.01139 0.14254,-2.99334 0.1267,-0.98193 0.190051,-1.97971 0.190054,-2.99335 -3e-6,-0.69684 -0.09503,-1.37786 -0.28508,-2.04307 -0.190057,-0.66516 -0.285083,-1.34618 -0.285081,-2.04307 -2e-6,-0.57014 0.04751,-1.15614 0.142541,-1.75799 0.126699,-0.6335 0.19005,-1.25117 0.190054,-1.85303 v -1.23535 c 0.03167,-0.82353 0.03167,-1.6471 0,-2.4707 -4e-6,-0.8552 -0.03168,-1.6946 -0.09503,-2.5182 -0.03168,-0.44343 -0.110867,-0.88688 -0.237567,-1.33037 -0.126704,-0.47511 -0.190055,-0.95023 -0.190053,-1.4254 -2e-6,-0.7285 0.205889,-1.25116 0.617674,-1.56795 0.411779,-0.31671 0.886912,-0.53844 1.4254,-0.66518 0.570156,-0.12667 1.124478,-0.20586 1.662968,-0.23757 0.538478,-0.0634 0.934422,-0.20585 1.187834,-0.42761 0.633503,0.12673 1.314528,0.22176 2.043074,0.28507 0.728528,0.0634 1.393714,0.19009 1.995562,0.38011 0.601824,0.19009 1.092795,0.50685 1.472914,0.95026 0.411769,0.4435 0.61766,1.10868 0.617674,1.99556 -1.4e-5,0.38014 -0.04753,0.77609 -0.142541,1.18784 -0.06336,0.41181 -0.09504,0.80776 -0.09503,1.18783 -1.4e-5,0.44349 0.01582,0.90279 0.04751,1.37789 0.03166,0.47517 0.0475,0.93447 0.04751,1.37789 -1.3e-5,0.47516 -0.03169,0.96613 -0.09503,1.47292 -0.06336,0.47515 -0.09504,0.95029 -0.09503,1.42539 -1.3e-5,0.34846 0.0475,0.72857 0.14254,1.14032 0.126688,0.38013 0.19004,0.74441 0.190054,1.09281 -1.4e-5,0.57019 -0.110878,1.12451 -0.332594,1.66297 -0.221742,0.53851 -0.332606,1.09283 -0.332594,1.66297 -1.2e-5,0.5385 0.0475,1.09283 0.14254,1.66296 0.126689,0.57019 0.190041,1.1245 0.190054,1.66298 -1.3e-5,0.28508 -0.04753,0.60184 -0.14254,0.95026 -0.06336,0.34845 -0.126715,0.6652 -0.190054,0.95027 0.06334,0.34845 0.142527,0.71271 0.237567,1.0928 0.126689,0.34845 0.221716,0.69689 0.28508,1.0453 -0.126715,0.44347 -0.205904,0.90276 -0.237567,1.37789 -0.03169,0.47514 -0.04753,0.95027 -0.04751,1.4254 -1.3e-5,0.28508 0.09502,0.52265 0.285079,0.7127 0.221716,0.15838 0.47512,0.28509 0.760214,0.38011 0.285066,0.0634 0.570146,0.11087 0.855241,0.14254 0.31674,0.0317 0.570144,0.0476 0.760213,0.0475 1.076953,10e-6 2.138084,-0.11086 3.183396,-0.33259 1.045273,-0.22172 2.090566,-0.33258 3.135881,-0.33259 0.380084,1e-5 0.83938,0.0159 1.377887,0.0475 0.570137,0.0317 1.124459,0.11088 1.662968,0.23756 0.538459,0.12671 0.997754,0.33261 1.377888,0.61768 0.38008,0.25342 0.570133,0.63352 0.57016,1.14032 v 1.71048 c -2.7e-5,0.60184 0.07916,1.20367 0.237566,1.80551 0.158351,0.60183 0.23754,1.21951 0.237567,1.85302 -2.7e-5,0.76021 -0.190081,1.33037 -0.57016,1.71048 -0.380133,0.3801 -0.855267,0.64935 -1.425401,0.80773 -0.570185,0.15838 -1.187858,0.2534 -1.853021,0.28508 -0.633534,0 -1.219532,0.0159 -1.757994,0.0475 m 36.378894,0 c -0.91862,0 -1.69466,-0.15838 -2.32816,-0.47512 -0.60185,-0.31676 -1.09283,-0.74439 -1.4729,-1.28287 -0.34846,-0.53848 -0.60187,-1.17199 -0.76022,-1.90053 -0.15841,-0.72854 -0.23759,-1.50459 -0.23756,-2.32815 h -0.23757 c -2e-5,-0.15838 -0.0793,-0.23757 -0.23757,-0.23757 -0.12673,0 -0.25343,0.0317 -0.38011,0.095 -0.12673,0.0317 -0.23759,0.0791 -0.33259,0.14254 -0.19007,0 -0.72856,0 -1.61545,0 -0.85526,-0.0317 -1.7897,-0.0475 -2.8033,-0.0476 -0.98196,1e-5 -1.93222,0.0159 -2.85079,0.0476 -0.91861,0.0317 -1.52044,0.095 -1.80551,0.19004 -0.63352,0.19006 -1.10866,0.47515 -1.4254,0.85525 -0.28509,0.38011 -0.50682,0.80773 -0.66518,1.28286 -0.15839,0.47513 -0.2851,0.96611 -0.38011,1.47291 -0.095,0.50681 -0.25342,0.9661 -0.47514,1.37789 -0.22174,0.41179 -0.57017,0.74437 -1.04529,0.99778 -0.44347,0.28508 -1.09282,0.42762 -1.948049,0.42762 -0.443467,0 -0.871086,-0.0158 -1.282861,-0.0475 -0.41179,-0.0317 -0.839409,-0.0475 -1.282861,-0.0475 -0.285085,0 -0.570165,0.0317 -0.85524,0.095 -0.285085,0.0634 -0.554328,0.095 -0.807727,0.095 -0.443462,0 -0.918595,-0.0317 -1.425401,-0.095 -0.475136,-0.0634 -0.918594,-0.19005 -1.330374,-0.38011 -0.380108,-0.19005 -0.696864,-0.4593 -0.950267,-0.80772 -0.253405,-0.34844 -0.380107,-0.80773 -0.380106,-1.37789 -10e-7,-0.57016 0.07919,-1.10864 0.237566,-1.61546 0.190053,-0.53848 0.411781,-1.06113 0.665187,-1.56793 0.253402,-0.50681 0.506807,-0.99779 0.760214,-1.47292 0.285078,-0.50681 0.522644,-1.01361 0.7127,-1.52043 0.06335,-0.19005 0.09503,-0.39593 0.09503,-0.61767 0.03167,-0.2534 0.07919,-0.49097 0.14254,-0.71271 0.158374,-0.69685 0.316752,-1.44122 0.475134,-2.23312 0.158374,-0.82356 0.380102,-1.56793 0.665187,-2.23313 0.348427,-0.79187 0.68102,-1.56792 0.99778,-2.32816 0.348426,-0.79187 0.696857,-1.58375 1.045294,-2.37567 0.158371,-0.3484 0.237561,-0.74435 0.237567,-1.18783 -6e-6,-0.47511 0.06335,-0.90273 0.190053,-1.28285 0.158372,-0.47512 0.395938,-0.95026 0.7127,-1.42541 0.316749,-0.47511 0.538477,-0.95024 0.665187,-1.4254 0.09502,-0.34841 0.174208,-0.72851 0.237567,-1.14032 0.06334,-0.41175 0.142533,-0.8077 0.237567,-1.18783 0.126694,-0.41175 0.269233,-0.8077 0.427623,-1.18784 0.15837,-0.38007 0.36426,-0.71267 0.61767,-0.99778 0.12669,-0.79186 0.34842,-1.55208 0.66519,-2.28064 0.31674,-0.7285 0.69685,-1.42537 1.14032,-2.09058 0.095,-0.57014 0.22172,-1.14029 0.38011,-1.71049 0.15836,-0.57012 0.39593,-1.09277 0.7127,-1.56793 0.31674,-0.47511 0.69685,-0.87105 1.14032,-1.18784 0.47512,-0.31672 1.04528,-0.50678 1.71048,-0.57016 0.72852,-0.095 1.29869,-0.17418 1.71049,-0.23757 0.44343,-0.0949 0.85522,-0.1425 1.23534,-0.14253 0.60182,3e-5 1.29868,0.0793 2.09059,0.23755 0.82354,0.12674 1.61543,0.34847 2.37567,0.6652 0.76019,0.31679 1.42537,0.72857 1.99556,1.23535 0.60181,0.47516 0.99775,1.06116 1.18783,1.75799 0.38008,1.52046 0.8077,2.99337 1.28287,4.41874 0.4751,1.42543 0.82353,2.94586 1.04529,4.56128 0.22169,0.34846 0.49094,0.82359 0.80772,1.4254 0.31673,0.60186 0.63348,1.23537 0.95027,1.90053 0.3484,0.66522 0.64931,1.29872 0.90275,1.90054 0.28505,0.60185 0.47511,1.07699 0.57017,1.4254 0.095,0.34845 0.17418,0.69688 0.23756,1.0453 0.095,0.31676 0.19002,0.64936 0.28508,0.99778 0.0949,0.34844 0.28505,0.74439 0.57016,1.18783 0.31672,0.41179 0.55429,0.7919 0.7127,1.14032 0.12667,0.31677 0.2217,0.6652 0.28508,1.0453 0.095,0.38011 0.17419,0.76022 0.23757,1.14032 0.095,0.38011 0.19001,0.76022 0.28508,1.14032 0.095,0.34843 0.22169,0.66519 0.3801,0.95026 0.15835,0.2851 0.39592,0.74438 0.71271,1.37789 0.31672,0.60184 0.63347,1.2512 0.95027,1.94805 0.34839,0.69686 0.63347,1.37789 0.85523,2.04307 0.25338,0.63352 0.38008,1.12449 0.38011,1.47292 -3e-5,0.38011 -0.1109,0.7127 -0.33259,0.99778 -0.22177,0.28508 -0.50685,0.55432 -0.85524,0.80772 -0.31679,0.22173 -0.66523,0.42763 -1.04529,0.61768 -0.34847,0.15838 -0.64939,0.31676 -0.90277,0.47513 -0.15841,0 -0.45932,0.0159 -0.90275,0.0475 -0.41181,0.0317 -0.8711,0.0634 -1.37789,0.095 -0.47515,0 -0.93445,0.0317 -1.37788,0.095 -0.41181,0.0317 -0.68105,0.0634 -0.80773,0.095 m -11.11812,-26.41742 c -0.19008,0.63354 -0.34845,1.23537 -0.47513,1.80551 -0.12672,0.57018 -0.25342,1.17202 -0.38011,1.8055 -0.12672,0.63354 -0.30094,1.28288 -0.52265,1.94805 -0.22175,0.63353 -0.44347,1.26704 -0.66519,1.90054 -0.22174,0.63352 -0.42763,1.28288 -0.61767,1.94804 -0.1584,0.63352 -0.23758,1.28288 -0.23756,1.94805 -2e-5,0.25342 0.095,0.45931 0.28507,0.61768 0.19004,0.12671 0.41177,0.22174 0.66519,0.28507 0.25338,0.0634 0.50679,0.11088 0.76021,0.14254 0.28507,10e-6 0.52264,10e-6 0.71271,0 0.25338,10e-6 0.57014,10e-6 0.95026,0 0.38009,-0.0317 0.77603,-0.0791 1.18784,-0.14254 0.41176,-0.0634 0.79187,-0.14252 1.14032,-0.23756 0.3484,-0.12669 0.61765,-0.28507 0.80772,-0.47514 0.0317,2e-5 0.0475,-0.0158 0.0476,-0.0475 -2e-5,-0.0317 -2e-5,-0.0475 0,-0.0476 -2e-5,-0.095 -0.0476,-0.22171 -0.14254,-0.38011 -0.0634,-0.19003 -0.12673,-0.31673 -0.19005,-0.3801 -0.2851,-0.6335 -0.52267,-1.31452 -0.71271,-2.04307 -0.15839,-0.72853 -0.31677,-1.44122 -0.47512,-2.13811 -0.095,-0.41175 -0.25343,-0.8077 -0.47514,-1.18783 -0.19008,-0.38008 -0.31678,-0.76019 -0.38011,-1.14032 l -0.66518,-3.65852 c -0.0317,-0.095 -0.12673,-0.19003 -0.28509,-0.28509 -0.12672,-0.12667 -0.23758,-0.20586 -0.33259,-0.23756 m 76.80014,21.95117 c -4e-5,0.57016 -0.0793,1.25119 -0.23756,2.04307 -0.15842,0.79189 -0.41182,1.55211 -0.76022,2.28064 -0.31679,0.72855 -0.74441,1.34621 -1.28286,1.85303 -0.50684,0.5068 -1.10868,0.76021 -1.8055,0.76021 -0.6969,0 -1.34625,-0.12671 -1.94805,-0.38011 -0.60187,-0.25341 -1.21955,-0.52264 -1.85302,-0.80772 -0.50685,-0.50682 -1.06117,-0.96611 -1.66297,-1.37789 -0.60187,-0.41179 -1.21953,-0.80773 -1.85302,-1.18784 l -0.19006,-0.0475 c -0.25342,0 -0.58602,0.0634 -0.99778,0.19005 -0.4118,0.095 -0.83942,0.23757 -1.28286,0.42763 -0.44348,0.15838 -0.8711,0.33259 -1.28285,0.52264 -0.38014,0.15838 -0.66522,0.30092 -0.85525,0.42762 -0.5385,0.0634 -1.06115,0.095 -1.56793,0.095 -0.47516,0.0317 -0.98198,0.0634 -1.52043,0.095 -0.38014,0.0317 -0.83942,0.11086 -1.37789,0.23757 -0.5385,0.1267 -0.93445,0.19005 -1.18784,0.19005 -2.40736,0 -4.64048,-0.47514 -6.69938,-1.4254 -2.05892,-0.98194 -3.95945,-2.28064 -5.7016,-3.8961 -0.63352,-0.60183 -1.25119,-1.23534 -1.85302,-1.90053 -0.57017,-0.69685 -1.02946,-1.45707 -1.37789,-2.28064 -0.34844,-0.82356 -0.55433,-1.63129 -0.61768,-2.42319 -0.0634,-0.79187 -0.20588,-1.58376 -0.42761,-2.37566 -1e-5,-0.0317 -0.0317,-0.14253 -0.095,-0.3326 -0.0634,-0.19003 -0.14254,-0.38009 -0.23757,-0.57016 -0.0634,-0.19004 -0.1267,-0.36425 -0.19005,-0.52265 -0.0317,-0.19003 -0.0475,-0.28506 -0.0475,-0.28507 v -4.08615 c 0,-0.66517 0.0317,-1.47289 0.095,-2.42319 0.0634,-0.95024 0.1742,-1.91634 0.33259,-2.89831 0.19005,-1.01359 0.41178,-1.96386 0.66519,-2.8508 0.28507,-0.91857 0.6335,-1.6471 1.04529,-2.18562 0.44345,-0.57012 1.01361,-1.25114 1.71048,-2.04307 0.69686,-0.82353 1.44123,-1.63125 2.23312,-2.42318 0.79189,-0.79186 1.59962,-1.48871 2.42319,-2.09059 0.82355,-0.63347 1.59961,-1.04526 2.32815,-1.23535 0.095,-0.0317 0.36426,-0.11083 0.80774,-0.23757 0.47511,-0.12665 0.98192,-0.26919 1.52042,-0.42761 0.53847,-0.15834 1.02944,-0.30088 1.47291,-0.42762 0.44344,-0.12667 0.66517,-0.19002 0.66519,-0.19006 1.99554,4e-5 4.00694,0.14258 6.0342,0.42763 2.02721,0.25344 4.00693,0.60187 5.93917,1.04529 0.12667,0.0317 0.31672,0.15841 0.57015,0.38011 0.28506,0.19009 0.57014,0.41181 0.85525,0.66518 0.31672,0.25344 0.6018,0.49101 0.85524,0.7127 0.25337,0.22176 0.42758,0.38014 0.52264,0.47514 1.96385,1.74219 3.50012,3.65856 4.6088,5.74911 1.10861,2.09061 1.74212,4.45044 1.90054,7.07949 0.0317,0.50683 0.0475,1.01364 0.0475,1.52043 0.0317,0.50683 0.11083,0.9978 0.23757,1.47291 -0.12674,1.23537 -0.28512,2.37569 -0.47513,3.42096 -0.19009,1.04531 -0.38014,2.12228 -0.57016,3.23091 -0.4435,0.60185 -0.8236,1.2512 -1.14032,1.94806 -0.3168,0.69686 -0.61772,1.39372 -0.90276,2.09058 -3e-5,0.69687 0.26921,1.172 0.80773,1.4254 0.53844,0.22173 1.12445,0.41179 1.758,0.57016 0.63347,0.15839 1.21946,0.36428 1.75799,0.61768 0.53844,0.22173 0.80768,0.68102 0.80772,1.37788 M 165.5384,741.92476 c -0.25342,3e-5 -0.6177,0.0793 -1.09281,0.23757 -0.47515,0.1584 -0.96613,0.3643 -1.47291,0.61767 -0.50683,0.22175 -0.98196,0.45932 -1.42541,0.7127 -0.41179,0.25344 -0.71271,0.47516 -0.90275,0.66519 -1.0453,1.10867 -1.78968,2.37569 -2.23313,3.80107 -0.44347,1.42542 -0.66519,2.89833 -0.66518,4.41874 -1e-5,0.91861 0.0634,1.80552 0.19005,2.66075 0.12669,0.85525 0.34842,1.66298 0.66519,2.42317 0.34841,0.76024 0.79187,1.47293 1.33038,2.13811 0.57014,0.63352 1.26699,1.18785 2.09058,1.66296 0.44344,0.25342 0.93441,0.52267 1.47292,0.80773 0.57014,0.25341 1.10863,0.38012 1.61545,0.38011 0.47512,1e-5 1.02943,-0.0317 1.66297,-0.095 0.63349,-0.095 1.25115,-0.23756 1.85302,-0.42762 0.63348,-0.19004 1.20365,-0.44345 1.71048,-0.76021 0.53846,-0.31675 0.93441,-0.71269 1.18784,-1.18784 0.72851,-1.29869 1.28282,-2.6924 1.66296,-4.18117 0.38008,-1.48874 0.57013,-2.97748 0.57016,-4.46625 -3e-5,-1.23533 -0.17424,-2.42317 -0.52265,-3.56351 -0.34846,-1.14029 -0.8711,-2.13807 -1.56794,-2.99334 -0.69689,-0.85522 -1.56796,-1.53624 -2.61323,-2.04308 -1.01365,-0.53845 -2.18563,-0.80769 -3.51599,-0.80772 m 19.05285,10.02532 c -3e-5,0.0317 -0.0159,0.0634 -0.0475,0.095 -4e-5,2e-5 -4e-5,2e-5 0,0 0.0949,2e-5 0.11083,-0.0317 0.0475,-0.095 m 37.23489,7.60214 c -3e-5,0.22173 -0.0476,0.53849 -0.14254,0.95026 -0.0634,0.38011 -0.15841,0.7919 -0.28508,1.23535 -0.095,0.44346 -0.20592,0.87109 -0.33259,1.28285 -0.12674,0.38012 -0.2376,0.68104 -0.3326,0.90277 -0.28511,0.60183 -0.69689,1.20367 -1.23535,1.8055 -0.53852,0.57017 -1.04532,1.07697 -1.52042,1.52043 -0.19008,0.19006 -0.42765,0.41178 -0.7127,0.66518 -0.25344,0.22174 -0.53852,0.45931 -0.85524,0.71271 -0.31679,0.2534 -0.63355,0.47513 -0.95027,0.66518 -0.28511,0.19006 -0.55435,0.3326 -0.80773,0.42763 -0.88694,0.28507 -1.75801,0.57015 -2.61323,0.85523 -0.82359,0.28509 -1.66299,0.60184 -2.51821,0.95027 -0.76024,0 -1.67883,-0.0159 -2.75578,-0.0475 -1.04531,-0.0317 -2.13811,-0.095 -3.27842,-0.19005 -1.10866,-0.095 -2.18562,-0.25341 -3.23091,-0.47514 -1.01362,-0.22173 -1.85302,-0.52265 -2.51821,-0.90275 -0.79189,-0.44346 -1.5521,-1.01361 -2.28064,-1.71048 -0.69686,-0.69686 -1.36205,-1.37789 -1.99555,-2.04308 -0.50682,-0.53847 -0.98195,-1.12447 -1.42541,-1.75799 -0.41178,-0.63351 -0.79189,-1.28285 -1.14032,-1.94805 0,-0.6335 0,-1.23534 0,-1.8055 0,-0.60184 -0.0317,-1.2195 -0.095,-1.85303 -0.0317,-0.0634 -0.0791,-0.23755 -0.14254,-0.52264 -0.0317,-0.28507 -0.0634,-0.58598 -0.095,-0.90275 -0.0317,-0.34843 -0.0634,-0.66518 -0.095,-0.95027 0,-0.28507 0,-0.45929 0,-0.52265 0,-0.72852 0.0475,-1.4729 0.14254,-2.23313 0.095,-0.76019 0.14254,-1.52041 0.14254,-2.28064 0,-0.53846 -0.0317,-1.06111 -0.095,-1.56794 -0.0317,-0.53846 -0.0475,-1.07695 -0.0475,-1.61545 0,-0.88689 0.0158,-1.75798 0.0475,-2.61324 0.0634,-0.88689 0.095,-1.7738 0.095,-2.66075 0,-1.29866 -0.0634,-2.56569 -0.19005,-3.80106 -0.095,-1.267 -0.15839,-2.54986 -0.19006,-3.84859 0.22173,-0.6018 0.586,-1.04526 1.09281,-1.33038 0.53848,-0.28503 1.12448,-0.45925 1.758,-0.52264 0.66517,-0.095 1.33037,-0.12666 1.99555,-0.095 0.66519,0.0317 1.26702,0.0476 1.80552,0.0475 0.60182,5e-5 1.17199,5e-5 1.71047,0 0.53848,5e-5 0.99777,0.0793 1.37789,0.23757 0.41177,0.15841 0.72853,0.4435 0.95027,0.85524 0.22172,0.38014 0.33258,0.96614 0.3326,1.758 -2e-5,0.63354 -0.0793,1.28289 -0.23757,1.94804 -0.12672,0.63355 -0.22175,1.26705 -0.28509,1.90053 -0.0634,0.63355 -0.095,1.28289 -0.095,1.94806 -2e-5,0.66521 -2e-5,1.31456 0,1.94804 -2e-5,0.79191 0.0158,1.58381 0.0475,2.37567 0.0317,0.76023 0.0475,1.53629 0.0475,2.32815 -2e-5,0.72856 -0.0634,1.47294 -0.19005,2.23313 -0.12672,0.72855 -0.19007,1.4571 -0.19006,2.18562 -10e-6,0.50683 0.0317,1.06114 0.095,1.66297 0.095,0.57017 0.22172,1.09282 0.38011,1.56793 -0.0634,0.38013 -0.0634,0.80775 0,1.28286 0.0634,0.47515 0.12668,0.90277 0.19005,1.28287 0.41177,0.5385 0.79188,1.06114 1.14032,1.56794 0.38009,0.47514 0.79188,0.90276 1.23535,1.28285 0.44344,0.34845 0.93441,0.63353 1.47291,0.85525 0.53847,0.22174 1.18782,0.33259 1.94805,0.33259 1.07695,0 1.93218,-0.25339 2.56572,-0.76021 0.66516,-0.5068 1.15614,-1.14031 1.47292,-1.90053 0.3484,-0.79188 0.57013,-1.64713 0.66518,-2.56573 0.12668,-0.95025 0.19003,-1.853 0.19006,-2.70826 -3e-5,-0.41176 -3e-5,-0.82355 0,-1.23535 -3e-5,-0.44344 -0.0317,-0.87106 -0.095,-1.28285 -0.0634,-0.34842 -0.14257,-0.69685 -0.23757,-1.04531 -0.0634,-0.38008 -0.095,-0.74435 -0.095,-1.0928 -2e-5,-0.72852 0.0158,-1.47289 0.0475,-2.23313 0.0634,-0.76019 0.095,-1.50456 0.095,-2.23313 -2e-5,-0.0317 -0.0159,-0.11083 -0.0475,-0.23756 -0.0317,-0.15835 -0.0634,-0.31673 -0.095,-0.47513 -0.0317,-0.19004 -0.0793,-0.34841 -0.14254,-0.47514 -0.0317,-0.15835 -0.0476,-0.26921 -0.0475,-0.33259 0.095,-0.60181 0.14251,-1.20364 0.14254,-1.80551 -3e-5,-0.82354 -0.0317,-1.61542 -0.095,-2.37567 -0.0634,-0.79186 -0.095,-1.58374 -0.095,-2.37567 -3e-5,-1.36201 0.11084,-2.32811 0.33259,-2.89831 0.22171,-0.6018 0.57014,-0.99774 1.04529,-1.18783 0.47512,-0.2217 1.07695,-0.34839 1.80552,-0.38011 0.7285,-0.0634 1.59958,-0.2692 2.61323,-0.61767 0.41175,3e-5 0.90273,0.0317 1.47291,0.095 0.57014,0.0317 1.12445,0.12674 1.66297,0.28509 0.53845,0.15841 0.99775,0.39598 1.37789,0.71269 0.38007,0.3168 0.57013,0.76026 0.57016,1.33038 -3e-5,0.34847 -0.0476,0.69689 -0.14254,1.04529 -0.095,0.31679 -0.14258,0.64939 -0.14255,0.99778 -3e-5,0.12674 0.0158,0.20593 0.0475,0.23757 -3e-5,0.53852 0.0317,1.06116 0.095,1.56793 0.0634,0.47517 0.095,0.98199 0.095,1.52044 -3e-5,0.44349 -0.095,0.90279 -0.28508,1.37789 -0.15841,0.44348 -0.2376,0.88694 -0.23757,1.33037 -3e-5,0.38014 0.0317,0.77607 0.095,1.18784 0.0634,0.38013 0.095,0.76023 0.095,1.14032 -3e-5,0.82358 -0.0317,1.64714 -0.095,2.47069 -0.0634,0.82358 -0.12674,1.64715 -0.19005,2.47069 -0.0634,0.72856 -0.0159,1.5838 0.14255,2.56572 0.19001,0.95028 0.28504,1.82137 0.28507,2.61324 -3e-5,0.4118 -0.0317,0.82358 -0.095,1.23535 -0.0317,0.38012 -0.0476,0.76022 -0.0475,1.14032 -4e-5,0.25342 0.0158,0.50681 0.0475,0.76021 0.0634,0.25342 0.095,0.50682 0.095,0.76022 m 32.43158,11.64076 c -0.91862,0 -1.69467,-0.15838 -2.32815,-0.47512 -0.60187,-0.31676 -1.09284,-0.74439 -1.47292,-1.28287 -0.34846,-0.53848 -0.60186,-1.17199 -0.76021,-1.90053 -0.1584,-0.72854 -0.23759,-1.50459 -0.23757,-2.32815 h -0.23757 c -2e-5,-0.15838 -0.0793,-0.23757 -0.23757,-0.23757 -0.12672,0 -0.25342,0.0317 -0.3801,0.095 -0.12672,0.0317 -0.23759,0.0791 -0.33259,0.14254 -0.19008,0 -0.72857,0 -1.61546,0 -0.85526,-0.0317 -1.78968,-0.0475 -2.80328,-0.0476 -0.98197,10e-6 -1.93224,0.0159 -2.85081,0.0476 -0.9186,0.0317 -1.52044,0.095 -1.8055,0.19004 -0.63353,0.19006 -1.10866,0.47515 -1.42541,0.85525 -0.28509,0.38011 -0.50682,0.80773 -0.66518,1.28286 -0.15839,0.47513 -0.28509,0.96611 -0.38011,1.47291 -0.095,0.50681 -0.25342,0.9661 -0.47514,1.37789 -0.22174,0.41179 -0.57016,0.74437 -1.04529,0.99778 -0.44346,0.28508 -1.09282,0.42762 -1.94804,0.42762 -0.44347,0 -0.87109,-0.0158 -1.28287,-0.0475 -0.41179,-0.0317 -0.8394,-0.0475 -1.28286,-0.0475 -0.28509,0 -0.57016,0.0317 -0.85524,0.095 -0.28508,0.0634 -0.55433,0.095 -0.80772,0.095 -0.44347,0 -0.9186,-0.0317 -1.4254,-0.095 -0.47514,-0.0634 -0.91859,-0.19005 -1.33038,-0.38011 -0.38011,-0.19005 -0.69686,-0.4593 -0.95026,-0.80772 -0.25341,-0.34844 -0.38011,-0.80773 -0.38011,-1.37789 0,-0.57016 0.0791,-1.10864 0.23756,-1.61546 0.19006,-0.53848 0.41179,-1.06113 0.66519,-1.56793 0.2534,-0.50681 0.50681,-0.99779 0.76022,-1.47292 0.28508,-0.50681 0.52264,-1.01361 0.71269,-1.52043 0.0634,-0.19005 0.095,-0.39593 0.095,-0.61767 0.0317,-0.2534 0.0791,-0.49097 0.14254,-0.71271 0.15838,-0.69685 0.31676,-1.44122 0.47514,-2.23312 0.15837,-0.82356 0.3801,-1.56793 0.66518,-2.23313 0.34843,-0.79187 0.68102,-1.56792 0.99778,-2.32816 0.34843,-0.79187 0.69687,-1.58375 1.0453,-2.37567 0.15837,-0.3484 0.23756,-0.74435 0.23756,-1.18783 0,-0.47511 0.0634,-0.90273 0.19006,-1.28285 0.15837,-0.47512 0.39593,-0.95026 0.7127,-1.42541 0.31675,-0.47511 0.53848,-0.95024 0.66519,-1.4254 0.095,-0.34841 0.1742,-0.72851 0.23756,-1.14032 0.0634,-0.41175 0.14253,-0.8077 0.23757,-1.18783 0.12669,-0.41175 0.26923,-0.8077 0.42762,-1.18784 0.15837,-0.38007 0.36425,-0.71267 0.61767,-0.99778 0.12669,-0.79186 0.34843,-1.55208 0.66519,-2.28064 0.31674,-0.7285 0.69685,-1.42537 1.14032,-2.09058 0.095,-0.57014 0.22171,-1.14029 0.3801,-1.71049 0.15837,-0.57012 0.39594,-1.09277 0.71271,-1.56793 0.31674,-0.47511 0.69685,-0.87105 1.14032,-1.18784 0.47512,-0.31672 1.04528,-0.50678 1.71048,-0.57016 0.72853,-0.095 1.29868,-0.17418 1.71048,-0.23757 0.44344,-0.0949 0.85522,-0.1425 1.23535,-0.14253 0.60181,3e-5 1.29867,0.0793 2.09059,0.23755 0.82354,0.12674 1.61542,0.34847 2.37567,0.6652 0.76018,0.31679 1.42537,0.72857 1.99555,1.23535 0.60181,0.47516 0.99776,1.06116 1.18784,1.75799 0.38008,1.52046 0.8077,2.99337 1.28286,4.41874 0.4751,1.42543 0.82354,2.94586 1.04529,4.56128 0.22171,0.34846 0.49094,0.82359 0.80773,1.4254 0.31673,0.60186 0.63349,1.23537 0.95026,1.90053 0.34841,0.66522 0.64933,1.29872 0.90276,1.90054 0.28505,0.60185 0.4751,1.07699 0.57016,1.4254 0.095,0.34845 0.17419,0.69688 0.23757,1.0453 0.095,0.31676 0.19002,0.64936 0.28508,0.99778 0.095,0.34844 0.28504,0.74439 0.57016,1.18783 0.31672,0.41179 0.55429,0.7919 0.7127,1.14032 0.12667,0.31677 0.22169,0.6652 0.28508,1.0453 0.095,0.38011 0.17418,0.76022 0.23756,1.14032 0.095,0.38011 0.19003,0.76022 0.28509,1.14032 0.095,0.34843 0.2217,0.66519 0.38011,0.95026 0.15833,0.2851 0.3959,0.74438 0.71269,1.37789 0.31672,0.60184 0.63348,1.2512 0.95027,1.94805 0.3484,0.69686 0.63347,1.37789 0.85524,2.04307 0.25337,0.63352 0.38007,1.12449 0.38011,1.47292 -4e-5,0.38011 -0.1109,0.7127 -0.3326,0.99778 -0.22176,0.28508 -0.50684,0.55432 -0.85524,0.80772 -0.31679,0.22173 -0.66522,0.42763 -1.04529,0.61768 -0.34847,0.15838 -0.64939,0.31676 -0.90275,0.47513 -0.15841,0 -0.45933,0.0159 -0.90275,0.0475 -0.41182,0.0317 -0.87112,0.0634 -1.37789,0.095 -0.47517,0 -0.93447,0.0317 -1.37789,0.095 -0.41182,0.0317 -0.68106,0.0634 -0.80773,0.095 m -11.11813,-26.41742 c -0.19007,0.63354 -0.34844,1.23537 -0.47513,1.80551 -0.12672,0.57018 -0.25342,1.17202 -0.38011,1.8055 -0.12672,0.63354 -0.30093,1.28288 -0.52264,1.94805 -0.22175,0.63353 -0.44348,1.26704 -0.66519,1.90054 -0.22175,0.63352 -0.42764,1.28288 -0.61767,1.94804 -0.15839,0.63352 -0.23758,1.28288 -0.23757,1.94805 -1e-5,0.25342 0.095,0.45931 0.28508,0.61768 0.19003,0.12671 0.41176,0.22174 0.66519,0.28507 0.25339,0.0634 0.50679,0.11088 0.76021,0.14254 0.28506,10e-6 0.52263,10e-6 0.7127,0 0.25338,10e-6 0.57014,10e-6 0.95027,0 0.38009,-0.0317 0.77603,-0.0791 1.18783,-0.14254 0.41176,-0.0634 0.79187,-0.14252 1.14032,-0.23756 0.34842,-0.12669 0.61765,-0.28507 0.80773,-0.47514 0.0317,2e-5 0.0475,-0.0158 0.0475,-0.0475 -2e-5,-0.0317 -2e-5,-0.0475 0,-0.0476 -2e-5,-0.095 -0.0476,-0.22171 -0.14254,-0.38011 -0.0634,-0.19003 -0.12672,-0.31673 -0.19006,-0.3801 -0.2851,-0.6335 -0.52266,-1.31452 -0.71269,-2.04307 -0.1584,-0.72853 -0.31678,-1.44122 -0.47514,-2.13811 -0.095,-0.41175 -0.25343,-0.8077 -0.47513,-1.18783 -0.19007,-0.38008 -0.31677,-0.76019 -0.38011,-1.14032 l -0.66518,-3.65852 c -0.0317,-0.095 -0.12672,-0.19003 -0.28508,-0.28509 -0.12672,-0.12667 -0.23759,-0.20586 -0.3326,-0.23756 m 54.25432,13.20871 c -0.34847,0.82358 -0.66522,1.64714 -0.95027,2.47069 -0.28512,0.82358 -0.58603,1.64714 -0.90276,2.4707 -0.095,0.28509 -0.31678,0.64936 -0.66518,1.0928 -0.34846,0.44347 -0.72857,0.90277 -1.14032,1.37789 -0.38014,0.44347 -0.77609,0.87108 -1.18783,1.28286 -0.41182,0.41179 -0.72858,0.72854 -0.95027,0.95027 -0.25343,0.25341 -0.69689,0.53849 -1.33037,0.85524 -0.63355,0.28508 -1.31457,0.57017 -2.04308,0.85525 -0.72856,0.25339 -1.44126,0.47513 -2.13811,0.66518 -0.6652,0.19006 -1.17201,0.28508 -1.52042,0.28508 -0.95028,0 -1.86888,0.095 -2.75578,0.28508 -0.88693,0.15837 -1.78968,0.26924 -2.70825,0.33259 -0.50683,0.0634 -0.99781,0.0792 -1.47292,0.0475 -0.47515,-0.0634 -0.95028,-0.0317 -1.4254,0.095 -1.77384,0.38011 -3.62687,0.57016 -5.55906,0.57016 -0.50682,0 -1.09282,-0.0317 -1.75799,-0.095 -0.6652,-0.0634 -1.29871,-0.20588 -1.90054,-0.42761 -0.57016,-0.22173 -1.06114,-0.53849 -1.47292,-0.95027 -0.41178,-0.41178 -0.61767,-0.98194 -0.61767,-1.71049 0,-0.2534 0.0317,-0.5068 0.095,-0.76021 0.0634,-0.28507 0.095,-0.55432 0.095,-0.80772 -10e-6,-0.2534 -0.0317,-0.49097 -0.095,-0.71271 -0.0634,-0.2534 -0.095,-0.5068 -0.095,-0.76021 0,-0.82355 0.0158,-1.64712 0.0475,-2.47069 0.0317,-0.85523 0.0476,-1.69463 0.0476,-2.51821 0,-1.90052 -0.0317,-3.80105 -0.095,-5.70161 -0.0317,-1.93219 -0.0792,-3.84855 -0.14254,-5.74911 v -0.3801 c -0.0317,-0.8869 0,-1.75798 0.095,-2.61324 0.095,-0.88689 0.14254,-1.7738 0.14254,-2.66075 0,-0.91856 -0.0476,-1.80548 -0.14254,-2.66075 -0.095,-0.88689 -0.14255,-1.78964 -0.14254,-2.70826 -1e-5,-0.63347 0.0158,-1.15612 0.0475,-1.56794 0.0317,-0.44342 0.1267,-0.82353 0.28508,-1.14032 0.15838,-0.34839 0.3801,-0.66515 0.66518,-0.95027 0.31676,-0.28505 0.76021,-0.60179 1.33038,-0.95026 1.83717,0.19009 3.67436,0.33263 5.51155,0.42761 1.86884,0.095 3.73771,0.17426 5.60657,0.23757 h 0.19006 c 0.63349,0.0317 1.26701,-0.0158 1.90053,-0.14254 0.66517,-0.12666 1.31452,-0.19001 1.94805,-0.19005 0.79187,4e-5 1.53624,0.0793 2.23313,0.23756 0.72851,0.15842 1.44121,0.36431 2.1381,0.61768 0.69684,0.25344 1.37787,0.53852 2.04307,0.85524 0.69684,0.28511 1.40954,0.5702 2.1381,0.85524 0.79186,0.76025 1.48873,1.44127 2.09059,2.04308 0.60181,0.60186 1.14029,1.21954 1.61546,1.85302 0.50677,0.60187 0.98191,1.28289 1.4254,2.04307 0.4751,0.72857 0.98191,1.59964 1.52042,2.61324 0.15835,1.33039 0.28505,2.66077 0.38011,3.99111 0.12667,1.29872 0.19002,2.61326 0.19006,3.94362 -4e-5,0.88693 -0.095,1.77384 -0.28509,2.66075 -0.15841,0.85525 -0.25344,1.72632 -0.28508,2.61322 m -21.52355,-15.3468 c -0.12671,0.25343 -0.2059,0.5385 -0.23757,0.85523 -10e-6,0.28511 -10e-6,0.55436 0,0.80773 -10e-6,0.1584 -10e-6,0.33262 0,0.52265 0.0317,0.1584 0.0475,0.31678 0.0476,0.47513 -0.0317,1.90056 -0.0793,3.81693 -0.14254,5.74911 -0.0634,1.90056 -0.12672,3.81693 -0.19006,5.74912 l -0.0475,2.61324 -0.0476,0.66518 v 0.14254 c -1e-5,0.69688 0.2534,1.17201 0.76021,1.4254 0.53848,0.22174 1.10863,0.33261 1.71049,0.3326 1.77381,10e-6 3.2784,-0.15837 4.51377,-0.47514 1.267,-0.31674 2.28062,-0.85522 3.04085,-1.61544 0.79186,-0.76021 1.36203,-1.75799 1.71049,-2.99335 0.38007,-1.23534 0.57013,-2.77159 0.57015,-4.6088 -2e-5,-0.38008 -0.0317,-0.88689 -0.095,-1.52042 -0.0634,-0.6335 -0.1584,-1.28284 -0.28507,-1.94805 -0.12674,-0.66517 -0.30094,-1.28283 -0.52265,-1.85302 -0.19008,-0.60181 -0.42765,-1.04527 -0.7127,-1.33038 -0.60186,-0.57013 -1.31456,-1.04526 -2.13811,-1.4254 -0.82358,-0.38007 -1.69465,-0.68099 -2.61323,-0.90275 -0.88694,-0.25337 -1.80552,-0.42759 -2.75577,-0.52264 -0.91861,-0.095 -1.77384,-0.14252 -2.56573,-0.14254 m 58.91955,25.94229 c -4e-5,0.66518 -0.20592,1.15616 -0.61768,1.47291 -0.38014,0.31675 -0.85527,0.53848 -1.4254,0.66519 -0.53851,0.1267 -1.12451,0.20589 -1.75799,0.23756 -0.60187,0 -1.12451,0 -1.56795,0 l -1.23534,0.0476 c -0.66521,0 -1.45711,-0.0476 -2.37567,-0.14254 -0.91861,-0.095 -1.67882,-0.31675 -2.28064,-0.66519 -0.12673,-0.0634 -0.25343,-0.20589 -0.3801,-0.42762 -0.12673,-0.2534 -0.25343,-0.5068 -0.38011,-0.76021 -0.095,-0.28508 -0.19008,-0.55431 -0.28509,-0.80772 -0.095,-0.25341 -0.17423,-0.44346 -0.23755,-0.57017 -0.31678,-0.69685 -0.66522,-1.34621 -1.04531,-1.94804 -0.34844,-0.63352 -0.74439,-1.26702 -1.18783,-1.90054 -2e-5,-0.0317 -0.0317,-0.12669 -0.095,-0.28508 -0.0634,-0.15837 -0.12672,-0.33259 -0.19004,-0.52265 -0.0634,-0.19005 -0.12673,-0.36425 -0.19006,-0.52264 -0.0317,-0.19005 -0.0634,-0.31675 -0.095,-0.38011 -0.12672,-0.28507 -0.2851,-0.55431 -0.47514,-0.80773 -0.15839,-0.25339 -0.2851,-0.52264 -0.3801,-0.80773 -0.095,-0.31674 -0.17423,-0.6335 -0.23756,-0.95026 -0.0317,-0.31674 -0.12672,-0.6335 -0.28509,-0.95027 -0.15839,-0.2534 -0.38012,-0.45928 -0.66518,-0.61767 -0.25342,-0.19004 -0.52267,-0.28507 -0.80773,-0.28508 -0.25343,10e-6 -0.47515,0.0476 -0.66519,0.14254 -0.5385,10e-6 -1.02947,10e-6 -1.47291,0 -0.44348,-0.0317 -0.82358,10e-6 -1.14032,0.095 -0.31678,0.095 -0.55433,0.30093 -0.7127,0.61767 -0.15839,0.28509 -0.23758,0.76023 -0.23757,1.4254 -1e-5,0.7919 0.0792,1.56795 0.23757,2.32815 0.15837,0.72855 0.23756,1.47293 0.23757,2.23313 -1e-5,0.28509 -0.0159,0.58601 -0.0476,0.90275 -0.0317,0.28509 -0.0475,0.57017 -0.0475,0.85524 -1e-5,0.44347 0.0317,0.9186 0.095,1.4254 0.095,0.47514 0.14252,0.95027 0.14253,1.42541 -1e-5,0.31676 -0.0317,0.57015 -0.095,0.76021 -0.0317,0.15838 -0.095,0.30092 -0.19004,0.42762 -0.095,0.12671 -0.23758,0.23757 -0.42763,0.3326 -0.15839,0.095 -0.36428,0.20588 -0.61767,0.33258 -0.47514,0.25341 -0.90277,0.42763 -1.28286,0.52266 -0.34844,0.095 -0.69688,0.15837 -1.04529,0.19005 -0.34844,0.0634 -0.72855,0.0791 -1.14032,0.0475 -0.38012,0 -0.82358,0 -1.33038,0 -0.85525,0 -1.58379,-0.0475 -2.18561,-0.14253 -0.57017,-0.095 -1.0453,-0.28508 -1.4254,-0.57016 -0.34844,-0.28508 -0.61769,-0.69686 -0.80773,-1.23535 -0.15838,-0.53848 -0.23757,-1.25118 -0.23757,-2.1381 0,-0.57015 0.0158,-1.14032 0.0476,-1.71049 0.0634,-0.57015 0.095,-1.1403 0.095,-1.71047 0,-0.31675 -0.0317,-0.61766 -0.095,-0.90275 -0.0317,-0.31675 -0.0476,-0.64935 -0.0476,-0.99778 0,-1.61545 0.0475,-3.19922 0.14254,-4.75134 0.1267,-1.55209 0.19006,-3.13586 0.19006,-4.75134 0,-0.44344 -0.0158,-0.87105 -0.0475,-1.28286 -0.0317,-0.41176 -0.0317,-0.82354 0,-1.23535 0.0317,-0.3484 0.0634,-0.69684 0.095,-1.04529 0.0634,-0.38008 0.095,-0.74435 0.095,-1.09281 0,-0.44343 -0.0634,-0.88689 -0.19005,-1.33037 -0.095,-0.44343 -0.14255,-0.88689 -0.14255,-1.33038 0,-0.3484 0.0476,-0.68099 0.14255,-0.99778 0.1267,-0.3484 0.19005,-0.69683 0.19005,-1.04529 0,-0.53845 -0.0634,-1.10862 -0.19005,-1.71048 -0.095,-0.60181 -0.17422,-1.17196 -0.23757,-1.71048 -0.0634,-0.44342 -0.0317,-0.91856 0.095,-1.42541 0.15838,-0.50677 0.23757,-0.98191 0.23757,-1.42539 0,-0.3484 -0.0317,-0.66516 -0.095,-0.95027 -0.0634,-0.31672 -0.095,-0.64932 -0.095,-0.99778 0,-0.44342 0.0792,-0.83937 0.23757,-1.18784 0.15837,-0.38006 0.5068,-0.57012 1.04529,-0.57015 0.15838,3e-5 0.28508,0.0159 0.38011,0.0475 0.12669,0.0317 0.26923,0.0634 0.42761,0.095 0.31676,0.0634 0.68103,0.1109 1.09281,0.14253 0.44346,4e-5 0.88691,4e-5 1.33038,0 0.47513,4e-5 0.93442,4e-5 1.37789,0 0.47512,4e-5 0.8869,4e-5 1.23534,0 0.91858,0.0634 1.83717,0.15841 2.75577,0.28508 0.95027,0.095 1.88469,0.14258 2.8033,0.14254 0.47511,4e-5 0.95025,-0.0475 1.4254,-0.14254 0.50679,-0.12667 1.0136,-0.19001 1.52042,-0.19005 0.6335,4e-5 1.25117,0.0634 1.85303,0.19005 0.60181,0.095 1.21949,0.14258 1.85301,0.14254 0.34842,4e-5 0.71268,-0.0317 1.09281,-0.095 0.41176,-0.095 0.79186,-0.14251 1.14032,-0.14255 0.57014,4e-5 1.17197,0.095 1.80551,0.28509 0.63349,0.19009 1.26699,0.44349 1.90054,0.76021 0.66515,0.28511 1.28283,0.61771 1.85301,0.99778 0.57014,0.34846 1.0611,0.6969 1.47292,1.04529 1.33034,1.17204 2.2331,2.59743 2.70826,4.27621 0.4751,1.67883 0.71267,3.37347 0.7127,5.08392 -3e-5,1.90057 -0.39598,3.53185 -1.18783,4.89388 -0.76024,1.3304 -1.93224,2.50239 -3.51599,3.51599 -0.25344,0.1584 -0.53852,0.30094 -0.85524,0.42763 -0.28511,0.1267 -0.57019,0.26924 -0.85524,0.42761 -0.19008,0.12672 -0.28511,0.33261 -0.28508,0.61768 -3e-5,0.60184 0.23754,1.14033 0.7127,1.61545 0.76018,0.7919 1.36202,1.55211 1.80551,2.28064 0.44342,0.69688 0.95024,1.5046 1.52042,2.42318 0.19002,0.34844 0.45927,0.79189 0.80773,1.33038 0.3484,0.53848 0.68099,1.09281 0.99778,1.66296 0.3484,0.57017 0.63348,1.12448 0.85524,1.66297 0.25338,0.53849 0.38008,0.98194 0.38011,1.33038 m -21.19096,-26.84506 c -0.15839,0.12673 -0.41179,0.34847 -0.76021,0.6652 -0.34845,0.31678 -0.52267,0.60185 -0.52265,0.85523 -2e-5,0.53852 0.0158,1.06116 0.0475,1.56795 0.0317,0.47515 0.0475,0.96613 0.0475,1.47291 -1e-5,0.22175 -1e-5,0.55435 0,0.99778 -1e-5,0.4118 0.0158,0.83943 0.0476,1.28286 0.0634,0.44348 0.14253,0.85527 0.23757,1.23535 0.12669,0.38013 0.31673,0.63353 0.57015,0.76022 0.15837,0.095 0.33259,0.14256 0.52265,0.14253 0.19005,-0.0317 0.36425,-0.0317 0.52264,0 0.095,3e-5 0.19005,0.0159 0.28509,0.0475 0.095,2e-5 0.20588,2e-5 0.33259,0 0.7602,2e-5 1.50457,-0.14252 2.23313,-0.42761 0.72852,-0.28507 1.45706,-0.47512 2.18561,-0.57017 0.44345,-0.0634 0.8869,-0.11084 1.33038,-0.14254 0.44343,-0.0317 0.88689,-0.0475 1.33038,-0.0475 0.63348,-0.25338 1.12446,-0.74436 1.4729,-1.47291 0.38009,-0.76019 0.57015,-1.45706 0.57017,-2.09059 -2e-5,-0.15835 -0.0317,-0.39592 -0.095,-0.7127 -0.2851,-1.04527 -0.83942,-1.82132 -1.66297,-2.32816 -0.79191,-0.50677 -1.69466,-0.83937 -2.70826,-0.99778 -1.01363,-0.19002 -2.05893,-0.2692 -3.13589,-0.23757 -1.07698,3e-5 -2.02724,3e-5 -2.85079,0 m 52.85341,29.45829 c -0.91863,0 -1.69468,-0.15838 -2.32816,-0.47513 -0.60186,-0.31676 -1.09283,-0.74438 -1.47291,-1.28287 -0.34846,-0.53847 -0.60187,-1.17199 -0.76021,-1.90053 -0.15841,-0.72854 -0.2376,-1.50459 -0.23757,-2.32815 h -0.23757 c -2e-5,-0.15838 -0.0793,-0.23757 -0.23757,-0.23757 -0.12673,0 -0.25343,0.0317 -0.3801,0.095 -0.12673,0.0317 -0.23759,0.0792 -0.3326,0.14254 -0.19007,0 -0.72855,0 -1.61546,0 -0.85525,-0.0317 -1.78968,-0.0475 -2.80328,-0.0476 -0.98196,10e-6 -1.93223,0.0159 -2.8508,0.0476 -0.91861,0.0317 -1.52044,0.095 -1.80551,0.19005 -0.63353,0.19006 -1.10866,0.47514 -1.4254,0.85524 -0.2851,0.38012 -0.50682,0.80773 -0.66518,1.28286 -0.15839,0.47513 -0.2851,0.96611 -0.38011,1.47292 -0.095,0.5068 -0.25342,0.9661 -0.47513,1.37788 -0.22174,0.41179 -0.57018,0.74438 -1.0453,0.99778 -0.44347,0.28508 -1.09282,0.42762 -1.94805,0.42762 -0.44347,0 -0.87108,-0.0158 -1.28286,-0.0475 -0.41178,-0.0317 -0.83941,-0.0475 -1.28286,-0.0475 -0.28508,0 -0.57016,0.0317 -0.85524,0.095 -0.28509,0.0634 -0.55432,0.095 -0.80773,0.095 -0.44346,0 -0.91859,-0.0317 -1.4254,-0.095 -0.47514,-0.0634 -0.91859,-0.19005 -1.33037,-0.38011 -0.38011,-0.19005 -0.69686,-0.4593 -0.95027,-0.80772 -0.25341,-0.34844 -0.38011,-0.80772 -0.38011,-1.37789 0,-0.57015 0.0792,-1.10864 0.23757,-1.61546 0.19005,-0.53848 0.41178,-1.06113 0.66519,-1.56793 0.2534,-0.50681 0.5068,-0.99778 0.76021,-1.47292 0.28508,-0.5068 0.52264,-1.01361 0.7127,-1.52043 0.0634,-0.19004 0.095,-0.39593 0.095,-0.61767 0.0317,-0.2534 0.0791,-0.49097 0.14254,-0.7127 0.15837,-0.69686 0.31675,-1.44123 0.47514,-2.23312 0.15837,-0.82357 0.38009,-1.56794 0.66518,-2.23314 0.34843,-0.79187 0.68102,-1.56792 0.99778,-2.32816 0.34843,-0.79187 0.69686,-1.58375 1.04529,-2.37566 0.15837,-0.34841 0.23756,-0.74436 0.23757,-1.18783 -1e-5,-0.47512 0.0634,-0.90273 0.19005,-1.28286 0.15838,-0.47512 0.39595,-0.95025 0.7127,-1.42541 0.31675,-0.4751 0.53848,-0.95024 0.66519,-1.4254 0.095,-0.3484 0.17421,-0.72851 0.23757,-1.14032 0.0634,-0.41175 0.14253,-0.8077 0.23756,-1.18783 0.1267,-0.41175 0.26924,-0.8077 0.42763,-1.18784 0.15837,-0.38007 0.36426,-0.71267 0.61766,-0.99778 0.1267,-0.79186 0.34843,-1.55207 0.6652,-2.28064 0.31675,-0.7285 0.69685,-1.42536 1.14032,-2.09058 0.095,-0.57013 0.22172,-1.14029 0.38011,-1.71049 0.15836,-0.57012 0.39592,-1.09276 0.71269,-1.56793 0.31675,-0.47511 0.69685,-0.87105 1.14033,-1.18784 0.47511,-0.31672 1.04527,-0.50677 1.71047,-0.57016 0.72853,-0.095 1.29869,-0.17418 1.71049,-0.23756 0.44343,-0.0949 0.85522,-0.14251 1.23535,-0.14254 0.60181,3e-5 1.29868,0.0793 2.09058,0.23755 0.82354,0.12675 1.61544,0.34847 2.37567,0.6652 0.76019,0.31679 1.42538,0.72858 1.99556,1.23535 0.60182,0.47517 0.99775,1.06116 1.18783,1.75799 0.38009,1.52046 0.8077,2.99337 1.28286,4.41874 0.47512,1.42543 0.82354,2.94586 1.0453,4.56128 0.2217,0.34846 0.49095,0.82359 0.80772,1.4254 0.31673,0.60186 0.63349,1.23537 0.95028,1.90054 0.34839,0.66521 0.64931,1.29872 0.90275,1.90053 0.28504,0.60185 0.4751,1.07699 0.57015,1.42541 0.095,0.34844 0.17419,0.69687 0.23757,1.04529 0.095,0.31677 0.19003,0.64936 0.28509,0.99778 0.0949,0.34845 0.28504,0.74439 0.57015,1.18783 0.31673,0.4118 0.5543,0.7919 0.71271,1.14032 0.12666,0.31678 0.22169,0.6652 0.28508,1.0453 0.095,0.38012 0.17418,0.76022 0.23756,1.14032 0.0949,0.38012 0.19002,0.76022 0.28508,1.14032 0.095,0.34844 0.2217,0.66519 0.38011,0.95026 0.15834,0.2851 0.39591,0.74438 0.7127,1.37789 0.31672,0.60184 0.63347,1.2512 0.95026,1.94805 0.3484,0.69687 0.63349,1.37789 0.85525,2.04307 0.25336,0.63352 0.38007,1.12449 0.3801,1.47292 -3e-5,0.38011 -0.1109,0.71271 -0.33258,0.99778 -0.22178,0.28508 -0.50685,0.55432 -0.85525,0.80773 -0.31679,0.22172 -0.66522,0.42762 -1.0453,0.61767 -0.34846,0.15838 -0.64937,0.31676 -0.90275,0.47514 -0.15841,0 -0.45933,0.0159 -0.90275,0.0475 -0.41182,0.0317 -0.87111,0.0634 -1.37789,0.095 -0.47517,0 -0.93445,0.0317 -1.37789,0.095 -0.41181,0.0317 -0.68105,0.0634 -0.80772,0.095 m -11.11812,-26.41742 c -0.19008,0.63354 -0.34846,1.23537 -0.47514,1.80551 -0.12672,0.57018 -0.25343,1.17202 -0.38011,1.8055 -0.12672,0.63354 -0.30094,1.28288 -0.52264,1.94806 -0.22175,0.63352 -0.44348,1.26704 -0.6652,1.90053 -0.22174,0.63352 -0.42763,1.28288 -0.61767,1.94804 -0.15839,0.63353 -0.23758,1.28288 -0.23756,1.94805 -2e-5,0.25342 0.095,0.45931 0.28508,0.61768 0.19004,0.12671 0.41176,0.22174 0.66518,0.28508 0.25339,0.0634 0.5068,0.11088 0.76022,0.14254 0.28506,10e-6 0.52263,10e-6 0.7127,0 0.25339,10e-6 0.57014,10e-6 0.95026,0 0.3801,-0.0317 0.77603,-0.0791 1.18784,-0.14254 0.41176,-0.0634 0.79186,-0.14253 1.14032,-0.23757 0.34841,-0.12669 0.61765,-0.28507 0.80772,-0.47514 0.0317,2e-5 0.0475,-0.0158 0.0476,-0.0475 -2e-5,-0.0317 -2e-5,-0.0475 0,-0.0476 -2e-5,-0.095 -0.0476,-0.2217 -0.14255,-0.3801 -0.0634,-0.19004 -0.12672,-0.31674 -0.19005,-0.38011 -0.2851,-0.63349 -0.52267,-1.31452 -0.7127,-2.04307 -0.1584,-0.72853 -0.31678,-1.44122 -0.47513,-2.1381 -0.095,-0.41176 -0.25343,-0.80771 -0.47514,-1.18783 -0.19008,-0.38009 -0.31677,-0.7602 -0.3801,-1.14032 l -0.6652,-3.65853 c -0.0317,-0.095 -0.12672,-0.19003 -0.28507,-0.28509 -0.12672,-0.12667 -0.23758,-0.20586 -0.33259,-0.23756 m 36.8748,-2.56572 0.42763,2.28064 -0.42763,2.56572 c 0.12669,0.4118 0.20588,1.15618 0.23757,2.23312 0.0634,1.04533 0.095,2.16981 0.095,3.37345 0.0317,1.17201 0.0317,2.29651 0,3.37345 -2e-5,1.07699 -2e-5,1.85304 0,2.32815 -2e-5,0.50683 -0.0476,1.02948 -0.14254,1.56795 -0.0634,0.50682 -0.12672,1.01363 -0.19005,1.52043 -0.0317,0.34843 -0.0317,0.76022 0,1.23535 0.0634,0.47513 0.12668,0.96611 0.19005,1.4729 0.095,0.50682 0.1742,1.01364 0.23757,1.52044 0.095,0.50681 0.14252,0.9661 0.14254,1.37789 -2e-5,1.10864 -0.25343,1.94804 -0.76021,2.51821 -0.50683,0.57015 -1.29872,0.9661 -2.37567,1.18783 v 0.23756 c -0.82359,0 -1.64715,0.0475 -2.4707,0.14254 -0.82357,0.095 -1.64714,0.14254 -2.47069,0.14254 -0.85525,0 -1.53628,-0.30092 -2.04307,-0.90275 -0.47515,-0.60184 -0.71272,-1.31454 -0.7127,-2.1381 -2e-5,-0.50681 0.0158,-1.01361 0.0475,-1.52043 0.0317,-0.53848 0.0475,-1.07697 0.0475,-1.61545 -0.0317,-0.34843 -0.0793,-0.7127 -0.14254,-1.09282 -0.0317,-0.41177 -0.0476,-0.79188 -0.0476,-1.14032 -10e-6,-0.50679 0.0634,-1.02944 0.19006,-1.56793 0.15836,-0.53848 0.23755,-1.06112 0.23756,-1.56795 -1e-5,-0.57014 -0.0476,-1.17198 -0.14255,-1.8055 -0.0634,-0.6335 -0.12671,-1.23533 -0.19004,-1.80551 -0.0634,-0.47512 -0.0317,-0.98193 0.095,-1.52042 0.15836,-0.53848 0.23755,-1.06112 0.23756,-1.56795 -10e-6,-0.44343 -0.0476,-0.90273 -0.14255,-1.37789 -0.0634,-0.50678 -0.1267,-0.98192 -0.19004,-1.42539 -0.0634,-0.34842 -0.0634,-0.8869 0,-1.61546 0.0634,-0.72851 0.14252,-1.48873 0.23756,-2.28064 0.095,-0.82354 0.19004,-1.5996 0.28508,-2.32816 0.095,-0.7285 0.17421,-1.28283 0.23757,-1.66297 -0.50682,4e-5 -0.96611,0.0634 -1.37789,0.19006 -0.38012,0.12673 -0.76022,0.26927 -1.14032,0.42762 -0.38012,0.12673 -0.77606,0.25343 -1.18783,0.38011 -0.38011,0.095 -0.82357,0.14257 -1.33038,0.14253 -0.50681,4e-5 -1.02946,-0.0317 -1.56793,-0.095 -0.5385,-0.095 -1.0453,-0.25337 -1.52044,-0.47513 -0.44346,-0.25338 -0.80772,-0.57014 -1.0928,-0.95027 -0.28509,-0.41176 -0.42763,-0.9344 -0.42763,-1.56794 v -2.23313 c 0,-0.98191 0.0476,-1.75796 0.14254,-2.32815 0.12671,-0.57013 0.34844,-1.02943 0.6652,-1.37789 0.31674,-0.34839 0.72853,-0.61764 1.23535,-0.80773 0.53847,-0.22169 1.2195,-0.45925 2.04307,-0.71269 0.41177,0.0634 0.93442,0.14257 1.56793,0.23755 0.66519,0.095 1.33037,0.1901 1.99557,0.28509 0.69685,0.0634 1.36203,0.12674 1.99556,0.19005 0.6335,0.0317 1.15615,0.0317 1.56794,0 0.47512,-0.0632 0.9661,-0.12667 1.47291,-0.19005 0.53848,-0.0634 1.04528,-0.0949 1.52043,-0.095 0.72852,4e-5 1.4729,0.0793 2.23313,0.23757 0.79187,0.12674 1.55209,0.19009 2.28064,0.19005 1.10863,4e-5 2.20143,-0.0317 3.27842,-0.095 1.07695,-0.095 2.16975,-0.14251 3.27842,-0.14255 0.69684,4e-5 1.28284,0.0159 1.758,0.0475 0.4751,0.0317 0.85521,0.15841 1.14032,0.38011 0.28505,0.19009 0.4751,0.50685 0.57016,0.95026 0.12667,0.4435 0.19002,1.06118 0.19005,1.85303 -3e-5,0.19009 -3e-5,0.38013 0,0.57016 -3e-5,0.19008 -0.0159,0.38014 -0.0475,0.57016 0.0634,0.28512 0.095,0.60186 0.095,0.95027 -3e-5,0.31679 -3e-5,0.63353 0,0.95026 -3e-5,0.47517 -0.19009,0.93446 -0.57016,1.37789 -0.34846,0.44349 -0.6969,0.82359 -1.04529,1.14032 -0.98197,3e-5 -1.96392,-0.11084 -2.94584,-0.33259 -0.98196,-0.22171 -1.9639,-0.33256 -2.94582,-0.3326 -0.79191,4e-5 -1.56796,0.17424 -2.32816,0.52265 m 44.63361,17.34238 c -3e-5,0.22174 -0.0476,0.53849 -0.14254,0.95026 -0.0634,0.38012 -0.15841,0.7919 -0.28508,1.23535 -0.095,0.44346 -0.20593,0.87109 -0.33259,1.28286 -0.12673,0.38011 -0.2376,0.68103 -0.3326,0.90276 -0.28511,0.60183 -0.69689,1.20367 -1.23534,1.8055 -0.53852,0.57017 -1.04533,1.07697 -1.52044,1.52043 -0.19008,0.19006 -0.42764,0.41179 -0.71269,0.66518 -0.25344,0.22174 -0.53852,0.45931 -0.85524,0.71271 -0.31678,0.25341 -0.63354,0.47513 -0.95027,0.66518 -0.2851,0.19006 -0.55435,0.3326 -0.80773,0.42763 -0.88694,0.28508 -1.75801,0.57015 -2.61323,0.85523 -0.82359,0.28509 -1.66299,0.60185 -2.51821,0.95027 -0.76024,0 -1.67883,-0.0159 -2.75578,-0.0475 -1.04531,-0.0317 -2.13811,-0.095 -3.27842,-0.19006 -1.10865,-0.095 -2.18562,-0.25341 -3.2309,-0.47514 -1.01363,-0.22173 -1.85304,-0.52264 -2.51821,-0.90275 -0.7919,-0.44346 -1.55212,-1.01361 -2.28064,-1.71048 -0.69687,-0.69686 -1.36206,-1.37788 -1.99556,-2.04308 -0.50682,-0.53847 -0.98195,-1.12447 -1.42541,-1.75799 -0.41178,-0.63351 -0.79188,-1.28285 -1.14032,-1.94805 0,-0.6335 0,-1.23533 0,-1.8055 0,-0.60183 -0.0317,-1.2195 -0.095,-1.85302 -0.0317,-0.0634 -0.0792,-0.23756 -0.14254,-0.52265 -0.0317,-0.28507 -0.0634,-0.58598 -0.095,-0.90275 -0.0317,-0.34843 -0.0634,-0.66517 -0.095,-0.95027 0,-0.28507 0,-0.45929 0,-0.52265 0,-0.72852 0.0475,-1.47289 0.14254,-2.23313 0.095,-0.76019 0.14254,-1.5204 0.14254,-2.28064 0,-0.53846 -0.0317,-1.06111 -0.095,-1.56793 -0.0317,-0.53847 -0.0476,-1.07695 -0.0476,-1.61546 0,-0.88689 0.0159,-1.75797 0.0476,-2.61324 0.0634,-0.88689 0.095,-1.7738 0.095,-2.66074 0,-1.29867 -0.0634,-2.5657 -0.19005,-3.80107 -0.095,-1.267 -0.15838,-2.54986 -0.19006,-3.84859 0.22173,-0.6018 0.586,-1.04526 1.09281,-1.33038 0.53848,-0.28503 1.12448,-0.45925 1.758,-0.52264 0.66518,-0.095 1.33037,-0.12666 1.99556,-0.095 0.66517,0.0317 1.26701,0.0476 1.8055,0.0475 0.60183,5e-5 1.17199,5e-5 1.71049,0 0.53847,5e-5 0.99776,0.0793 1.37789,0.23757 0.41176,0.15841 0.72852,0.4435 0.95026,0.85525 0.22172,0.38013 0.33259,0.96613 0.3326,1.75799 -10e-6,0.63355 -0.0793,1.28289 -0.23757,1.94804 -0.12672,0.63355 -0.22174,1.26705 -0.28508,1.90054 -0.0634,0.63354 -0.095,1.28289 -0.095,1.94805 -1e-5,0.66522 -1e-5,1.31456 0,1.94804 -1e-5,0.79192 0.0158,1.58381 0.0475,2.37567 0.0317,0.76024 0.0475,1.53629 0.0476,2.32815 -2e-5,0.72857 -0.0634,1.47294 -0.19006,2.23313 -0.12671,0.72856 -0.19007,1.4571 -0.19005,2.18562 -2e-5,0.50683 0.0317,1.06114 0.095,1.66297 0.095,0.57017 0.22172,1.09282 0.38011,1.56793 -0.0634,0.38013 -0.0634,0.80775 0,1.28286 0.0634,0.47515 0.1267,0.90278 0.19006,1.28287 0.41177,0.5385 0.79187,1.06114 1.14032,1.56794 0.3801,0.47514 0.79187,0.90276 1.23535,1.28286 0.44343,0.34844 0.93441,0.63352 1.47291,0.85524 0.53847,0.22174 1.18781,0.3326 1.94805,0.3326 1.07695,0 1.93219,-0.2534 2.56572,-0.76022 0.66517,-0.5068 1.15614,-1.14031 1.47291,-1.90053 0.34841,-0.79188 0.57014,-1.64713 0.66519,-2.56573 0.12668,-0.95025 0.19004,-1.853 0.19006,-2.70825 -2e-5,-0.41177 -2e-5,-0.82356 0,-1.23535 -2e-5,-0.44345 -0.0317,-0.87106 -0.095,-1.28286 -0.0634,-0.34842 -0.14256,-0.69684 -0.23757,-1.0453 -0.0634,-0.38009 -0.095,-0.74436 -0.095,-1.0928 -2e-5,-0.72853 0.0158,-1.4729 0.0476,-2.23313 0.0634,-0.7602 0.095,-1.50457 0.095,-2.23313 -3e-5,-0.0317 -0.0159,-0.11084 -0.0476,-0.23757 -0.0317,-0.15835 -0.0634,-0.31673 -0.095,-0.47513 -0.0317,-0.19004 -0.0793,-0.3484 -0.14254,-0.47513 -0.0317,-0.15836 -0.0476,-0.26922 -0.0475,-0.3326 0.095,-0.6018 0.14252,-1.20364 0.14254,-1.80551 -2e-5,-0.82354 -0.0317,-1.61542 -0.095,-2.37566 -0.0634,-0.79187 -0.095,-1.58375 -0.095,-2.37567 -3e-5,-1.36202 0.11084,-2.32812 0.33259,-2.89832 0.22171,-0.6018 0.57013,-0.99774 1.04529,-1.18783 0.47511,-0.22169 1.07695,-0.34839 1.80551,-0.3801 0.72852,-0.0634 1.59959,-0.26921 2.61324,-0.61768 0.41175,3e-5 0.90272,0.0317 1.47291,0.095 0.57013,0.0317 1.12446,0.12674 1.66296,0.28509 0.53846,0.15841 0.99775,0.39598 1.37789,0.71269 0.38008,0.3168 0.57013,0.76026 0.57017,1.33038 -4e-5,0.34847 -0.0476,0.6969 -0.14254,1.04529 -0.095,0.31679 -0.14257,0.64939 -0.14254,0.99778 -3e-5,0.12674 0.0158,0.20593 0.0475,0.23757 -4e-5,0.53852 0.0317,1.06116 0.095,1.56794 0.0634,0.47516 0.0949,0.98198 0.095,1.52043 -5e-5,0.44349 -0.095,0.90279 -0.28509,1.37789 -0.15841,0.44348 -0.2376,0.88695 -0.23757,1.33037 -3e-5,0.38014 0.0317,0.77607 0.095,1.18784 0.0634,0.38013 0.095,0.76023 0.095,1.14032 -3e-5,0.82358 -0.0317,1.64715 -0.095,2.47069 -0.0634,0.82358 -0.12673,1.64716 -0.19005,2.4707 -0.0634,0.72855 -0.0159,1.58379 0.14254,2.56571 0.19002,0.95029 0.28505,1.82137 0.28508,2.61324 -3e-5,0.4118 -0.0317,0.82359 -0.095,1.23535 -0.0317,0.38012 -0.0476,0.76022 -0.0475,1.14032 -3e-5,0.25342 0.0158,0.50682 0.0475,0.76021 0.0634,0.25342 0.095,0.50682 0.095,0.76022 m 37.61054,9.02754 c -5e-5,0.66518 -0.20593,1.15616 -0.61768,1.47291 -0.38014,0.31675 -0.85527,0.53848 -1.4254,0.66519 -0.53851,0.1267 -1.12452,0.20589 -1.75799,0.23756 -0.60187,0 -1.12452,0 -1.56795,0 l -1.23535,0.0476 c -0.66521,0 -1.45709,-0.0476 -2.37567,-0.14254 -0.91861,-0.095 -1.67882,-0.31676 -2.28064,-0.66519 -0.12672,-0.0634 -0.25342,-0.20589 -0.3801,-0.42762 -0.12672,-0.25341 -0.25343,-0.5068 -0.38011,-0.76021 -0.095,-0.28508 -0.19007,-0.55432 -0.28508,-0.80772 -0.095,-0.25341 -0.17424,-0.44346 -0.23756,-0.57017 -0.31678,-0.69685 -0.66521,-1.34621 -1.04529,-1.94804 -0.34846,-0.63352 -0.7444,-1.26702 -1.18784,-1.90055 -2e-5,-0.0317 -0.0317,-0.12668 -0.095,-0.28507 -0.0634,-0.15837 -0.12674,-0.33259 -0.19006,-0.52265 -0.0634,-0.19005 -0.12672,-0.36426 -0.19005,-0.52264 -0.0317,-0.19005 -0.0634,-0.31675 -0.095,-0.38011 -0.12672,-0.28507 -0.2851,-0.55432 -0.47514,-0.80773 -0.1584,-0.25339 -0.2851,-0.52264 -0.3801,-0.80773 -0.095,-0.31674 -0.17423,-0.6335 -0.23757,-0.95026 -0.0317,-0.31675 -0.12672,-0.6335 -0.28508,-0.95027 -0.1584,-0.2534 -0.38013,-0.45929 -0.66518,-0.61768 -0.25343,-0.19003 -0.52267,-0.28506 -0.80774,-0.28507 -0.25342,10e-6 -0.47514,0.0476 -0.66518,0.14254 -0.5385,10e-6 -1.02947,10e-6 -1.47292,0 -0.44346,-0.0317 -0.82357,10e-6 -1.14032,0.095 -0.31677,0.095 -0.55433,0.30092 -0.71269,0.61767 -0.1584,0.28509 -0.23759,0.76022 -0.23757,1.4254 -2e-5,0.7919 0.0792,1.56794 0.23757,2.32815 0.15836,0.72855 0.23755,1.47293 0.23756,2.23313 -1e-5,0.28509 -0.0159,0.586 -0.0475,0.90275 -0.0317,0.28509 -0.0476,0.57017 -0.0475,0.85524 -2e-5,0.44347 0.0317,0.91859 0.095,1.4254 0.095,0.47514 0.14253,0.95027 0.14255,1.42541 -2e-5,0.31676 -0.0317,0.57015 -0.095,0.76021 -0.0317,0.15838 -0.095,0.30092 -0.19006,0.42762 -0.095,0.12671 -0.23758,0.23757 -0.42761,0.33259 -0.15839,0.095 -0.36428,0.20589 -0.61768,0.33259 -0.47514,0.25341 -0.90276,0.42763 -1.28286,0.52266 -0.34844,0.095 -0.69687,0.15837 -1.0453,0.19005 -0.34843,0.0634 -0.72854,0.0791 -1.14032,0.0475 -0.3801,0 -0.82356,0 -1.33037,0 -0.85525,0 -1.58378,-0.0475 -2.18561,-0.14254 -0.57016,-0.095 -1.0453,-0.28507 -1.4254,-0.57015 -0.34844,-0.28508 -0.61768,-0.69687 -0.80773,-1.23535 -0.15838,-0.53849 -0.23756,-1.25118 -0.23756,-2.1381 0,-0.57016 0.0158,-1.14032 0.0475,-1.71049 0.0634,-0.57015 0.095,-1.14031 0.095,-1.71047 0,-0.31675 -0.0317,-0.61767 -0.095,-0.90275 -0.0317,-0.31675 -0.0475,-0.64935 -0.0475,-0.99779 0,-1.61544 0.0475,-3.19922 0.14253,-4.75133 0.1267,-1.55209 0.19005,-3.13587 0.19006,-4.75134 -1e-5,-0.44344 -0.0159,-0.87105 -0.0475,-1.28286 -0.0317,-0.41177 -0.0317,-0.82354 0,-1.23535 0.0317,-0.34841 0.0634,-0.69684 0.095,-1.04529 0.0634,-0.38009 0.095,-0.74435 0.095,-1.09281 -10e-6,-0.44344 -0.0634,-0.88689 -0.19006,-1.33037 -0.095,-0.44343 -0.14254,-0.88689 -0.14254,-1.33038 0,-0.3484 0.0475,-0.68099 0.14254,-0.99778 0.1267,-0.34841 0.19005,-0.69683 0.19006,-1.04529 -10e-6,-0.53845 -0.0634,-1.10862 -0.19006,-1.71049 -0.095,-0.6018 -0.17422,-1.17195 -0.23757,-1.71047 -0.0634,-0.44342 -0.0317,-0.91856 0.095,-1.42541 0.15838,-0.50677 0.23757,-0.98191 0.23757,-1.4254 0,-0.34839 -0.0317,-0.66515 -0.095,-0.95026 -0.0634,-0.31672 -0.095,-0.64932 -0.095,-0.99778 0,-0.44342 0.0791,-0.83937 0.23757,-1.18784 0.15837,-0.38006 0.5068,-0.57012 1.0453,-0.57015 0.15836,3e-5 0.28506,0.0159 0.3801,0.0475 0.1267,0.0317 0.26924,0.0634 0.42762,0.095 0.31675,0.0634 0.68102,0.1109 1.09281,0.14254 0.44345,3e-5 0.8869,3e-5 1.33037,0 0.47512,3e-5 0.93442,3e-5 1.37789,0 0.47512,3e-5 0.88691,3e-5 1.23535,0 0.91858,0.0634 1.83717,0.15841 2.75577,0.28508 0.95025,0.095 1.88468,0.14258 2.80329,0.14254 0.47511,4e-5 0.95025,-0.0475 1.42539,-0.14254 0.5068,-0.12667 1.01361,-0.19002 1.52044,-0.19005 0.63348,3e-5 1.25116,0.0634 1.85301,0.19005 0.60182,0.095 1.21949,0.14258 1.85303,0.14254 0.3484,4e-5 0.71268,-0.0317 1.09281,-0.095 0.41175,-0.095 0.79186,-0.14251 1.14032,-0.14255 0.57013,4e-5 1.17197,0.095 1.8055,0.28509 0.63349,0.19009 1.267,0.44348 1.90054,0.76021 0.66516,0.28511 1.28283,0.61771 1.85302,0.99778 0.57013,0.34846 1.0611,0.6969 1.47292,1.04529 1.33033,1.17203 2.23309,2.59743 2.70825,4.2762 0.47511,1.67884 0.71267,3.37348 0.71271,5.08393 -4e-5,1.90057 -0.39598,3.53185 -1.18784,4.89388 -0.76025,1.3304 -1.93224,2.50239 -3.51599,3.51599 -0.25343,0.1584 -0.53851,0.30094 -0.85523,0.42762 -0.28511,0.12671 -0.5702,0.26925 -0.85525,0.42762 -0.19008,0.12672 -0.28511,0.33261 -0.28507,0.61767 -4e-5,0.60185 0.23753,1.14033 0.71269,1.61546 0.76018,0.79189 1.36203,1.55211 1.80551,2.28064 0.44343,0.69687 0.95023,1.5046 1.52043,2.42318 0.19002,0.34844 0.45927,0.79189 0.80772,1.33038 0.3484,0.53848 0.681,1.09281 0.99779,1.66296 0.34839,0.57017 0.63347,1.12448 0.85524,1.66297 0.25336,0.53848 0.38006,0.98194 0.3801,1.33038 M 453.2625,741.73447 c -0.15839,0.12673 -0.41179,0.34847 -0.76021,0.6652 -0.34844,0.31677 -0.52266,0.60185 -0.52265,0.85523 -1e-5,0.53851 0.0158,1.06116 0.0476,1.56794 0.0317,0.47516 0.0475,0.96614 0.0475,1.47292 -1e-5,0.22175 -1e-5,0.55435 0,0.99778 -1e-5,0.4118 0.0158,0.83943 0.0475,1.28286 0.0634,0.44348 0.14253,0.85527 0.23757,1.23535 0.12668,0.38013 0.31674,0.63353 0.57016,0.76021 0.15836,0.095 0.33258,0.14256 0.52265,0.14254 0.19003,-0.0317 0.36425,-0.0317 0.52264,0 0.095,2e-5 0.19004,0.0159 0.28508,0.0475 0.095,2e-5 0.20588,2e-5 0.3326,0 0.7602,2e-5 1.50457,-0.14252 2.23313,-0.42762 0.72852,-0.28506 1.45705,-0.47511 2.18561,-0.57016 0.44343,-0.0634 0.8869,-0.11084 1.33038,-0.14254 0.44343,-0.0317 0.88689,-0.0475 1.33036,-0.0475 0.6335,-0.25338 1.12446,-0.74436 1.47292,-1.47291 0.38009,-0.7602 0.57013,-1.45706 0.57016,-2.0906 -3e-5,-0.15834 -0.0317,-0.39591 -0.095,-0.71269 -0.28511,-1.04527 -0.83943,-1.82132 -1.66297,-2.32816 -0.79191,-0.50677 -1.69467,-0.83937 -2.70827,-0.99778 -1.01363,-0.19002 -2.05893,-0.26921 -3.13588,-0.23757 -1.07698,3e-5 -2.02725,3e-5 -2.8508,0 m 52.52082,29.31574 h -3.84859 c -0.6652,0 -1.34623,-0.0317 -2.04307,-0.095 -0.66521,-0.095 -1.34623,-0.14253 -2.04307,-0.14253 -0.34846,0 -0.85527,0 -1.52043,0 -0.66521,-0.0317 -1.34623,-0.0317 -2.04308,0 -0.69688,0.0317 -1.36206,0.0791 -1.99555,0.14253 -0.60186,0.0634 -1.02948,0.17422 -1.28287,0.3326 -0.63353,0 -1.31455,-0.0159 -2.04308,-0.0475 -0.69687,-0.0317 -1.36205,0.0158 -1.99556,0.14253 -0.63351,0.1267 -1.2987,0.22173 -1.99555,0.28508 -0.69688,0.095 -1.36206,0.14254 -1.99556,0.14254 -1.52044,0 -2.61324,-0.44346 -3.27842,-1.33037 -0.6652,-0.88692 -0.9978,-2.04307 -0.99779,-3.46848 -1e-5,-1.14031 0.11086,-2.2648 0.33259,-3.37345 0.22173,-1.14031 0.3326,-2.26479 0.3326,-3.37344 0,-0.31675 -0.0317,-0.6335 -0.095,-0.95027 -0.0634,-0.31675 -0.11087,-0.6335 -0.14254,-0.95027 -0.0317,-0.47512 -0.0317,-0.95025 0,-1.4254 0.0317,-0.50679 0.0317,-0.99776 0,-1.47292 0,-0.25338 -0.0317,-0.50678 -0.095,-0.76021 -0.0634,-0.25339 -0.095,-0.50678 -0.095,-0.76021 -10e-6,-0.82355 0.0475,-1.63127 0.14254,-2.42318 0.1267,-0.82354 0.19005,-1.64711 0.19005,-2.4707 0,-0.34841 -0.0317,-0.68099 -0.095,-0.99777 -0.0317,-0.34842 -0.0475,-0.69684 -0.0475,-1.0453 0,-0.82354 0.0317,-1.66295 0.095,-2.51821 0.095,-0.85521 0.14254,-1.69461 0.14254,-2.51821 0,-1.07694 -0.0475,-2.13807 -0.14254,-3.18339 -0.095,-1.07694 -0.14255,-2.15391 -0.14254,-3.23091 -1e-5,-0.28505 0.11086,-0.53845 0.33259,-0.76022 0.22173,-0.25336 0.47513,-0.45925 0.76021,-0.61767 0.31676,-0.15834 0.63352,-0.30088 0.95027,-0.42762 0.34843,-0.12666 0.64935,-0.23752 0.90275,-0.33259 0.2534,4e-5 0.52265,4e-5 0.80774,0 0.28506,-0.0317 0.55431,-0.0475 0.80772,-0.0475 0.85523,4e-5 1.69464,0.0634 2.51821,0.19005 0.82355,0.12674 1.64711,0.26928 2.4707,0.42762 l 0.33258,-0.0476 1.56795,-0.0475 c 2.1856,-0.0949 4.37121,-0.1425 6.55684,-0.14254 0.31674,4e-5 0.63349,0.0317 0.95026,0.095 0.31674,0.0317 0.6335,0.0793 0.95028,0.14254 -0.0317,4e-5 0.0158,4e-5 0.14254,0 0.12667,-0.0317 0.2217,-0.0634 0.28507,-0.095 l 0.61768,-0.0475 2.32816,-0.28509 c 0.15834,-0.0317 0.31672,-0.0475 0.47512,-0.0475 0.19003,4e-5 0.36425,4e-5 0.52266,0 0.34839,4e-5 0.71267,0.0317 1.0928,0.095 0.38008,0.0634 0.74435,0.19009 1.09281,0.38011 0.12668,0.095 0.25338,0.41182 0.38011,0.95026 0.12667,0.53853 0.22169,1.14036 0.28507,1.80551 0.095,0.66522 0.15835,1.29874 0.19006,1.90054 0.0634,0.60186 0.095,0.99781 0.095,1.18783 -2e-5,1.077 -0.30094,1.85305 -0.90275,2.32816 -0.57019,0.44349 -1.36207,0.66521 -2.37567,0.66518 -0.91861,3e-5 -1.82136,-0.0792 -2.70826,-0.23757 -0.85526,-0.15834 -1.74217,-0.23753 -2.66074,-0.23756 -0.91862,3e-5 -1.85305,-0.0317 -2.80329,-0.095 -0.91861,-0.095 -1.8372,-0.14252 -2.75577,-0.14255 -0.53851,3e-5 -1.10866,0.0793 -1.71049,0.23756 -0.57017,0.12673 -1.02947,0.42765 -1.37789,0.90276 -0.095,3e-5 -0.14255,0.0476 -0.14254,0.14255 -1e-5,0.0317 0.0158,0.0634 0.0475,0.095 0.0317,0.31678 0.0475,0.71273 0.0476,1.18784 -1e-5,0.47515 0.0317,0.93445 0.095,1.37788 0.095,0.44348 0.2534,0.82359 0.47514,1.14032 0.22172,0.31678 0.58598,0.47516 1.09281,0.47514 0.69684,2e-5 1.37787,-0.0634 2.04307,-0.19006 0.69685,-0.15836 1.39371,-0.23755 2.0906,-0.23757 0.69684,2e-5 1.37786,0.0317 2.04307,0.095 0.66516,0.0317 1.34618,0.0317 2.04307,0 0.63349,-0.0317 1.25117,-0.0791 1.85302,-0.14254 0.63349,-0.095 1.267,-0.14251 1.90054,-0.14253 0.82354,2e-5 1.47288,0.17424 1.94805,0.52264 0.50677,0.31678 0.76018,0.91861 0.76021,1.8055 -3e-5,0.12672 -0.0159,0.25343 -0.0476,0.38011 -3e-5,0.095 -3e-5,0.20591 0,0.3326 -0.0317,0.53851 -0.0476,1.14034 -0.0475,1.8055 -3e-5,0.63354 -0.0793,1.23537 -0.23756,1.80551 -0.12674,0.5385 -0.38014,0.9978 -0.76022,1.37788 -0.38014,0.38013 -0.96613,0.57018 -1.75799,0.57017 -1.01365,1e-5 -2.02727,0.0317 -3.04086,0.095 -1.01364,0.0317 -2.02726,0.0476 -3.04085,0.0475 -0.47516,2e-5 -1.10867,-0.12669 -1.90053,-0.38011 -0.76024,-0.28507 -1.50461,-0.42761 -2.23313,-0.42762 -0.25342,10e-6 -0.49099,0.0159 -0.71271,0.0475 -0.22174,0.0317 -0.4593,0.095 -0.7127,0.19006 -0.60185,10e-6 -1.0453,0.095 -1.33037,0.28508 -0.2851,0.15839 -0.49099,0.39595 -0.61767,0.71269 -0.095,0.2851 -0.14255,0.64937 -0.14254,1.09281 0.0317,0.4118 0.0475,0.85525 0.0475,1.33038 -10e-6,0.41179 -10e-6,0.83941 0,1.28286 -10e-6,0.44346 0.0475,0.83941 0.14254,1.18783 0.12669,0.34845 0.31675,0.64936 0.57017,0.90276 0.28506,0.22173 0.69684,0.3326 1.23535,0.33259 0.66517,10e-6 1.36202,-0.0634 2.09058,-0.19005 0.72852,-0.1267 1.45707,-0.22173 2.18562,-0.28509 1.17197,-0.0634 2.32813,-0.095 3.46847,-0.095 1.1403,-0.0317 2.29646,-0.0792 3.46848,-0.14255 0.53845,-0.0317 1.0611,-0.0634 1.56794,-0.095 0.53846,-0.0634 1.07693,-0.095 1.61545,-0.095 0.82353,10e-6 1.50456,0.15839 2.04307,0.47514 0.53846,0.31675 0.8077,0.93443 0.80774,1.85301 -4e-5,0.34845 -0.0476,0.68104 -0.14254,0.99778 -0.0634,0.28509 -0.095,0.60185 -0.095,0.95027 -3e-5,0.44347 0.0317,0.87109 0.095,1.28286 0.0634,0.41179 0.0949,0.83941 0.095,1.28286 -3e-5,0.63352 -0.22176,1.25119 -0.66519,1.85303 -0.4118,0.60183 -0.96613,0.90275 -1.66296,0.90275 m 56.18232,-13.06618 c -0.34847,0.82359 -0.66522,1.64715 -0.95027,2.4707 -0.28511,0.82357 -0.58602,1.64714 -0.90275,2.4707 -0.095,0.28509 -0.31679,0.64935 -0.66518,1.0928 -0.34847,0.44347 -0.72858,0.90276 -1.14032,1.37789 -0.38014,0.44346 -0.77609,0.87108 -1.18784,1.28286 -0.41181,0.41178 -0.72857,0.72854 -0.95027,0.95027 -0.25344,0.25341 -0.69689,0.53848 -1.33037,0.85524 -0.63354,0.28508 -1.31456,0.57017 -2.04308,0.85524 -0.72856,0.2534 -1.44125,0.47514 -2.1381,0.66519 -0.6652,0.19006 -1.17202,0.28507 -1.52042,0.28507 -0.9503,0 -1.86889,0.095 -2.75578,0.28508 -0.88693,0.15838 -1.78969,0.26925 -2.70826,0.3326 -0.50682,0.0634 -0.9978,0.0792 -1.47291,0.0475 -0.47515,-0.0634 -0.95029,-0.0317 -1.42541,0.095 -1.77384,0.3801 -3.62686,0.57016 -5.55906,0.57016 -0.50682,0 -1.09281,-0.0317 -1.758,-0.095 -0.66518,-0.0634 -1.2987,-0.20589 -1.90053,-0.42762 -0.57017,-0.22172 -1.06113,-0.53848 -1.47291,-0.95027 -0.41178,-0.41177 -0.61768,-0.98194 -0.61767,-1.71048 -1e-5,-0.2534 0.0317,-0.50681 0.095,-0.76022 0.0634,-0.28506 0.095,-0.55431 0.095,-0.80772 0,-0.2534 -0.0317,-0.49096 -0.095,-0.7127 -0.0634,-0.2534 -0.095,-0.50681 -0.095,-0.76022 -1e-5,-0.82355 0.0158,-1.64711 0.0475,-2.47068 0.0317,-0.85524 0.0475,-1.69464 0.0475,-2.51821 0,-1.90052 -0.0317,-3.80106 -0.095,-5.70161 -0.0317,-1.93219 -0.0793,-3.84856 -0.14254,-5.74911 v -0.38011 c -0.0317,-0.88689 -10e-6,-1.75797 0.095,-2.61324 0.095,-0.88689 0.14254,-1.7738 0.14254,-2.66074 0,-0.91856 -0.0475,-1.80549 -0.14254,-2.66075 -0.095,-0.88689 -0.14254,-1.78964 -0.14254,-2.70827 0,-0.63347 0.0159,-1.15611 0.0476,-1.56793 0.0317,-0.44343 0.1267,-0.82353 0.28507,-1.14032 0.15837,-0.3484 0.38011,-0.66515 0.66519,-0.95027 0.31676,-0.28505 0.76021,-0.6018 1.33038,-0.95027 1.83717,0.1901 3.67435,0.33263 5.51154,0.42762 1.86885,0.095 3.73771,0.17425 5.60658,0.23757 h 0.19005 c 0.6335,0.0317 1.26701,-0.0158 1.90054,-0.14254 0.66516,-0.12667 1.31452,-0.19002 1.94804,-0.19006 0.79188,4e-5 1.53625,0.0793 2.23314,0.23757 0.72851,0.15842 1.44121,0.36431 2.1381,0.61767 0.69683,0.25344 1.37785,0.53852 2.04307,0.85525 0.69683,0.28511 1.40953,0.57019 2.1381,0.85524 0.79186,0.76024 1.48873,1.44127 2.09059,2.04307 0.6018,0.60187 1.14029,1.21954 1.61545,1.85303 0.50678,0.60186 0.98191,1.28289 1.42541,2.04307 0.47509,0.72856 0.9819,1.59963 1.52042,2.61323 0.15834,1.33039 0.28505,2.66077 0.38011,3.99112 0.12667,1.29872 0.19001,2.61326 0.19005,3.94362 -4e-5,0.88693 -0.095,1.77384 -0.28508,2.66074 -0.15841,0.85526 -0.25344,1.72633 -0.28508,2.61323 m -21.52421,-15.346 c -0.12672,0.25343 -0.20591,0.53851 -0.23757,0.85524 -10e-6,0.2851 -10e-6,0.55435 0,0.80773 -10e-6,0.1584 -10e-6,0.33262 0,0.52264 0.0317,0.1584 0.0475,0.31678 0.0475,0.47514 -0.0317,1.90055 -0.0793,3.81693 -0.14254,5.74911 -0.0634,1.90055 -0.12671,3.81693 -0.19005,5.74912 l -0.0476,2.61324 -0.0475,0.66518 v 0.14254 c -10e-6,0.69687 0.25339,1.17201 0.76022,1.4254 0.53847,0.22174 1.10862,0.3326 1.71048,0.33259 1.77381,10e-6 3.2784,-0.15836 4.51376,-0.47513 1.26701,-0.31675 2.28062,-0.85522 3.04086,-1.61545 0.79187,-0.7602 1.36202,-1.75798 1.71048,-2.99334 0.38008,-1.23534 0.57013,-2.7716 0.57016,-4.6088 -3e-5,-0.38009 -0.0317,-0.88689 -0.095,-1.52043 -0.0634,-0.63349 -0.1584,-1.28284 -0.28507,-1.94804 -0.12673,-0.66517 -0.30095,-1.28284 -0.52265,-1.85302 -0.19008,-0.60182 -0.42765,-1.04527 -0.7127,-1.33038 -0.60186,-0.57014 -1.31456,-1.04526 -2.1381,-1.4254 -0.82359,-0.38008 -1.69467,-0.68099 -2.61324,-0.90275 -0.88693,-0.25338 -1.80553,-0.4276 -2.75578,-0.52265 -0.9186,-0.095 -1.77384,-0.14252 -2.56571,-0.14254 m 57.77922,16.91476 c -3e-5,0.22173 -0.0476,0.53849 -0.14254,0.95026 -0.0634,0.38011 -0.15842,0.7919 -0.28509,1.23535 -0.095,0.44346 -0.20592,0.87109 -0.33259,1.28285 -0.12674,0.38012 -0.2376,0.68104 -0.33259,0.90277 -0.28511,0.60183 -0.6969,1.20367 -1.23535,1.8055 -0.53852,0.57017 -1.04533,1.07697 -1.52043,1.52043 -0.19008,0.19006 -0.42765,0.41178 -0.7127,0.66518 -0.25343,0.22174 -0.53851,0.45931 -0.85524,0.71271 -0.31678,0.2534 -0.63354,0.47513 -0.95027,0.66518 -0.28511,0.19006 -0.55434,0.3326 -0.80772,0.42763 -0.88694,0.28507 -1.75803,0.57015 -2.61324,0.85523 -0.82358,0.28509 -1.66298,0.60184 -2.51821,0.95027 -0.76023,0 -1.67882,-0.0159 -2.75577,-0.0475 -1.04531,-0.0317 -2.13811,-0.095 -3.27842,-0.19005 -1.10866,-0.095 -2.18563,-0.25341 -3.23091,-0.47514 -1.01363,-0.22173 -1.85303,-0.52265 -2.51821,-0.90275 -0.7919,-0.44346 -1.55211,-1.01361 -2.28064,-1.71048 -0.69687,-0.69686 -1.36205,-1.37789 -1.99557,-2.04308 -0.5068,-0.53847 -0.98194,-1.12447 -1.42539,-1.75799 -0.41179,-0.63351 -0.7919,-1.28285 -1.14032,-1.94805 0,-0.6335 0,-1.23534 0,-1.8055 0,-0.60184 -0.0317,-1.2195 -0.095,-1.85303 -0.0317,-0.0634 -0.0792,-0.23755 -0.14254,-0.52264 -0.0317,-0.28507 -0.0634,-0.58598 -0.095,-0.90275 -0.0317,-0.34843 -0.0634,-0.66518 -0.095,-0.95027 -10e-6,-0.28507 -10e-6,-0.45929 0,-0.52265 -10e-6,-0.72852 0.0475,-1.4729 0.14254,-2.23313 0.095,-0.76019 0.14254,-1.52041 0.14254,-2.28064 0,-0.53846 -0.0317,-1.06111 -0.095,-1.56794 -0.0317,-0.53846 -0.0475,-1.07695 -0.0475,-1.61545 0,-0.88689 0.0158,-1.75798 0.0475,-2.61324 0.0634,-0.88689 0.095,-1.7738 0.095,-2.66075 0,-1.29866 -0.0634,-2.56569 -0.19006,-3.80106 -0.095,-1.267 -0.15838,-2.54986 -0.19005,-3.84859 0.22173,-0.6018 0.58599,-1.04526 1.09281,-1.33038 0.53847,-0.28503 1.12447,-0.45925 1.75799,-0.52264 0.66518,-0.095 1.33036,-0.12666 1.99556,-0.095 0.66518,0.0317 1.26702,0.0476 1.80551,0.0475 0.60183,5e-5 1.17198,5e-5 1.71048,0 0.53847,5e-5 0.99777,0.0793 1.37788,0.23757 0.41178,0.15841 0.72853,0.4435 0.95028,0.85524 0.22171,0.38014 0.33257,0.96614 0.33258,1.758 -10e-6,0.63354 -0.0793,1.28289 -0.23755,1.94804 -0.12672,0.63355 -0.22175,1.26705 -0.28509,1.90053 -0.0634,0.63355 -0.095,1.28289 -0.095,1.94806 -2e-5,0.66521 -2e-5,1.31456 0,1.94804 -2e-5,0.79191 0.0158,1.58381 0.0475,2.37567 0.0317,0.76023 0.0475,1.53629 0.0475,2.32815 -1e-5,0.72856 -0.0634,1.47294 -0.19005,2.23313 -0.12672,0.72855 -0.19007,1.4571 -0.19006,2.18562 -10e-6,0.50683 0.0317,1.06114 0.095,1.66297 0.095,0.57017 0.22172,1.09282 0.38011,1.56793 -0.0634,0.38013 -0.0634,0.80775 0,1.28286 0.0634,0.47515 0.12669,0.90277 0.19006,1.28287 0.41176,0.5385 0.79187,1.06114 1.14032,1.56794 0.38008,0.47514 0.79187,0.90276 1.23534,1.28285 0.44344,0.34845 0.93442,0.63353 1.47292,0.85525 0.53846,0.22174 1.18781,0.33259 1.94805,0.33259 1.07695,0 1.93218,-0.25339 2.56572,-0.76021 0.66516,-0.5068 1.15613,-1.14031 1.47291,-1.90053 0.34841,-0.79188 0.57014,-1.64713 0.66519,-2.56573 0.12667,-0.95025 0.19002,-1.853 0.19005,-2.70826 -3e-5,-0.41176 -3e-5,-0.82355 0,-1.23535 -3e-5,-0.44344 -0.0317,-0.87106 -0.095,-1.28285 -0.0634,-0.34842 -0.14258,-0.69685 -0.23757,-1.04531 -0.0634,-0.38008 -0.095,-0.74435 -0.095,-1.0928 -2e-5,-0.72852 0.0158,-1.47289 0.0475,-2.23313 0.0634,-0.76019 0.095,-1.50456 0.095,-2.23313 -2e-5,-0.0317 -0.0159,-0.11083 -0.0475,-0.23756 -0.0317,-0.15835 -0.0634,-0.31673 -0.095,-0.47513 -0.0317,-0.19004 -0.0793,-0.34841 -0.14254,-0.47514 -0.0317,-0.15835 -0.0476,-0.26921 -0.0475,-0.33259 0.095,-0.60181 0.14251,-1.20364 0.14254,-1.80551 -3e-5,-0.82354 -0.0317,-1.61542 -0.095,-2.37567 -0.0634,-0.79186 -0.095,-1.58374 -0.095,-2.37567 -2e-5,-1.36201 0.11085,-2.32811 0.3326,-2.89831 0.2217,-0.6018 0.57013,-0.99774 1.04529,-1.18783 0.47511,-0.2217 1.07695,-0.34839 1.8055,-0.38011 0.72851,-0.0634 1.5996,-0.2692 2.61324,-0.61767 0.41175,3e-5 0.90273,0.0317 1.47292,0.095 0.57013,0.0317 1.12445,0.12674 1.66296,0.28509 0.53846,0.15841 0.99775,0.39598 1.37789,0.71269 0.38008,0.3168 0.57012,0.76026 0.57017,1.33038 -5e-5,0.34847 -0.0476,0.69689 -0.14255,1.04529 -0.095,0.31679 -0.14257,0.64939 -0.14254,0.99778 -3e-5,0.12674 0.0158,0.20593 0.0475,0.23757 -3e-5,0.53852 0.0317,1.06116 0.095,1.56793 0.0634,0.47517 0.095,0.98199 0.095,1.52044 -3e-5,0.44349 -0.095,0.90279 -0.28507,1.37789 -0.15841,0.44348 -0.2376,0.88694 -0.23757,1.33037 -3e-5,0.38014 0.0317,0.77607 0.095,1.18784 0.0634,0.38013 0.095,0.76023 0.095,1.14032 -4e-5,0.82358 -0.0317,1.64714 -0.095,2.47069 -0.0634,0.82358 -0.12674,1.64715 -0.19006,2.47069 -0.0634,0.72856 -0.0159,1.5838 0.14254,2.56572 0.19003,0.95028 0.28506,1.82137 0.28509,2.61324 -3e-5,0.4118 -0.0317,0.82358 -0.095,1.23535 -0.0317,0.38012 -0.0476,0.76022 -0.0475,1.14032 -4e-5,0.25342 0.0158,0.50681 0.0475,0.76021 0.0634,0.25342 0.095,0.50682 0.095,0.76022 m 48.04042,12.02087 c -1.2037,0 -2.16981,-0.17421 -2.89831,-0.52265 -0.6969,-0.34842 -1.29873,-0.80772 -1.80552,-1.37788 -0.47515,-0.57016 -0.93445,-1.2195 -1.37788,-1.94805 -0.4118,-0.76021 -0.95029,-1.55209 -1.61546,-2.37567 -0.15839,-0.88691 -0.45931,-1.69463 -0.90275,-2.42317 -0.44348,-0.76022 -0.88693,-1.52042 -1.33037,-2.28064 -0.38013,-0.69686 -0.72855,-1.40956 -1.0453,-2.13811 -0.31677,-0.72853 -0.64937,-1.44122 -0.99778,-2.1381 -0.15839,-0.28506 -0.33261,-0.55431 -0.52265,-0.80773 -0.19007,-0.28507 -0.36427,-0.58598 -0.52264,-0.90275 -0.44347,-0.82355 -0.85526,-1.66295 -1.23535,-2.51821 -0.34844,-0.85522 -0.69688,-1.72629 -1.04529,-2.61324 v -0.095 c -0.12672,2e-5 -0.23758,0.095 -0.3326,0.28508 -0.0634,0.1584 -0.11087,0.34845 -0.14254,0.57015 -0.0317,0.22175 -0.0475,0.44348 -0.0475,0.6652 -1e-5,0.19007 -1e-5,0.31677 0,0.38011 -1e-5,0.53849 0.0634,1.06114 0.19005,1.56793 0.15837,0.50683 0.23756,1.02947 0.23757,1.56795 -10e-6,1.33039 -0.0159,2.66076 -0.0475,3.99111 -0.0317,1.29871 0.0158,2.59741 0.14254,3.8961 0.095,1.0453 0.19004,2.09059 0.28508,3.13588 0.095,1.0453 0.14253,2.09059 0.14254,3.13588 -10e-6,1.0453 -0.19006,1.758 -0.57016,2.13811 -0.34844,0.3801 -0.77606,0.61767 -1.28285,0.7127 -0.47515,0.095 -0.9978,0.14254 -1.56795,0.14254 -0.5385,0 -0.99779,0.1267 -1.37789,0.38011 -0.31676,0 -0.72854,-0.0158 -1.23534,-0.0475 -0.47514,0 -0.96611,-0.0475 -1.47292,-0.14254 -0.47514,-0.0634 -0.93443,-0.17422 -1.37788,-0.33259 -0.44347,-0.15838 -0.76023,-0.3801 -0.95028,-0.66519 -0.12669,-0.15838 -0.22172,-0.39594 -0.28507,-0.71269 -0.0634,-0.34844 -0.11087,-0.69687 -0.14254,-1.04531 -0.0317,-0.38009 -0.0634,-0.74437 -0.095,-1.0928 0,-0.34842 0,-0.61767 0,-0.80773 -0.0634,-1.10864 -0.11087,-2.21728 -0.14254,-3.32593 -0.0317,-1.10864 -0.0475,-2.21728 -0.0475,-3.32594 -10e-6,-0.95025 0.0475,-1.90051 0.14254,-2.8508 0.095,-0.95025 0.14254,-1.91636 0.14254,-2.89831 0,-0.69684 -0.0634,-1.39371 -0.19006,-2.09059 -0.1267,-0.69685 -0.19005,-1.40954 -0.19005,-2.1381 0,-1.17197 0.0158,-2.34397 0.0475,-3.51599 0.0634,-1.20365 0.0634,-2.39148 0,-3.5635 -0.0317,-0.25338 -0.0792,-0.50679 -0.14254,-0.76022 -0.0317,-0.28505 -0.0476,-0.55429 -0.0475,-0.80772 -2e-5,-0.28505 -2e-5,-0.681 0,-1.18784 0.0317,-0.50677 0.0475,-1.01359 0.0475,-1.52042 0,-0.53846 -0.0317,-1.02942 -0.095,-1.47292 -0.0317,-0.4751 -0.095,-0.82353 -0.19005,-1.04529 -0.0634,-0.15835 -0.14253,-0.33256 -0.23756,-0.52265 -0.0634,-0.19001 -0.095,-0.38007 -0.095,-0.57016 0,-0.53845 0.26923,-0.95023 0.80773,-1.23534 0.53847,-0.28505 1.17199,-0.49095 1.90053,-0.61768 0.72854,-0.12666 1.44123,-0.19001 2.1381,-0.19006 0.72853,-0.0317 1.26701,-0.0475 1.61546,-0.0475 0.31675,3e-5 0.7602,0.0159 1.33037,0.0475 0.57015,0.0317 1.15615,0.095 1.75799,0.19006 0.60183,0.0634 1.17199,0.17425 1.71049,0.33259 0.53846,0.12674 0.93441,0.3168 1.18783,0.57017 0.25338,0.25344 0.45928,0.53851 0.61767,0.85524 0.15836,0.31679 0.30091,0.64937 0.42762,0.99777 0.12669,0.3168 0.2534,0.64939 0.3801,0.99778 0.12669,0.31679 0.28507,0.61771 0.47514,0.90276 0.72852,1.10867 1.40955,2.23315 2.04307,3.37344 0.6335,1.14035 1.20366,2.31235 1.71049,3.51599 0.12668,0.31679 0.30089,0.63354 0.52264,0.95027 0.22171,0.2851 0.41177,0.57019 0.57017,0.85525 0.53846,0.91861 1.07694,1.86887 1.61545,2.85079 0.57014,0.95029 1.0611,1.90056 1.47291,2.85081 0.15836,0.38012 0.3009,0.82358 0.42763,1.33036 0.15834,0.47516 0.30088,0.91862 0.42761,1.33038 v 0.095 h 0.52265 c -2e-5,-1.29868 -0.0793,-2.59737 -0.23757,-3.89609 -0.1584,-1.29868 -0.30094,-2.59738 -0.42761,-3.8961 -0.1584,-1.55207 -0.30095,-3.08834 -0.42763,-4.6088 -0.12672,-1.55207 -0.19007,-3.10417 -0.19005,-4.65631 -2e-5,-1.01358 0.0317,-1.82131 0.095,-2.42318 0.0634,-0.6018 0.23754,-1.0611 0.52265,-1.37788 0.28505,-0.3484 0.71267,-0.58597 1.28285,-0.71271 0.60182,-0.12665 1.42538,-0.22168 2.4707,-0.28508 0.2217,5e-5 0.50678,-0.0158 0.85524,-0.0475 0.3484,-0.0317 0.69683,-0.0634 1.0453,-0.095 0.34839,-0.0634 0.68099,-0.12667 0.99778,-0.19005 0.31672,-0.095 0.57012,-0.20586 0.76021,-0.3326 0.98191,0.25344 1.66293,0.63355 2.04307,1.14032 0.38008,0.50685 0.58597,1.23538 0.61768,2.18561 v 7.12701 c -3e-5,0.34846 -0.0634,0.69689 -0.19006,1.04529 -0.095,0.31679 -0.14257,0.64938 -0.14254,0.99778 -3e-5,0.44349 0.0317,0.90279 0.095,1.37789 0.095,0.47516 0.14251,0.93445 0.14254,1.37789 -3e-5,0.6652 -0.0634,1.34623 -0.19005,2.04307 -0.095,0.69689 -0.14258,1.37791 -0.14255,2.04308 -3e-5,0.5385 -3e-5,1.07698 0,1.61545 0.0317,0.50683 0.0634,1.02947 0.095,1.56795 -3e-5,0.31676 -0.0476,0.68103 -0.14254,1.0928 -0.0634,0.38012 -0.12673,0.72855 -0.19004,1.0453 0.12666,0.41179 0.22168,0.83941 0.28507,1.28286 0.0949,0.44346 0.14251,0.87109 0.14254,1.28285 -3e-5,0.6652 -0.0159,1.33039 -0.0475,1.99557 -0.0317,0.63351 -0.0476,1.28287 -0.0475,1.94804 -3e-5,0.19007 -3e-5,0.55434 0,1.09281 0.0317,0.5385 0.0475,1.10865 0.0475,1.71049 -4e-5,0.57016 -4e-5,1.10865 0,1.61545 -4e-5,0.47514 -0.0159,0.76021 -0.0475,0.85523 -0.19009,0.60185 -0.55436,1.01362 -1.0928,1.23535 -0.53853,0.22173 -1.06118,0.44346 -1.56795,0.66519 -0.19008,0 -0.47517,0 -0.85524,0 -0.34846,0 -0.72857,0 -1.14032,0 -0.38014,0.0317 -0.74441,0.0634 -1.0928,0.095 -0.34847,0.0317 -0.60187,0.0791 -0.76021,0.14254 m 38.71747,-0.52265 h -3.84858 c -0.66521,0 -1.34624,-0.0317 -2.04307,-0.095 -0.66522,-0.095 -1.34624,-0.14254 -2.04308,-0.14254 -0.34845,0 -0.85526,0 -1.52043,0 -0.66521,-0.0317 -1.34623,-0.0317 -2.04307,0 -0.69689,0.0317 -1.36207,0.0792 -1.99556,0.14254 -0.60185,0.0634 -1.02948,0.17422 -1.28286,0.3326 -0.63353,0 -1.31455,-0.0159 -2.04308,-0.0475 -0.69687,-0.0317 -1.36205,0.0158 -1.99556,0.14254 -0.63352,0.1267 -1.29871,0.22173 -1.99556,0.28508 -0.69688,0.095 -1.36206,0.14254 -1.99556,0.14254 -1.52043,0 -2.61324,-0.44346 -3.27842,-1.33037 -0.66519,-0.88693 -0.99779,-2.04307 -0.99779,-3.46848 0,-1.14031 0.11087,-2.2648 0.3326,-3.37345 0.22173,-1.14031 0.33259,-2.26479 0.33259,-3.37344 0,-0.31675 -0.0317,-0.63351 -0.095,-0.95028 -0.0634,-0.31674 -0.11087,-0.6335 -0.14254,-0.95027 -0.0317,-0.47511 -0.0317,-0.95025 0,-1.42539 0.0317,-0.5068 0.0317,-0.99776 0,-1.47292 -1e-5,-0.25339 -0.0317,-0.50679 -0.095,-0.76022 -0.0634,-0.25338 -0.095,-0.50678 -0.095,-0.76021 0,-0.82354 0.0475,-1.63126 0.14254,-2.42318 0.1267,-0.82354 0.19005,-1.6471 0.19006,-2.4707 -10e-6,-0.3484 -0.0317,-0.68099 -0.095,-0.99777 -0.0317,-0.34841 -0.0475,-0.69684 -0.0475,-1.0453 -10e-6,-0.82354 0.0317,-1.66294 0.095,-2.51821 0.095,-0.85521 0.14254,-1.69461 0.14254,-2.5182 0,-1.07694 -0.0475,-2.13807 -0.14254,-3.1834 -0.095,-1.07693 -0.14254,-2.15391 -0.14254,-3.23091 0,-0.28504 0.11086,-0.53844 0.3326,-0.76021 0.22173,-0.25337 0.47512,-0.45925 0.76021,-0.61768 0.31675,-0.15833 0.63351,-0.30087 0.95026,-0.42761 0.34843,-0.12667 0.64935,-0.23753 0.90277,-0.3326 0.25339,4e-5 0.52263,4e-5 0.80772,0 0.28508,-0.0317 0.55431,-0.0475 0.80772,-0.0475 0.85523,5e-5 1.69464,0.0634 2.51821,0.19005 0.82356,0.12674 1.64712,0.26928 2.4707,0.42763 l 0.3326,-0.0476 1.56793,-0.0475 c 2.1856,-0.0949 4.37121,-0.14251 6.55684,-0.14254 0.31674,3e-5 0.6335,0.0317 0.95028,0.095 0.31673,0.0317 0.63348,0.0793 0.95026,0.14254 -0.0317,3e-5 0.0158,3e-5 0.14254,0 0.12668,-0.0317 0.2217,-0.0634 0.28508,-0.095 l 0.61768,-0.0475 2.32815,-0.28509 c 0.15836,-0.0317 0.31673,-0.0475 0.47513,-0.0475 0.19003,4e-5 0.36425,4e-5 0.52265,0 0.3484,4e-5 0.71267,0.0317 1.09281,0.095 0.38007,0.0634 0.74434,0.19009 1.0928,0.3801 0.12668,0.095 0.25338,0.41182 0.38011,0.95027 0.12667,0.53852 0.2217,1.14036 0.28508,1.80551 0.095,0.66522 0.15835,1.29873 0.19005,1.90053 0.0634,0.60187 0.095,0.99782 0.095,1.18783 -3e-5,1.07701 -0.30095,1.85306 -0.90275,2.32816 -0.57019,0.44349 -1.36208,0.66522 -2.37567,0.66519 -0.91861,3e-5 -1.82137,-0.0792 -2.70827,-0.23757 -0.85526,-0.15835 -1.74217,-0.23754 -2.66074,-0.23757 -0.91862,3e-5 -1.85304,-0.0317 -2.80329,-0.095 -0.91861,-0.095 -1.83719,-0.14252 -2.75577,-0.14255 -0.5385,3e-5 -1.10866,0.0793 -1.71048,0.23757 -0.57017,0.12673 -1.02947,0.42765 -1.37789,0.90275 -0.095,3e-5 -0.14256,0.0476 -0.14255,0.14255 -10e-6,0.0317 0.0158,0.0634 0.0476,0.095 0.0317,0.31679 0.0475,0.71274 0.0475,1.18784 -10e-6,0.47516 0.0317,0.93445 0.095,1.37789 0.095,0.44348 0.25339,0.82358 0.47514,1.14032 0.22172,0.31678 0.58598,0.47516 1.0928,0.47513 0.69685,3e-5 1.37788,-0.0634 2.04308,-0.19005 0.69685,-0.15836 1.39371,-0.23755 2.09058,-0.23757 0.69685,2e-5 1.37787,0.0317 2.04308,0.095 0.66517,0.0317 1.34619,0.0317 2.04308,0 0.63348,-0.0317 1.25116,-0.0792 1.85301,-0.14254 0.6335,-0.095 1.267,-0.14252 1.90055,-0.14254 0.82353,2e-5 1.47288,0.17424 1.94804,0.52265 0.50678,0.31677 0.76018,0.91861 0.76021,1.8055 -3e-5,0.12672 -0.0159,0.25343 -0.0475,0.38011 -4e-5,0.095 -4e-5,0.20591 0,0.33259 -0.0317,0.53851 -0.0476,1.14035 -0.0475,1.80551 -2e-5,0.63353 -0.0793,1.23537 -0.23757,1.8055 -0.12673,0.53851 -0.38013,0.9978 -0.76021,1.37789 -0.38013,0.38013 -0.96614,0.57018 -1.758,0.57017 -1.01364,10e-6 -2.02725,0.0317 -3.04085,0.095 -1.01364,0.0317 -2.02725,0.0476 -3.04085,0.0475 -0.47516,2e-5 -1.10866,-0.12669 -1.90054,-0.3801 -0.76023,-0.28507 -1.5046,-0.42761 -2.23313,-0.42762 -0.25342,10e-6 -0.49098,0.0159 -0.71269,0.0475 -0.22175,0.0317 -0.45932,0.095 -0.7127,0.19005 -0.60185,2e-5 -1.04532,0.095 -1.33038,0.28508 -0.28509,0.15839 -0.49098,0.39596 -0.61768,0.7127 -0.095,0.28509 -0.14255,0.64936 -0.14254,1.09281 0.0317,0.41179 0.0475,0.85525 0.0475,1.33037 -10e-6,0.41179 -10e-6,0.83942 0,1.28286 -10e-6,0.44347 0.0475,0.83942 0.14254,1.18783 0.12669,0.34845 0.31673,0.64937 0.57015,0.90277 0.28507,0.22172 0.69686,0.33259 1.23535,0.33258 0.66518,1e-5 1.36204,-0.0634 2.09059,-0.19005 0.72853,-0.12669 1.45706,-0.22172 2.18562,-0.28508 1.17197,-0.0634 2.32813,-0.095 3.46848,-0.095 1.14029,-0.0317 2.29644,-0.0792 3.46846,-0.14255 0.53847,-0.0317 1.06111,-0.0634 1.56795,-0.095 0.53845,-0.0634 1.07694,-0.095 1.61546,-0.095 0.82353,10e-6 1.50455,0.15839 2.04307,0.47513 0.53845,0.31676 0.80769,0.93443 0.80772,1.85302 -3e-5,0.34844 -0.0476,0.68103 -0.14254,0.99778 -0.0634,0.28509 -0.095,0.60184 -0.095,0.95027 -3e-5,0.44347 0.0317,0.87108 0.095,1.28286 0.0634,0.41178 0.095,0.8394 0.095,1.28286 -3e-5,0.63351 -0.22176,1.25119 -0.66518,1.85302 -0.41182,0.60184 -0.96614,0.90275 -1.66298,0.90275 m 24.41892,-28.84061 0.42761,2.28064 -0.42761,2.56573 c 0.12667,0.4118 0.20586,1.15618 0.23756,2.23312 0.0634,1.04533 0.095,2.16981 0.095,3.37345 0.0317,1.17201 0.0317,2.2965 0,3.37345 -2e-5,1.07699 -2e-5,1.85304 0,2.32815 -2e-5,0.50683 -0.0476,1.02948 -0.14254,1.56795 -0.0634,0.50682 -0.12672,1.01363 -0.19004,1.52043 -0.0317,0.34843 -0.0317,0.76022 0,1.23535 0.0634,0.47513 0.12667,0.96611 0.19004,1.4729 0.095,0.50682 0.1742,1.01363 0.23757,1.52044 0.095,0.50681 0.14252,0.9661 0.14254,1.37789 -2e-5,1.10864 -0.25342,1.94804 -0.76021,2.51821 -0.50683,0.57015 -1.29872,0.9661 -2.37567,1.18783 v 0.23756 c -0.82359,0 -1.64715,0.0475 -2.47069,0.14254 -0.82358,0.095 -1.64715,0.14254 -2.4707,0.14254 -0.85525,0 -1.53628,-0.30092 -2.04307,-0.90275 -0.47515,-0.60184 -0.71271,-1.31454 -0.7127,-2.1381 -1e-5,-0.50681 0.0158,-1.01361 0.0475,-1.52043 0.0317,-0.53848 0.0475,-1.07697 0.0475,-1.61546 -0.0317,-0.34842 -0.0791,-0.71269 -0.14254,-1.09281 -0.0317,-0.41177 -0.0476,-0.79188 -0.0476,-1.14032 -10e-6,-0.50679 0.0634,-1.02944 0.19006,-1.56793 0.15836,-0.53848 0.23755,-1.06112 0.23756,-1.56795 -10e-6,-0.57014 -0.0476,-1.17198 -0.14253,-1.8055 -0.0634,-0.6335 -0.12672,-1.23533 -0.19006,-1.80551 -0.0634,-0.47512 -0.0317,-0.98193 0.095,-1.52042 0.15836,-0.53848 0.23755,-1.06112 0.23756,-1.56795 -1e-5,-0.44343 -0.0476,-0.90273 -0.14253,-1.37789 -0.0634,-0.50678 -0.12672,-0.98192 -0.19006,-1.4254 -0.0634,-0.34841 -0.0634,-0.88689 0,-1.61545 0.0634,-0.72851 0.14253,-1.48873 0.23757,-2.28064 0.095,-0.82354 0.19004,-1.5996 0.28507,-2.32816 0.095,-0.7285 0.17421,-1.28283 0.23757,-1.66297 -0.50682,4e-5 -0.96611,0.0634 -1.37789,0.19006 -0.38011,0.12673 -0.76022,0.26927 -1.14032,0.42762 -0.38011,0.12673 -0.77605,0.25343 -1.18783,0.3801 -0.38011,0.095 -0.82357,0.14258 -1.33038,0.14254 -0.50681,4e-5 -1.02946,-0.0317 -1.56793,-0.095 -0.5385,-0.095 -1.0453,-0.25337 -1.52043,-0.47513 -0.44346,-0.25338 -0.80773,-0.57014 -1.09281,-0.95027 -0.28508,-0.41176 -0.42763,-0.9344 -0.42761,-1.56794 v -2.23313 c -2e-5,-0.98191 0.0475,-1.75796 0.14253,-2.32815 0.1267,-0.57013 0.34843,-1.02943 0.66519,-1.37789 0.31676,-0.34839 0.72853,-0.61764 1.23535,-0.80773 0.53847,-0.22169 1.2195,-0.45926 2.04307,-0.7127 0.41178,0.0634 0.93442,0.14258 1.56794,0.23756 0.66518,0.095 1.33036,0.1901 1.99556,0.28509 0.69685,0.0634 1.36205,0.12674 1.99556,0.19005 0.6335,0.0317 1.15615,0.0317 1.56795,0 0.47511,-0.0633 0.96609,-0.12667 1.4729,-0.19005 0.53848,-0.0634 1.04528,-0.0949 1.52043,-0.095 0.72852,4e-5 1.47291,0.0793 2.23313,0.23757 0.79187,0.12674 1.55209,0.19009 2.28064,0.19005 1.10863,4e-5 2.20143,-0.0317 3.27842,-0.095 1.07695,-0.095 2.16975,-0.14251 3.27842,-0.14255 0.69685,4e-5 1.28284,0.0159 1.758,0.0475 0.4751,0.0317 0.85521,0.15841 1.14032,0.38011 0.28505,0.19009 0.4751,0.50685 0.57016,0.95026 0.12667,0.4435 0.19003,1.06117 0.19005,1.85303 -2e-5,0.19009 -2e-5,0.38013 0,0.57016 -2e-5,0.19008 -0.0159,0.38014 -0.0475,0.57016 0.0634,0.28512 0.095,0.60186 0.095,0.95027 -4e-5,0.31679 -4e-5,0.63353 0,0.95026 -4e-5,0.47517 -0.1901,0.93446 -0.57017,1.37789 -0.34846,0.44348 -0.69689,0.82359 -1.04529,1.14032 -0.98197,3e-5 -1.96392,-0.11084 -2.94582,-0.33259 -0.98198,-0.22171 -1.96392,-0.33257 -2.94584,-0.3326 -0.79191,3e-5 -1.56796,0.17424 -2.32815,0.52265"
       id="text2860"
       inkscape:connector-curvature="0" />
  </g>
</svg>
